<svg width="104" height="65" viewBox="0 0 104 65" fill="none" xmlns="http://www.w3.org/2000/svg">
<path d="M0 22.7768L91.6958 35.9779L104 48.3947L0 22.7768Z" fill="#FA1239"/>
<path opacity="0.6" d="M0 22.7768L91.6958 35.9779L104 48.3947L0 22.7768Z" fill="white"/>
<path d="M0 22.7768L91.6958 35.9779L87.4403 53.9333L0 22.7768Z" fill="#FA1239"/>
<path opacity="0.2" d="M0 22.7768L91.6958 35.9779L87.4403 53.9333L0 22.7768Z" fill="black"/>
<path d="M85.5579 1.98964L90.8794 26.9278C91.0178 27.579 90.8923 28.2585 90.5303 28.8172C90.1684 29.376 89.5996 29.7684 88.9487 29.9083L41.4537 40.0444C40.8026 40.1817 40.1236 40.0557 39.5651 39.694C39.0066 39.3322 38.614 38.7641 38.4732 38.1137L33.1477 13.1756C33.0104 12.5239 33.137 11.8444 33.4996 11.2858C33.8622 10.7272 34.4313 10.335 35.0824 10.1951L82.5774 0.0589469C83.2291 -0.0782684 83.9086 0.0482673 84.4672 0.410862C85.0258 0.773457 85.418 1.34258 85.5579 1.99366V1.98964Z" fill="#FA1239"/>
<path opacity="0.4" d="M85.5579 1.98964L90.8794 26.9278C91.0178 27.579 90.8923 28.2585 90.5303 28.8172C90.1684 29.376 89.5996 29.7684 88.9487 29.9083L41.4537 40.0444C40.8026 40.1817 40.1236 40.0557 39.5651 39.694C39.0066 39.3322 38.614 38.7641 38.4732 38.1137L33.1477 13.1756C33.0104 12.5239 33.137 11.8444 33.4996 11.2858C33.8622 10.7272 34.4313 10.335 35.0824 10.1951L82.5774 0.0589469C83.2291 -0.0782684 83.9086 0.0482673 84.4672 0.410862C85.0258 0.773457 85.418 1.34258 85.5579 1.99366V1.98964Z" fill="black"/>
<path d="M84.3874 0.356576L68.5196 19.8365C67.0479 21.6425 65.0039 22.8921 62.7255 23.3785C60.4472 23.8649 58.071 23.5589 55.9902 22.5113L33.5499 11.2087C33.9129 10.6872 34.4608 10.3233 35.0824 10.191L82.5774 0.0549053C83.1972 -0.0770062 83.8439 0.0307845 84.3874 0.356576Z" fill="#FA1239"/>
<path d="M0 22.7768L75.6309 40.7523L87.4403 53.9333L0 22.7768Z" fill="#FA1239"/>
<path opacity="0.6" d="M0 22.7768L75.6309 40.7523L87.4403 53.9333L0 22.7768Z" fill="white"/>
<path d="M27.5884 40.1028L27.3851 40.4499L35.8015 45.3798L36.0048 45.0328L27.5884 40.1028Z" fill="#FA1239"/>
<path d="M39.7206 47.2062L39.5173 47.5533L42.5438 49.326L42.7471 48.979L39.7206 47.2062Z" fill="#FA1239"/>
<path d="M0 22.7768L75.6309 40.7523L60.9294 58.4705L0 22.7768Z" fill="#FA1239"/>
<path d="M101.16 64.89C101.058 64.8903 100.957 64.8712 100.863 64.8337L88.5463 59.9587C88.3493 59.8793 88.1917 59.7253 88.1078 59.5301C88.0239 59.3349 88.0207 59.1145 88.0988 58.9169C88.1768 58.7193 88.3299 58.5607 88.5245 58.4755C88.7191 58.3904 88.9395 58.3857 89.1376 58.4624L101.458 63.3374C101.632 63.4063 101.777 63.5339 101.867 63.6981C101.957 63.8624 101.988 64.053 101.952 64.237C101.917 64.4211 101.819 64.5871 101.674 64.7063C101.529 64.8255 101.348 64.8905 101.16 64.89Z" fill="#FA1239"/>
<path opacity="0.3" d="M101.16 64.89C101.058 64.8903 100.957 64.8712 100.863 64.8337L88.5463 59.9587C88.3493 59.8793 88.1917 59.7253 88.1078 59.5301C88.0239 59.3349 88.0207 59.1145 88.0988 58.9169C88.1768 58.7193 88.3299 58.5607 88.5245 58.4755C88.7191 58.3904 88.9395 58.3857 89.1376 58.4624L101.458 63.3374C101.632 63.4063 101.777 63.5339 101.867 63.6981C101.957 63.8624 101.988 64.053 101.952 64.237C101.917 64.4211 101.819 64.5871 101.674 64.7063C101.529 64.8255 101.348 64.8905 101.16 64.89Z" fill="black"/>
<path d="M100.432 57.8268C100.331 57.8262 100.232 57.8057 100.139 57.7665L93.522 55.1319C93.4231 55.0936 93.3328 55.0361 93.2562 54.9627C93.1796 54.8893 93.1182 54.8014 93.0757 54.7042C93.0332 54.607 93.0103 54.5024 93.0084 54.3963C93.0065 54.2903 93.0256 54.1848 93.0646 54.0862C93.1036 53.9875 93.1617 53.8975 93.2356 53.8214C93.3095 53.7453 93.3977 53.6846 93.4952 53.6427C93.5927 53.6008 93.6975 53.5786 93.8036 53.5774C93.9096 53.5762 94.0149 53.596 94.1133 53.6356L100.73 56.2582C100.928 56.3362 101.087 56.4897 101.173 56.685C101.258 56.8804 101.262 57.1015 101.184 57.2999C101.128 57.454 101.025 57.5871 100.891 57.6813C100.757 57.7755 100.596 57.8263 100.432 57.8268Z" fill="#FA1239"/>
<path opacity="0.5" d="M100.432 57.8268C100.331 57.8262 100.232 57.8057 100.139 57.7665L93.522 55.1319C93.4231 55.0936 93.3328 55.0361 93.2562 54.9627C93.1796 54.8893 93.1182 54.8014 93.0757 54.7042C93.0332 54.607 93.0103 54.5024 93.0084 54.3963C93.0065 54.2903 93.0256 54.1848 93.0646 54.0862C93.1036 53.9875 93.1617 53.8975 93.2356 53.8214C93.3095 53.7453 93.3977 53.6846 93.4952 53.6427C93.5927 53.6008 93.6975 53.5786 93.8036 53.5774C93.9096 53.5762 94.0149 53.596 94.1133 53.6356L100.73 56.2582C100.928 56.3362 101.087 56.4897 101.173 56.685C101.258 56.8804 101.262 57.1015 101.184 57.2999C101.128 57.454 101.025 57.5871 100.891 57.6813C100.757 57.7755 100.596 57.8263 100.432 57.8268Z" fill="white"/>
<path d="M86.5997 64.7854C86.4992 64.7843 86.3998 64.7652 86.3061 64.7291L74.2915 59.9587C74.1926 59.9204 74.1022 59.8628 74.0256 59.7894C73.949 59.716 73.8877 59.6282 73.8452 59.531C73.8027 59.4338 73.7798 59.3292 73.7779 59.2231C73.776 59.117 73.7951 59.0116 73.834 58.913C73.873 58.8143 73.9312 58.7243 74.0051 58.6482C74.079 58.5721 74.1672 58.5113 74.2647 58.4695C74.3621 58.4276 74.4669 58.4054 74.573 58.4042C74.6791 58.403 74.7844 58.4228 74.8828 58.4624L86.8973 63.2168C87.0716 63.2856 87.2164 63.4132 87.3067 63.5775C87.3969 63.7417 87.427 63.9323 87.3917 64.1164C87.3564 64.3004 87.258 64.4664 87.1134 64.5856C86.9688 64.7048 86.7871 64.7698 86.5997 64.7694V64.7854Z" fill="#FA1239"/>
<path opacity="0.3" d="M86.5997 64.7854C86.4992 64.7843 86.3998 64.7652 86.3061 64.7291L74.2915 59.9587C74.1926 59.9204 74.1022 59.8628 74.0256 59.7894C73.949 59.716 73.8877 59.6282 73.8452 59.531C73.8027 59.4338 73.7798 59.3292 73.7779 59.2231C73.776 59.117 73.7951 59.0116 73.834 58.913C73.873 58.8143 73.9312 58.7243 74.0051 58.6482C74.079 58.5721 74.1672 58.5113 74.2647 58.4695C74.3621 58.4276 74.4669 58.4054 74.573 58.4042C74.6791 58.403 74.7844 58.4228 74.8828 58.4624L86.8973 63.2168C87.0716 63.2856 87.2164 63.4132 87.3067 63.5775C87.3969 63.7417 87.427 63.9323 87.3917 64.1164C87.3564 64.3004 87.258 64.4664 87.1134 64.5856C86.9688 64.7048 86.7871 64.7698 86.5997 64.7694V64.7854Z" fill="black"/>
</svg>
