<svg width="54" height="124" viewBox="0 0 54 124" fill="none" xmlns="http://www.w3.org/2000/svg">
<path d="M44.9886 22.307C46.0566 24.3905 47.036 26.4782 47.9669 28.6142C48.8979 30.7501 49.7644 32.9143 50.5221 35.1833L50.7961 36.0417C50.8445 36.1949 50.913 36.4448 50.9533 36.6221C50.9936 36.7994 51.0299 37.0009 51.05 37.1702C51.1423 37.8204 51.1894 38.4762 51.1911 39.1329C51.1971 40.344 51.1406 41.5547 51.0218 42.76C50.7967 45.0933 50.4307 47.4109 49.9256 49.6999L47.713 49.4541C47.6848 47.1851 47.6647 44.892 47.5841 42.6552C47.5478 41.5429 47.4833 40.4265 47.3705 39.3787C47.3194 38.8866 47.2386 38.3981 47.1287 37.9158C47.1085 37.8029 47.0763 37.7183 47.0521 37.6256C47.0279 37.5329 47.0037 37.5007 46.9634 37.3798L46.6571 36.6181C45.8148 34.5788 44.8677 32.5234 43.9005 30.4761L40.9746 24.3341L44.9886 22.307Z" fill="#E4897B"/>
<path d="M47.7454 48.7448L46.7137 50.6752L50.0103 51.5941C50.0103 51.5941 50.639 50.0425 49.8894 48.8173L47.7454 48.7448Z" fill="#E4897B"/>
<path d="M45.4521 53.4561L48.4828 53.6979L50.0102 51.5941L46.7135 50.6753L45.4521 53.4561Z" fill="#E4897B"/>
<path d="M31.1129 8.37879C31.0686 8.61657 30.9034 8.78181 30.7502 8.74957C30.5971 8.71733 30.5125 8.50373 30.5608 8.26998C30.6092 8.03623 30.7704 7.86697 30.9235 7.89921C31.0767 7.93145 31.1653 8.14504 31.1129 8.37879Z" fill="#263238"/>
<path d="M30.9276 8.78178C30.5019 9.44114 29.988 10.0391 29.4001 10.5591C29.5374 10.7051 29.7046 10.8196 29.8904 10.8948C30.0762 10.9699 30.276 11.0039 30.4762 10.9943L30.9276 8.78178Z" fill="#DE5753"/>
<path d="M32.2332 7.25427C32.1951 7.2533 32.1589 7.23738 32.1324 7.20994C32.0167 7.07751 31.8713 6.9742 31.7082 6.90839C31.545 6.84257 31.3687 6.8161 31.1934 6.8311C31.16 6.83143 31.1276 6.8199 31.1019 6.79856C31.0762 6.77722 31.0589 6.74746 31.0531 6.71457C31.0473 6.68168 31.0534 6.6478 31.0702 6.61896C31.087 6.59011 31.1136 6.56818 31.1451 6.55705C31.3692 6.52865 31.5968 6.55611 31.8078 6.63697C32.0187 6.71783 32.2064 6.84959 32.3541 7.02052C32.38 7.04689 32.3944 7.08234 32.3944 7.11926C32.3944 7.15618 32.38 7.19163 32.3541 7.218C32.338 7.23276 32.3187 7.24369 32.2978 7.24997C32.2769 7.25625 32.2548 7.25772 32.2332 7.25427Z" fill="#263238"/>
<path d="M37.7788 11.6713C37.3557 13.8396 36.9325 17.8052 38.4478 19.2521C38.4478 19.2521 37.8554 21.4485 33.8293 21.4485C29.3961 21.4485 31.7175 19.2521 31.7175 19.2521C34.1356 18.6758 34.0671 16.8823 33.6479 15.2018L37.7788 11.6713Z" fill="#E4897B"/>
<path d="M39.0562 20.6183C39.3746 19.5584 39.7252 18.3453 38.9998 17.9624C38.1938 17.5594 33.813 17.1161 32.3017 17.902C30.7904 18.6878 31.2216 20.844 31.2216 20.844L39.0562 20.6183Z" fill="#263238"/>
<path d="M48.3499 121.118C48.2247 121.135 48.0975 121.127 47.9757 121.093C47.8539 121.06 47.7399 121.003 47.6406 120.925C47.6055 120.876 47.5866 120.818 47.5866 120.758C47.5866 120.698 47.6055 120.639 47.6406 120.59C47.6636 120.549 47.6953 120.512 47.7335 120.484C47.7717 120.455 47.8156 120.435 47.8622 120.425C48.2975 120.329 49.1116 120.885 49.1478 120.909C49.1583 120.918 49.1663 120.929 49.1713 120.942C49.1762 120.954 49.1779 120.968 49.1761 120.981C49.1738 120.994 49.1675 121.007 49.1581 121.016C49.1488 121.025 49.1367 121.032 49.1237 121.034C48.8693 121.089 48.61 121.117 48.3499 121.118ZM47.9791 120.554H47.8945C47.8672 120.56 47.8415 120.571 47.8192 120.588C47.7969 120.605 47.7786 120.626 47.7655 120.651C47.701 120.764 47.7413 120.812 47.7655 120.828C47.8904 120.998 48.495 120.998 48.9383 120.925C48.6495 120.734 48.3218 120.61 47.9791 120.562V120.554Z" fill="#FA1239"/>
<path d="M49.1075 121.046H49.0752C48.7689 120.877 48.1765 120.24 48.237 119.901C48.2472 119.849 48.2754 119.802 48.3166 119.768C48.3577 119.734 48.4094 119.716 48.4627 119.716C48.5158 119.71 48.5695 119.715 48.6207 119.73C48.6719 119.746 48.7195 119.771 48.7609 119.805C49.1035 120.087 49.1639 120.941 49.1639 120.977C49.1656 120.99 49.1634 121.003 49.1576 121.015C49.1519 121.026 49.1428 121.036 49.1317 121.042C49.124 121.045 49.1157 121.046 49.1075 121.046ZM48.511 119.837H48.4949C48.4022 119.837 48.3941 119.893 48.3901 119.909C48.3538 120.107 48.7327 120.595 49.0349 120.824C49.0146 120.488 48.8939 120.165 48.6883 119.897C48.6612 119.876 48.6301 119.861 48.5969 119.852C48.5637 119.843 48.529 119.84 48.4949 119.845L48.511 119.837Z" fill="#FA1239"/>
<path d="M30.5728 121.118C30.194 121.118 29.8272 121.066 29.7023 120.897C29.6707 120.852 29.6538 120.798 29.6538 120.744C29.6538 120.689 29.6707 120.635 29.7023 120.591C29.7268 120.549 29.7594 120.513 29.7982 120.485C29.837 120.456 29.8811 120.436 29.928 120.425C30.4156 120.292 31.4554 120.881 31.4998 120.905C31.5116 120.913 31.521 120.923 31.5267 120.936C31.5324 120.949 31.5343 120.963 31.532 120.977C31.5297 120.992 31.523 121.005 31.5129 121.015C31.5027 121.025 31.4897 121.031 31.4756 121.034C31.1779 121.09 30.8757 121.118 30.5728 121.118ZM30.1013 120.546C30.0572 120.54 30.0124 120.54 29.9683 120.546C29.9399 120.552 29.9131 120.563 29.8895 120.58C29.8659 120.597 29.846 120.618 29.8313 120.643C29.7789 120.732 29.799 120.772 29.8313 120.796C29.9643 120.981 30.7139 120.994 31.2701 120.917C30.9077 120.721 30.5107 120.598 30.1013 120.554V120.546Z" fill="#FA1239"/>
<path d="M31.4675 121.046H31.4393C31.0806 120.889 30.3753 120.24 30.4277 119.913C30.4277 119.833 30.4962 119.736 30.6897 119.716C30.7616 119.705 30.8351 119.71 30.9048 119.731C30.9745 119.752 31.0387 119.788 31.0927 119.837C31.4715 120.143 31.5481 120.941 31.5521 120.977C31.5537 120.99 31.5519 121.002 31.5469 121.013C31.542 121.025 31.534 121.035 31.5239 121.042C31.5153 121.046 31.5059 121.049 31.4961 121.05C31.4864 121.051 31.4766 121.049 31.4675 121.046ZM30.7461 119.837H30.7018C30.5768 119.837 30.5688 119.901 30.5647 119.917C30.5325 120.119 31.0161 120.623 31.3708 120.84C31.3359 120.502 31.1949 120.183 30.9678 119.929C30.9102 119.88 30.8381 119.85 30.7622 119.845L30.7461 119.837Z" fill="#FA1239"/>
<path d="M34.7239 120.973H31.7618L31.4675 114.118H34.4297L34.7239 120.973Z" fill="#E4897B"/>
<path d="M52.5009 120.973H49.5388L48.0516 114.118H51.0098L52.5009 120.973Z" fill="#E4897B"/>
<path d="M49.3292 120.631H52.6541C52.7135 120.631 52.7709 120.652 52.817 120.689C52.8632 120.726 52.8952 120.778 52.908 120.836L53.4924 123.468C53.5057 123.532 53.5045 123.598 53.4886 123.662C53.4728 123.725 53.4429 123.785 53.4011 123.835C53.3592 123.885 53.3066 123.926 53.247 123.953C53.1875 123.98 53.1226 123.993 53.0571 123.992C51.8964 123.972 51.3322 123.903 49.8693 123.903C48.9706 123.903 47.1167 124 45.8714 124C44.626 124 44.4689 122.791 44.9767 122.658C47.2577 122.158 48.1162 121.469 48.8456 120.816C48.9781 120.696 49.1506 120.63 49.3292 120.631Z" fill="#263238"/>
<path d="M31.7819 120.631H35.006C35.0653 120.631 35.1228 120.652 35.1689 120.689C35.215 120.726 35.2471 120.778 35.2599 120.836L35.8443 123.468C35.8582 123.532 35.8577 123.597 35.8426 123.661C35.8276 123.724 35.7984 123.783 35.7573 123.833C35.7163 123.884 35.6643 123.924 35.6054 123.952C35.5465 123.979 35.4821 123.993 35.4171 123.992C34.2524 123.972 32.5678 123.903 31.1008 123.903C29.388 123.903 27.9049 124 25.8938 124C24.6848 124 24.3422 122.791 24.85 122.658C27.1673 122.15 29.0575 122.098 31.0605 120.865C31.2738 120.72 31.524 120.638 31.7819 120.631Z" fill="#263238"/>
<path d="M30.3592 24.4511C27.8835 24.2592 25.4201 23.9323 22.98 23.4717C21.771 23.238 20.5377 22.976 19.3126 22.6456C18.0568 22.3242 16.8236 21.9203 15.6209 21.4365C15.3106 21.3076 14.9963 21.1665 14.6859 21.0335C14.3366 20.8614 13.9999 20.6648 13.6784 20.4451C13.0981 20.0622 12.5983 19.6632 12.1026 19.2683C11.1152 18.4623 10.2004 17.6562 9.28151 16.83C7.48003 15.1616 5.77123 13.4366 4.1229 11.6231L5.60599 9.96668L11.4538 14.1701C12.417 14.8633 13.3923 15.5444 14.3514 16.1852C14.827 16.5036 15.3147 16.8018 15.762 17.0557C15.949 17.1624 16.1429 17.2567 16.3423 17.3378C16.5801 17.4305 16.8219 17.5232 17.0758 17.6119C19.254 18.2826 21.4815 18.7812 23.7377 19.1031C26.0389 19.4658 28.4167 19.764 30.7139 20.0058L30.3592 24.4511Z" fill="#E4897B"/>
<path d="M43.7474 19.9212C46.5242 20.5579 49.3292 28.6706 49.3292 28.6706L43.6185 32.7693C43.6185 32.7693 42.0064 28.989 40.4508 25.6843C38.8226 22.2224 40.9102 19.2723 43.7474 19.9212Z" fill="#FA1239"/>
<path opacity="0.4" d="M43.7474 19.9212C46.5242 20.5579 49.3292 28.6706 49.3292 28.6706L43.6185 32.7693C43.6185 32.7693 42.0064 28.989 40.4508 25.6843C38.8226 22.2224 40.9102 19.2723 43.7474 19.9212Z" fill="black"/>
<path d="M42.1474 24.3543L41.015 26.8892C42.1877 29.4202 43.2598 31.9269 43.5459 32.5959C43.5056 29.6015 42.9373 25.8857 42.1474 24.3543Z" fill="#FA1239"/>
<path opacity="0.6" d="M42.1474 24.3543L41.015 26.8892C42.1877 29.4202 43.2598 31.9269 43.5459 32.5959C43.5056 29.6015 42.9373 25.8857 42.1474 24.3543Z" fill="black"/>
<path d="M27.1634 20.0743C27.1634 20.0743 24.0118 23.6329 26.9861 45.6658H42.8206C42.9334 43.2477 41.406 31.3748 43.7475 19.9211C41.9972 19.5841 40.227 19.3606 38.4478 19.2521C36.2062 19.1231 33.9591 19.1231 31.7175 19.2521C30.1803 19.407 28.6577 19.6819 27.1634 20.0743Z" fill="#FA1239"/>
<path opacity="0.4" d="M27.1634 20.0743C27.1634 20.0743 24.0118 23.6329 26.9861 45.6658H42.8206C42.9334 43.2477 41.406 31.3748 43.7475 19.9211C41.9972 19.5841 40.227 19.3606 38.4478 19.2521C36.2062 19.1231 33.9591 19.1231 31.7175 19.2521C30.1803 19.407 28.6577 19.6819 27.1634 20.0743Z" fill="black"/>
<path d="M25.9905 24.3543C25.8857 25.1885 25.8051 26.1759 25.7527 27.3406C27.3165 26.8713 28.8022 26.1732 30.1617 25.2691L25.9905 24.3543Z" fill="#FA1239"/>
<path opacity="0.6" d="M25.9905 24.3543C25.8857 25.1885 25.8051 26.1759 25.7527 27.3406C27.3165 26.8713 28.8022 26.1732 30.1617 25.2691L25.9905 24.3543Z" fill="black"/>
<path d="M32.7774 24.7977C30.6575 26.6757 22.565 26.4863 22.565 26.4863L22.299 18.6517C25.0318 19.0409 27.7883 19.2402 30.5487 19.2481C35.0584 19.1554 35.0907 22.7262 32.7774 24.7977Z" fill="#FA1239"/>
<path opacity="0.4" d="M32.7774 24.7977C30.6575 26.6757 22.565 26.4863 22.565 26.4863L22.299 18.6517C25.0318 19.0409 27.7883 19.2402 30.5487 19.2481C35.0584 19.1554 35.0907 22.7262 32.7774 24.7977Z" fill="black"/>
<path d="M5.68253 9.98271L3.66745 7.60894L1.4952 10.027C1.4952 10.027 2.83321 12.2759 4.9571 11.9212L5.68253 9.98271Z" fill="#E4897B"/>
<path d="M0.78184 4.8403L0 7.93949L1.47906 10.011L3.65132 7.60902L0.78184 4.8403Z" fill="#E4897B"/>
<path d="M31.4675 114.122L31.6207 117.653H34.5829L34.4297 114.122H31.4675Z" fill="#CE6F64"/>
<path d="M51.0138 114.122H48.0516L48.8173 117.653H51.7795L51.0138 114.122Z" fill="#CE6F64"/>
<path d="M33.2488 5.45284C30.593 4.24379 29.7547 -1.12842 37.3959 0.213627C37.3959 0.213627 36.2432 1.48716 38.5807 2.29319C40.9182 3.09922 38.9636 8.07647 33.2488 5.45284Z" fill="#263238"/>
<path d="M39.0201 9.48305C38.2584 12.3042 37.9602 14.021 36.199 15.2018C33.5633 16.9751 30.2868 14.9399 30.182 11.9294C30.0893 9.22512 31.3507 5.03778 34.3935 4.4655C35.0651 4.33381 35.7593 4.37639 36.4098 4.58918C37.0603 4.80197 37.6454 5.17787 38.1094 5.68102C38.5733 6.18417 38.9006 6.7978 39.06 7.46338C39.2195 8.12896 39.2057 8.82429 39.0201 9.48305Z" fill="#E4897B"/>
<path d="M37.2911 1.62423C39.1006 2.63177 41.551 3.23629 41.3212 4.67103C41.019 6.42415 42.8003 5.32794 42.3852 7.93546C42.1152 9.64022 38.9716 14.8069 36.743 14.557C33.4141 14.154 33.8372 9.09211 33.8251 6.42415C33.8171 4.84836 33.7445 -0.362643 37.2911 1.62423Z" fill="#263238"/>
<path d="M33.4261 3.88515C32.62 4.07457 31.5521 8.72135 34.6754 9.14854C38.2663 9.63619 33.4261 3.88515 33.4261 3.88515Z" fill="#263238"/>
<path d="M33.5068 5.53349C32.5194 5.62215 30.2827 4.43325 30.5567 2.64386C30.5567 2.63177 31.9713 4.73551 33.5068 5.53349Z" fill="#263238"/>
<path d="M34.9737 9.51922C34.6707 10.1837 34.1563 10.7293 33.5108 11.0708C32.6604 11.5141 32.1808 10.8693 32.3743 10.0149C32.5476 9.2492 33.2004 8.09255 34.075 7.99985C34.9495 7.90716 35.3243 8.71319 34.9737 9.51922Z" fill="#E4897B"/>
<path d="M39.4068 6.25887C40.0091 5.9975 40.5372 5.59083 40.9437 5.07528C41.3503 4.55973 41.6226 3.95139 41.7363 3.30476C41.7363 3.30476 43.0662 7.00042 39.4068 6.25887Z" fill="#263238"/>
<path d="M42.768 6.19838C42.4876 6.01003 42.1648 5.89414 41.8287 5.86108C41.4925 5.82803 41.1533 5.87884 40.8416 6.00897C40.8416 6.00897 42.0829 4.40093 42.768 6.19838Z" fill="#263238"/>
<path d="M32.604 45.6657C32.604 45.6657 35.9651 68.2911 37.8069 76.7665C39.822 86.0359 47.439 116.971 47.439 116.971H52.8596C52.8596 116.971 47.842 86.7976 46.6894 77.5927C45.44 67.618 42.8204 45.6496 42.8204 45.6496L32.604 45.6657Z" fill="#FA1239"/>
<path opacity="0.5" d="M32.604 45.6657C32.604 45.6657 35.9651 68.2911 37.8069 76.7665C39.822 86.0359 47.439 116.971 47.439 116.971H52.8596C52.8596 116.971 47.842 86.7976 46.6894 77.5927C45.44 67.618 42.8204 45.6496 42.8204 45.6496L32.604 45.6657Z" fill="white"/>
<path d="M46.5725 114.972C46.5483 114.972 47.1327 117.056 47.1327 117.056H53.2344L53.1215 115.198L46.5725 114.972Z" fill="#FA1239"/>
<path opacity="0.1" d="M46.5725 114.972C46.5483 114.972 47.1327 117.056 47.1327 117.056H53.2344L53.1215 115.198L46.5725 114.972Z" fill="black"/>
<path d="M34.7279 53.7261C38.613 54.4878 38.2019 68.9762 37.7344 76.428C36.614 71.1605 34.9738 61.0247 33.8534 53.8309C34.1244 53.6973 34.433 53.6603 34.7279 53.7261Z" fill="#FA1239"/>
<path opacity="0.4" d="M34.7279 53.7261C38.613 54.4878 38.2019 68.9762 37.7344 76.428C36.614 71.1605 34.9738 61.0247 33.8534 53.8309C34.1244 53.6973 34.433 53.6603 34.7279 53.7261Z" fill="white"/>
<path d="M26.9861 45.6658C26.9861 45.6658 26.583 67.7995 26.9014 76.8311C27.2359 86.2213 30.5286 116.971 30.5286 116.971H35.5421C35.5421 116.971 35.7275 86.7695 35.9451 77.5485C36.1909 67.4932 37.404 45.6658 37.404 45.6658H26.9861Z" fill="#FA1239"/>
<path opacity="0.5" d="M26.9861 45.6658C26.9861 45.6658 26.583 67.7995 26.9014 76.8311C27.2359 86.2213 30.5286 116.971 30.5286 116.971H35.5421C35.5421 116.971 35.7275 86.7695 35.9451 77.5485C36.1909 67.4932 37.404 45.6658 37.404 45.6658H26.9861Z" fill="white"/>
<path d="M31.5684 113.368C31.5562 113.368 31.5445 113.364 31.5355 113.356C31.5265 113.347 31.521 113.336 31.52 113.324C30.6334 104.812 28.5498 84.2182 28.2959 76.831C28.0258 69.2905 28.2717 52.3719 28.3523 47.3665C28.3523 47.3536 28.3574 47.3413 28.3665 47.3323C28.3755 47.3232 28.3878 47.3181 28.4007 47.3181C28.4139 47.3181 28.4266 47.323 28.4363 47.332C28.4461 47.341 28.452 47.3533 28.453 47.3665C28.3724 52.3719 28.1266 69.2905 28.3966 76.8269C28.6586 84.2142 30.7422 104.8 31.6208 113.312C31.6209 113.326 31.6161 113.339 31.6072 113.349C31.5983 113.36 31.5859 113.366 31.5724 113.368H31.5684Z" fill="#FA1239"/>
<path opacity="0.4" d="M31.5684 113.368C31.5562 113.368 31.5445 113.364 31.5355 113.356C31.5265 113.347 31.521 113.336 31.52 113.324C30.6334 104.812 28.5498 84.2182 28.2959 76.831C28.0258 69.2905 28.2717 52.3719 28.3523 47.3665C28.3523 47.3536 28.3574 47.3413 28.3665 47.3323C28.3755 47.3232 28.3878 47.3181 28.4007 47.3181C28.4139 47.3181 28.4266 47.323 28.4363 47.332C28.4461 47.341 28.452 47.3533 28.453 47.3665C28.3724 52.3719 28.1266 69.2905 28.3966 76.8269C28.6586 84.2142 30.7422 104.8 31.6208 113.312C31.6209 113.326 31.6161 113.339 31.6072 113.349C31.5983 113.36 31.5859 113.366 31.5724 113.368H31.5684Z" fill="white"/>
<path d="M29.5532 114.972C29.533 114.972 29.8393 117.056 29.8393 117.056H35.9369L36.1022 115.198L29.5532 114.972Z" fill="#FA1239"/>
<path opacity="0.1" d="M29.5532 114.972C29.533 114.972 29.8393 117.056 29.8393 117.056H35.9369L36.1022 115.198L29.5532 114.972Z" fill="black"/>
</svg>
