<svg width="300" height="200" viewBox="0 0 300 200" fill="none" xmlns="http://www.w3.org/2000/svg">
<path d="M250 156.448H50V156.548H250V156.448Z" fill="#EBEBEB"/>
<path d="M229.96 162.884H216.712V162.984H229.96V162.884Z" fill="#EBEBEB"/>
<path d="M211.676 162.884H183.352V162.984H211.676V162.884Z" fill="#EBEBEB"/>
<path d="M167.732 159.172H160.056V159.272H167.732V159.172Z" fill="#EBEBEB"/>
<path d="M84.7 159.844H70.984V159.944H84.7V159.844Z" fill="#EBEBEB"/>
<path d="M113.2 159.844H88.26V159.944H113.2V159.844Z" fill="#EBEBEB"/>
<path d="M140.056 161.532H125.332V161.632H140.056V161.532Z" fill="#EBEBEB"/>
<path d="M144.8 138.608H67.5639C66.9589 138.607 66.379 138.366 65.9515 137.938C65.524 137.509 65.2839 136.929 65.2839 136.324V27.752C65.2892 27.1504 65.5316 26.5752 65.9585 26.1513C66.3854 25.7274 66.9623 25.4891 67.5639 25.488H144.8C145.406 25.488 145.987 25.7287 146.415 26.157C146.843 26.5853 147.084 27.1663 147.084 27.772V136.324C147.084 136.93 146.843 137.511 146.415 137.939C145.987 138.367 145.406 138.608 144.8 138.608ZM67.5639 25.568C66.9854 25.5691 66.4309 25.7997 66.0222 26.2091C65.6135 26.6186 65.3839 27.1735 65.3839 27.752V136.324C65.3839 136.903 65.6135 137.457 66.0222 137.867C66.4309 138.276 66.9854 138.507 67.5639 138.508H144.8C145.379 138.507 145.934 138.277 146.343 137.867C146.752 137.458 146.983 136.903 146.984 136.324V27.752C146.983 27.1731 146.752 26.6182 146.343 26.2089C145.934 25.7995 145.379 25.5691 144.8 25.568H67.5639Z" fill="#EBEBEB"/>
<path d="M231.324 138.608H154.084C153.479 138.607 152.898 138.366 152.47 137.938C152.042 137.51 151.801 136.929 151.8 136.324V27.752C151.806 27.1501 152.05 26.5749 152.477 26.1511C152.905 25.7273 153.482 25.4891 154.084 25.488H231.324C231.925 25.4901 232.501 25.7289 232.927 26.1527C233.353 26.5765 233.595 27.1511 233.6 27.752V136.324C233.6 136.928 233.361 137.508 232.934 137.936C232.507 138.364 231.928 138.606 231.324 138.608ZM154.084 25.568C153.505 25.5691 152.95 25.7995 152.541 26.2089C152.132 26.6182 151.901 27.1731 151.9 27.752V136.324C151.901 136.903 152.132 137.458 152.541 137.867C152.95 138.277 153.505 138.507 154.084 138.508H231.324C231.903 138.507 232.458 138.277 232.867 137.867C233.277 137.458 233.507 136.903 233.508 136.324V27.752C233.507 27.1731 233.277 26.6182 232.867 26.2089C232.458 25.7995 231.903 25.5691 231.324 25.568H154.084Z" fill="#EBEBEB"/>
<path d="M113.496 39.436H74.8199V146.116H113.496V39.436Z" fill="#F5F5F5"/>
<path d="M113.496 146.12H113.888L113.888 39.44H113.496L113.496 146.12Z" fill="#EBEBEB"/>
<path d="M109.764 43.5081H78.552V142.048H109.764V43.5081Z" fill="white"/>
<path d="M130.076 102.584L221.312 102.584V34.796L130.076 34.796V102.584Z" fill="#E6E6E6"/>
<path d="M128.664 102.584L219.9 102.584V34.796L128.664 34.796V102.584Z" fill="#F5F5F5"/>
<path d="M217.364 99.74V37.644L131.196 37.644V99.74H217.364Z" fill="white"/>
<path d="M132.26 99.736V37.64H131.192V99.736H132.26Z" fill="#E6E6E6"/>
<path d="M129.708 86.472L218.848 86.472V82.648L129.708 82.648V86.472Z" fill="#F5F5F5"/>
<g opacity="0.4">
<path d="M134.444 31.8H125.832V53.588H134.444V31.8Z" fill="#E6E6E6"/>
<path d="M134.444 51.8361H138.716V31.8001H134.444V51.8361Z" fill="#F5F5F5"/>
<path d="M147.328 31.8H138.716V53.588H147.328V31.8Z" fill="#E6E6E6"/>
<path d="M147.328 51.8361H151.6V31.8001H147.328V51.8361Z" fill="#F5F5F5"/>
<path d="M160.212 31.8H151.6V53.588H160.212V31.8Z" fill="#E6E6E6"/>
<path d="M160.212 51.8361H164.484V31.8001H160.212V51.8361Z" fill="#F5F5F5"/>
<path d="M173.096 31.8H164.484V53.588H173.096V31.8Z" fill="#E6E6E6"/>
<path d="M173.096 51.8361H177.368V31.8001H173.096V51.8361Z" fill="#F5F5F5"/>
<path d="M185.98 31.8H177.368V53.588H185.98V31.8Z" fill="#E6E6E6"/>
<path d="M185.98 51.8361H190.252V31.8001H185.98V51.8361Z" fill="#F5F5F5"/>
<path d="M198.864 31.8H190.252V53.588H198.864V31.8Z" fill="#E6E6E6"/>
<path d="M198.864 51.8361H203.136V31.8001H198.864V51.8361Z" fill="#F5F5F5"/>
<path d="M211.748 31.8H203.136V53.588H211.748V31.8Z" fill="#E6E6E6"/>
<path d="M211.748 51.8361H216.02V31.8001H211.748V51.8361Z" fill="#F5F5F5"/>
<path d="M224.632 31.8H216.02V53.588H224.632V31.8Z" fill="#E6E6E6"/>
</g>
<path d="M131.484 156.448H142.16V116.688H131.484V156.448Z" fill="#E6E6E6"/>
<path d="M133.264 156.448H131.488V152.868H135.128L133.264 156.448Z" fill="#F0F0F0"/>
<path d="M208.304 156.448H218.98V116.688H208.304V156.448Z" fill="#E6E6E6"/>
<path d="M131.488 155.072H209.852V116.688H131.488V155.072Z" fill="#F0F0F0"/>
<path d="M132.868 128.916H208.476V118.388L132.868 118.388V128.916Z" fill="#E6E6E6"/>
<path d="M152 121.66H189.356C191.088 121.66 192.748 120.36 193.94 118.06H147.408C148.6 120.36 150.256 121.66 152 121.66Z" fill="#F0F0F0"/>
<path d="M208.076 156.448H209.852V152.868H206.212L208.076 156.448Z" fill="#F0F0F0"/>
<path d="M132.868 141.144H208.476V130.616H132.868V141.144Z" fill="#E6E6E6"/>
<path d="M152 133.888H189.356C191.088 133.888 192.748 132.592 193.94 130.288H147.408C148.6 132.592 150.256 133.888 152 133.888Z" fill="#F0F0F0"/>
<path d="M132.868 153.372H208.476V142.844H132.868V153.372Z" fill="#E6E6E6"/>
<path d="M152 146.116H189.356C191.088 146.116 192.748 144.82 193.94 142.516H147.408C148.6 144.82 150.256 146.116 152 146.116Z" fill="#F0F0F0"/>
<path d="M150 174.512C192.833 174.512 227.556 172.485 227.556 169.984C227.556 167.483 192.833 165.456 150 165.456C107.167 165.456 72.444 167.483 72.444 169.984C72.444 172.485 107.167 174.512 150 174.512Z" fill="#F5F5F5"/>
<path d="M197.952 167.7H197.524C197.435 167.693 197.351 167.654 197.288 167.59C197.226 167.526 197.189 167.441 197.184 167.352L194.552 149.024H196.552L198.296 167.232C198.306 167.285 198.304 167.34 198.292 167.393C198.28 167.446 198.257 167.496 198.225 167.54C198.193 167.584 198.152 167.621 198.105 167.648C198.058 167.676 198.006 167.693 197.952 167.7Z" fill="#FF657E"/>
<path opacity="0.3" d="M197.952 167.7H197.524C197.435 167.693 197.351 167.654 197.288 167.59C197.226 167.526 197.189 167.441 197.184 167.352L194.552 149.024H196.552L198.296 167.232C198.306 167.285 198.304 167.34 198.292 167.393C198.28 167.446 198.257 167.496 198.225 167.54C198.193 167.584 198.152 167.621 198.105 167.648C198.058 167.676 198.006 167.693 197.952 167.7Z" fill="black"/>
<path d="M203.44 167.7H203.012C202.923 167.693 202.839 167.654 202.776 167.59C202.714 167.526 202.677 167.441 202.672 167.352L200.04 149.024H202.04L203.788 167.232C203.798 167.286 203.796 167.341 203.784 167.394C203.771 167.447 203.748 167.497 203.715 167.541C203.683 167.585 203.641 167.622 203.594 167.649C203.547 167.676 203.494 167.694 203.44 167.7Z" fill="#FF657E"/>
<path opacity="0.3" d="M203.44 167.7H203.012C202.923 167.693 202.839 167.654 202.776 167.59C202.714 167.526 202.677 167.441 202.672 167.352L200.04 149.024H202.04L203.788 167.232C203.798 167.286 203.796 167.341 203.784 167.394C203.771 167.447 203.748 167.497 203.715 167.541C203.683 167.585 203.641 167.622 203.594 167.649C203.547 167.676 203.494 167.694 203.44 167.7Z" fill="black"/>
<path d="M172.864 167.7H173.292C173.381 167.693 173.465 167.654 173.528 167.59C173.59 167.526 173.628 167.441 173.632 167.352L176.264 149.024H174.264L172.52 167.232C172.51 167.285 172.512 167.34 172.524 167.393C172.536 167.446 172.559 167.496 172.591 167.54C172.624 167.584 172.664 167.621 172.711 167.648C172.758 167.676 172.81 167.693 172.864 167.7Z" fill="#FF657E"/>
<path opacity="0.3" d="M172.864 167.7H173.292C173.381 167.693 173.465 167.654 173.528 167.59C173.59 167.526 173.628 167.441 173.632 167.352L176.264 149.024H174.264L172.52 167.232C172.51 167.285 172.512 167.34 172.524 167.393C172.536 167.446 172.559 167.496 172.591 167.54C172.624 167.584 172.664 167.621 172.711 167.648C172.758 167.676 172.81 167.693 172.864 167.7Z" fill="black"/>
<path d="M167.376 167.7H167.804C167.893 167.693 167.977 167.654 168.04 167.59C168.102 167.526 168.14 167.441 168.144 167.352L170.776 149.024H168.776L167.032 167.232C167.022 167.285 167.024 167.34 167.036 167.393C167.048 167.446 167.071 167.496 167.103 167.54C167.136 167.584 167.176 167.621 167.223 167.648C167.27 167.676 167.322 167.693 167.376 167.7Z" fill="#FF657E"/>
<path opacity="0.3" d="M167.376 167.7H167.804C167.893 167.693 167.977 167.654 168.04 167.59C168.102 167.526 168.14 167.441 168.144 167.352L170.776 149.024H168.776L167.032 167.232C167.022 167.285 167.024 167.34 167.036 167.393C167.048 167.446 167.071 167.496 167.103 167.54C167.136 167.584 167.176 167.621 167.223 167.648C167.27 167.676 167.322 167.693 167.376 167.7Z" fill="black"/>
<path d="M160.264 127.292H173.736C176.136 118.992 184.728 112.444 193.536 112.444H197.912C207.112 112.444 213.08 119.616 211.2 128.468C210.849 130.096 210.271 131.668 209.484 133.136L207.36 146.012C207.088 147.676 205.76 149.024 204.4 149.024H163.848C162.488 149.024 161.16 147.676 160.888 146.012L158.296 130.288C158.02 128.64 158.904 127.292 160.264 127.292Z" fill="#FF657E"/>
<path opacity="0.5" d="M160.264 127.292H173.736C176.136 118.992 184.728 112.444 193.536 112.444H197.912C207.112 112.444 213.08 119.616 211.2 128.468C210.849 130.096 210.271 131.668 209.484 133.136L207.36 146.012C207.088 147.676 205.76 149.024 204.4 149.024H163.848C162.488 149.024 161.16 147.676 160.888 146.012L158.296 130.288C158.02 128.64 158.904 127.292 160.264 127.292Z" fill="white"/>
<path d="M156.892 162.96L160.228 164.488C160.285 164.512 160.33 164.557 160.354 164.614C160.378 164.671 160.379 164.735 160.356 164.792L159.304 167.508C159.241 167.647 159.126 167.755 158.984 167.809C158.841 167.863 158.683 167.858 158.544 167.796C157.392 167.244 156.868 166.92 155.4 166.248C153.848 165.481 152.349 164.613 150.912 163.648C149.824 162.848 150.624 161.768 151.164 162.008C153.604 163.084 155.164 163.18 156.296 162.908C156.495 162.856 156.705 162.874 156.892 162.96Z" fill="#263238"/>
<path d="M180.552 122.06C180.552 122.06 159.22 122.324 158.888 130.732C158.416 142.82 156.632 162.888 156.632 162.888L160.232 164.488C160.232 164.488 166.536 144.352 166.76 134.912C172.76 133.424 188.188 134.912 190 130.008C190.888 127.457 191.123 124.725 190.684 122.06H180.552Z" fill="#FF657E"/>
<path opacity="0.2" d="M180.552 122.06C180.552 122.06 159.22 122.324 158.888 130.732C158.416 142.82 156.632 162.888 156.632 162.888L160.232 164.488C160.232 164.488 166.536 144.352 166.76 134.912C172.76 133.424 188.188 134.912 190 130.008C190.888 127.457 191.123 124.725 190.684 122.06H180.552Z" fill="black"/>
<path d="M185.092 99.9359C184.904 100.712 184.716 101.412 184.504 102.14C184.292 102.868 184.072 103.576 183.84 104.288C183.372 105.712 182.856 107.128 182.264 108.528C181.671 109.959 180.983 111.349 180.204 112.688C179.795 113.396 179.344 114.079 178.852 114.732C178.311 115.455 177.686 116.113 176.992 116.692L176.932 116.744L176.804 116.84C176.4 117.104 175.94 117.268 175.46 117.32C175.159 117.357 174.854 117.357 174.552 117.32C174.133 117.269 173.721 117.169 173.324 117.024C172.709 116.802 172.111 116.535 171.536 116.224C170.51 115.653 169.517 115.023 168.564 114.336C167.636 113.668 166.74 112.976 165.868 112.256C164.996 111.536 164.16 110.8 163.332 110.008C163.12 109.802 162.989 109.525 162.965 109.23C162.941 108.935 163.024 108.641 163.2 108.403C163.376 108.165 163.632 107.999 163.921 107.935C164.21 107.871 164.512 107.914 164.772 108.056H164.792C165.736 108.58 166.688 109.136 167.644 109.656C168.6 110.176 169.544 110.7 170.492 111.188C171.44 111.676 172.392 112.14 173.292 112.516C173.705 112.692 174.132 112.834 174.568 112.94C174.698 112.979 174.833 112.996 174.968 112.992C174.996 112.992 174.968 112.992 174.884 112.992C174.68 113.015 174.485 113.088 174.316 113.204L174.124 113.348C174.518 112.965 174.866 112.536 175.16 112.072C175.511 111.545 175.833 110.999 176.124 110.436C176.737 109.229 177.286 107.989 177.768 106.724C178.26 105.436 178.72 104.116 179.148 102.78C179.576 101.444 179.976 100.072 180.348 98.7799V98.7319C180.518 98.1117 180.925 97.5831 181.481 97.2605C182.038 96.938 182.699 96.8473 183.321 97.0081C183.944 97.1688 184.478 97.5682 184.809 98.1198C185.14 98.6714 185.24 99.331 185.088 99.9559L185.092 99.9359Z" fill="#263238"/>
<path d="M176.444 164.688H180.444C180.477 164.686 180.511 164.691 180.542 164.703C180.574 164.714 180.603 164.732 180.627 164.755C180.652 164.777 180.672 164.805 180.685 164.835C180.699 164.866 180.707 164.899 180.708 164.932L180.904 168.096C180.904 168.263 180.839 168.423 180.722 168.542C180.605 168.66 180.447 168.729 180.28 168.732C178.888 168.708 178.22 168.624 176.46 168.624C175.38 168.624 173.196 168.736 171.7 168.736C170.204 168.736 170.248 167.26 170.88 167.136C173.724 166.536 174.824 165.708 175.828 164.916C176.003 164.775 176.219 164.695 176.444 164.688Z" fill="#263238"/>
<path d="M186.3 122.06C186.3 122.06 166.952 123.692 167.428 132.096C167.948 141.296 176.444 164.696 176.444 164.696H180.356C180.356 164.696 177.008 143.268 175.828 133.896C181.284 133.896 193.932 134.92 195.748 130.004C196.636 127.453 196.87 124.721 196.428 122.056L186.3 122.06Z" fill="#FF657E"/>
<path d="M165.072 108.448C164.77 107.956 164.404 107.507 163.984 107.112C163.184 107.856 162.748 110.02 162.748 110.02L163.84 110.116C163.84 110.116 165.096 109.708 165.072 108.448Z" fill="#FF657E"/>
<path d="M161.056 106.504L159.812 105.964C159.65 105.894 159.469 105.885 159.301 105.939C159.134 105.993 158.991 106.105 158.9 106.256L158.308 107.232C158.226 107.369 158.192 107.53 158.21 107.689C158.228 107.848 158.298 107.996 158.408 108.112L160.116 109.892L162.964 109.776C163.125 109.771 163.282 109.722 163.417 109.636C163.553 109.549 163.663 109.428 163.736 109.284L164.064 108.64C164.167 108.446 164.196 108.221 164.143 108.008C164.091 107.794 163.961 107.608 163.78 107.484C162.856 106.876 161.056 106.504 161.056 106.504Z" fill="#FFC3BD"/>
<path d="M180.368 99.116C179.8 102.716 179.06 110.488 180.568 122.208L196.428 122.06C196.332 113.936 197.604 106.312 198.848 98.86C198.898 98.5673 198.888 98.2678 198.819 97.9791C198.75 97.6904 198.625 97.4184 198.449 97.1793C198.273 96.9401 198.051 96.7387 197.796 96.587C197.541 96.4353 197.258 96.3363 196.964 96.296C192.416 95.764 187.821 95.764 183.272 96.296C182.551 96.3945 181.879 96.7214 181.357 97.2288C180.834 97.7362 180.488 98.3975 180.368 99.116Z" fill="#263238"/>
<path d="M198.992 97.848C199.46 99.004 199.832 100.112 200.216 101.256C200.6 102.4 200.928 103.548 201.244 104.712C201.56 105.876 201.836 107.064 202.044 108.276C202.286 109.514 202.448 110.766 202.528 112.024C202.552 112.348 202.556 112.684 202.56 113.02V113.532C202.554 114.058 202.417 114.573 202.16 115.032C201.989 115.33 201.764 115.593 201.496 115.808C201.371 115.908 201.237 115.996 201.096 116.072C200.968 116.143 200.834 116.201 200.696 116.248C200.32 116.388 199.921 116.458 199.52 116.456C199.046 116.445 198.575 116.371 198.12 116.236C197.455 116.036 196.807 115.78 196.184 115.472C195.604 115.184 195.06 114.884 194.528 114.572C192.46 113.337 190.497 111.934 188.66 110.376C188.429 110.186 188.276 109.919 188.229 109.623C188.182 109.328 188.246 109.026 188.407 108.774C188.568 108.523 188.816 108.339 189.104 108.258C189.392 108.178 189.699 108.205 189.968 108.336H189.996C192.064 109.32 194.168 110.336 196.216 111.18C196.728 111.388 197.236 111.58 197.736 111.752C198.179 111.915 198.636 112.039 199.1 112.124C199.284 112.156 199.448 112.152 199.428 112.124C199.32 112.114 199.21 112.133 199.112 112.18C199.049 112.204 198.988 112.232 198.928 112.264C198.852 112.305 198.779 112.353 198.712 112.408C198.554 112.531 198.418 112.682 198.312 112.852C198.192 113.051 198.121 113.276 198.104 113.508L198.084 113.144C198.06 112.896 198.04 112.652 198.004 112.396C197.671 110.227 197.171 108.088 196.508 105.996C195.868 103.848 195.132 101.656 194.384 99.572V99.552C194.177 98.9513 194.212 98.2938 194.481 97.7184C194.751 97.1429 195.233 96.6947 195.826 96.4683C196.42 96.2418 197.078 96.255 197.662 96.505C198.246 96.755 198.71 97.2223 198.956 97.808L198.992 97.848Z" fill="#263238"/>
<path d="M192.652 88.252L190.736 89.852L188.12 92.024C188.201 92.3702 188.257 92.7218 188.288 93.076C188.412 94.34 188.136 95.5 186.604 96.088C186.313 96.1833 186.047 96.3444 185.828 96.5587C185.609 96.773 185.442 97.0348 185.34 97.324C185.132 97.992 185.376 98.74 187.48 98.74C190.572 98.74 192.184 97.364 192.792 96.688C192.874 96.5941 192.921 96.4752 192.926 96.3509C192.931 96.2266 192.894 96.1042 192.82 96.0039C191.6 94.2599 192.152 90.42 192.652 88.252Z" fill="#FFC3BD"/>
<path d="M187.404 98.052C187.539 98.2074 187.631 98.3947 187.672 98.596C187.831 98.3809 188.027 98.1965 188.252 98.052C188.518 98.1771 188.755 98.3573 188.946 98.5807C189.137 98.8042 189.278 99.0657 189.36 99.348C188.777 99.2286 188.216 99.0208 187.696 98.732C187.353 98.9221 186.975 99.0392 186.584 99.076C186.608 98.384 187.404 98.052 187.404 98.052Z" fill="#FF657E"/>
<path d="M188.252 98.052C188.807 98.7207 189.173 99.5259 189.312 100.384C189.312 100.384 194.432 99.104 194.192 95.764C193.742 95.5515 193.264 95.4046 192.772 95.328C192.772 95.328 191.672 97.328 188.252 98.052Z" fill="#FF657E"/>
<path d="M187.404 98.0519C186.844 98.7259 186.457 99.5264 186.276 100.384C186.276 100.384 183.652 97.9839 186.208 95.7919C186.649 95.6516 187.104 95.5565 187.564 95.5079C187.564 95.5079 185.864 96.8879 187.404 98.0519Z" fill="#FF657E"/>
<path opacity="0.2" d="M188.12 92.012C188.2 92.3597 188.256 92.7125 188.288 93.068C189.264 92.872 190.564 91.836 190.688 90.84C190.736 90.5103 190.748 90.1763 190.724 89.844L188.12 92.012Z" fill="black"/>
<path d="M185.32 81.3639C182.92 83.0719 184.256 87.0759 186.312 85.5439C188.368 84.0119 187.28 79.9719 185.32 81.3639Z" fill="#263238"/>
<path d="M193.444 84.932C192.776 87.996 192.544 89.82 190.732 91.22C190.148 91.6809 189.45 91.9736 188.712 92.0663C187.974 92.1589 187.225 92.0481 186.545 91.7458C185.866 91.4436 185.282 90.9613 184.856 90.3511C184.431 89.7409 184.181 89.0261 184.132 88.284C183.892 85.428 185.024 80.892 188.248 80.024C188.942 79.8171 189.678 79.7964 190.383 79.964C191.087 80.1317 191.735 80.4817 192.262 80.979C192.788 81.4763 193.175 82.1034 193.382 82.7972C193.59 83.4911 193.611 84.2273 193.444 84.932Z" fill="#FFC3BD"/>
<path d="M192.024 82.656C190.324 82.188 185.94 83.304 184.384 81.644C182.716 79.864 185.148 78.996 185.868 79.616C184.96 78.576 185.296 77.464 186.584 77.564C187.524 77.636 187.82 78.676 187.82 78.676C187.82 78.676 187.664 76.856 189.28 76.984C190.744 77.096 190.748 79.072 190.748 79.072C190.748 79.072 194.244 78.084 195.412 81.42C197.612 81.372 197.564 86.004 193.136 87.652C191.34 86.764 191.256 83.604 192.024 82.656Z" fill="#263238"/>
<path d="M194.94 82.0879C194.825 82.095 194.711 82.0568 194.624 81.9815C194.536 81.9062 194.481 81.7998 194.471 81.6848C194.461 81.5698 194.495 81.4552 194.568 81.3655C194.641 81.2757 194.745 81.2177 194.86 81.2039C194.98 81.1279 195.072 81.0139 195.12 80.8799C195.185 80.7519 195.222 80.612 195.23 80.4689C195.239 80.3258 195.217 80.1825 195.168 80.0479C195.134 79.9945 195.113 79.9344 195.104 79.8719C195.096 79.8093 195.101 79.7456 195.119 79.6851C195.137 79.6246 195.167 79.5686 195.209 79.5209C195.25 79.4733 195.301 79.4349 195.359 79.4085C195.416 79.3822 195.478 79.3683 195.541 79.3679C195.605 79.3675 195.667 79.3806 195.725 79.4063C195.782 79.432 195.834 79.4697 195.876 79.5169C195.918 79.5641 195.949 79.6197 195.968 79.6799C196.077 79.9477 196.125 80.2363 196.108 80.5248C196.091 80.8133 196.011 81.0944 195.872 81.3479C195.794 81.5273 195.676 81.6864 195.527 81.8132C195.378 81.9401 195.202 82.0313 195.012 82.0799C194.989 82.086 194.964 82.0887 194.94 82.0879Z" fill="#263238"/>
<path d="M193.944 87.776C193.528 88.3161 192.929 88.6859 192.26 88.816C191.392 88.972 191.128 88.172 191.512 87.4C191.856 86.7 192.712 85.78 193.512 85.98C194.312 86.18 194.456 87.088 193.944 87.776Z" fill="#FFC3BD"/>
<path d="M188.192 85.212C188.152 85.464 187.988 85.652 187.824 85.632C187.66 85.612 187.556 85.392 187.592 85.14C187.628 84.888 187.796 84.7 187.964 84.74C188.132 84.78 188.228 84.96 188.192 85.212Z" fill="#263238"/>
<path d="M185.336 84.872C185.296 85.124 185.132 85.312 184.968 85.272C184.804 85.232 184.7 85.032 184.736 84.78C184.772 84.528 184.94 84.34 185.108 84.36C185.276 84.38 185.376 84.62 185.336 84.872Z" fill="#263238"/>
<path d="M186.208 84.9719C185.89 85.6214 185.486 86.2254 185.008 86.7679C185.15 86.8811 185.315 86.9617 185.491 87.0039C185.667 87.0461 185.851 87.0488 186.028 87.0119L186.208 84.9719Z" fill="#ED847E"/>
<path d="M187.2 88.308C187.497 88.3119 187.792 88.2558 188.067 88.1431C188.342 88.0304 188.591 87.8633 188.8 87.652C188.81 87.6367 188.814 87.6185 188.811 87.6006C188.809 87.5826 188.8 87.5662 188.787 87.5541C188.773 87.542 188.756 87.5352 188.738 87.5348C188.72 87.5344 188.702 87.5405 188.688 87.552C188.46 87.7777 188.183 87.948 187.878 88.05C187.574 88.1519 187.25 88.1827 186.932 88.14C186.913 88.1386 186.893 88.1444 186.878 88.1561C186.862 88.1679 186.852 88.1849 186.848 88.204C186.847 88.214 186.848 88.2241 186.851 88.2337C186.853 88.2434 186.858 88.2523 186.864 88.2602C186.871 88.268 186.879 88.2745 186.887 88.2792C186.896 88.284 186.906 88.287 186.916 88.288C187.01 88.3 187.105 88.3067 187.2 88.308Z" fill="#263238"/>
<path d="M189.34 83.76C189.364 83.755 189.386 83.744 189.404 83.728C189.418 83.7142 189.429 83.6977 189.437 83.6795C189.445 83.6613 189.449 83.6417 189.449 83.622C189.449 83.6022 189.445 83.5827 189.437 83.5645C189.429 83.5463 189.418 83.5298 189.404 83.516C189.252 83.3367 189.059 83.1976 188.84 83.1111C188.622 83.0246 188.385 82.9933 188.152 83.02C188.133 83.0231 188.114 83.0301 188.097 83.0404C188.08 83.0508 188.066 83.0643 188.054 83.0803C188.043 83.0963 188.035 83.1144 188.03 83.1335C188.026 83.1527 188.025 83.1725 188.028 83.192C188.031 83.2114 188.038 83.23 188.049 83.2468C188.059 83.2635 188.072 83.2781 188.088 83.2896C188.104 83.3011 188.122 83.3094 188.142 83.3139C188.161 83.3184 188.181 83.3191 188.2 83.316C188.384 83.2981 188.57 83.3252 188.741 83.3949C188.913 83.4645 189.065 83.5747 189.184 83.716C189.203 83.7377 189.228 83.7534 189.256 83.7612C189.283 83.7691 189.313 83.7686 189.34 83.76Z" fill="#263238"/>
<path d="M184.316 83.596C184.339 83.6025 184.364 83.6033 184.387 83.5985C184.411 83.5936 184.433 83.5831 184.452 83.568C184.596 83.4404 184.767 83.3479 184.952 83.2979C185.137 83.2479 185.332 83.2418 185.52 83.28C185.558 83.2899 185.599 83.2846 185.633 83.2652C185.667 83.2458 185.693 83.2138 185.704 83.176C185.71 83.1571 185.711 83.1373 185.709 83.1177C185.707 83.0982 185.7 83.0793 185.691 83.0622C185.681 83.045 185.668 83.03 185.652 83.018C185.637 83.0059 185.619 82.9971 185.6 82.992C185.366 82.9414 185.123 82.9465 184.891 83.007C184.659 83.0674 184.444 83.1815 184.264 83.34C184.234 83.365 184.215 83.4009 184.211 83.4399C184.207 83.4789 184.219 83.5178 184.244 83.548C184.263 83.571 184.288 83.5878 184.316 83.596Z" fill="#263238"/>
<path d="M189.524 106.264L187.772 105.176C187.647 105.098 187.509 105.046 187.363 105.022C187.218 104.999 187.07 105.004 186.927 105.038C186.784 105.073 186.649 105.135 186.531 105.222C186.412 105.309 186.312 105.418 186.236 105.544L186.032 105.888C185.91 106.089 185.855 106.323 185.876 106.556C185.896 106.79 185.99 107.011 186.144 107.188L187.344 108.576C187.344 108.576 188.396 111.028 189.616 110.38L190.544 108.78L189.524 106.264Z" fill="#FFC3BD"/>
<path d="M191.328 109.4C191.088 108.819 190.776 108.271 190.4 107.768C189.52 108.52 188.8 110.92 188.8 110.92L189.876 111.152C190.268 111.042 190.616 110.816 190.876 110.503C191.135 110.19 191.293 109.805 191.328 109.4Z" fill="#FF657E"/>
<path d="M204.732 127.292H183.964C182.604 127.292 181.724 128.64 181.996 130.304L184.588 146.012C184.864 147.676 186.188 149.024 187.552 149.024H202.16L204.732 127.292Z" fill="#FF657E"/>
<path opacity="0.5" d="M204.732 127.292H183.964C182.604 127.292 181.724 128.64 181.996 130.304L184.588 146.012C184.864 147.676 186.188 149.024 187.552 149.024H202.16L204.732 127.292Z" fill="white"/>
<path d="M108.912 169.048H109.512C109.618 169.048 109.72 169.006 109.795 168.931C109.87 168.856 109.912 168.754 109.912 168.648L113.2 119.088H110.724L108.524 168.592C108.516 168.648 108.52 168.705 108.536 168.76C108.552 168.814 108.579 168.864 108.615 168.907C108.652 168.951 108.697 168.985 108.749 169.01C108.8 169.034 108.855 169.047 108.912 169.048Z" fill="#FF657E"/>
<path opacity="0.3" d="M108.912 169.048H109.512C109.618 169.048 109.72 169.006 109.795 168.931C109.87 168.856 109.912 168.754 109.912 168.648L113.2 119.088H110.724L108.524 168.592C108.516 168.648 108.52 168.705 108.536 168.76C108.552 168.814 108.579 168.864 108.615 168.907C108.652 168.951 108.697 168.985 108.749 169.01C108.8 169.034 108.855 169.047 108.912 169.048Z" fill="white"/>
<path d="M102.112 169.048H102.712C102.818 169.048 102.92 169.006 102.995 168.931C103.07 168.856 103.112 168.754 103.112 168.648L106.4 119.088H103.92L101.724 168.592C101.716 168.648 101.72 168.705 101.736 168.76C101.752 168.814 101.779 168.864 101.815 168.907C101.852 168.951 101.898 168.985 101.949 169.01C102 169.034 102.055 169.047 102.112 169.048Z" fill="#FF657E"/>
<path opacity="0.3" d="M102.112 169.048H102.712C102.818 169.048 102.92 169.006 102.995 168.931C103.07 168.856 103.112 168.754 103.112 168.648L106.4 119.088H103.92L101.724 168.592C101.716 168.648 101.72 168.705 101.736 168.76C101.752 168.814 101.779 168.864 101.815 168.907C101.852 168.951 101.898 168.985 101.949 169.01C102 169.034 102.055 169.047 102.112 169.048Z" fill="white"/>
<path d="M185.972 169.048H185.372C185.266 169.048 185.164 169.006 185.089 168.931C185.014 168.856 184.972 168.754 184.972 168.648L181.684 119.088H184.16L186.36 168.592C186.368 168.648 186.364 168.705 186.348 168.76C186.332 168.814 186.305 168.864 186.269 168.907C186.232 168.951 186.187 168.985 186.135 169.01C186.084 169.034 186.029 169.047 185.972 169.048Z" fill="#FF657E"/>
<path opacity="0.3" d="M185.972 169.048H185.372C185.266 169.048 185.164 169.006 185.089 168.931C185.014 168.856 184.972 168.754 184.972 168.648L181.684 119.088H184.16L186.36 168.592C186.368 168.648 186.364 168.705 186.348 168.76C186.332 168.814 186.305 168.864 186.269 168.907C186.232 168.951 186.187 168.985 186.135 169.01C186.084 169.034 186.029 169.047 185.972 169.048Z" fill="white"/>
<path d="M192.772 169.048H192.172C192.066 169.048 191.964 169.006 191.889 168.931C191.814 168.856 191.772 168.754 191.772 168.648L188.484 119.088H190.964L193.16 168.592C193.168 168.648 193.164 168.705 193.148 168.76C193.133 168.814 193.105 168.864 193.069 168.907C193.032 168.951 192.987 168.985 192.936 169.01C192.884 169.034 192.829 169.047 192.772 169.048Z" fill="#FF657E"/>
<path opacity="0.3" d="M192.772 169.048H192.172C192.066 169.048 191.964 169.006 191.889 168.931C191.814 168.856 191.772 168.754 191.772 168.648L188.484 119.088H190.964L193.16 168.592C193.168 168.648 193.164 168.705 193.148 168.76C193.133 168.814 193.105 168.864 193.069 168.907C193.032 168.951 192.987 168.985 192.936 169.01C192.884 169.034 192.829 169.047 192.772 169.048Z" fill="white"/>
<path d="M195.632 118.08H99.1119V119.1H195.632V118.08Z" fill="#FF657E"/>
<path d="M97.5039 102.288L96.5919 108.996C96.3039 111.228 96.0039 113.468 95.7919 115.668C95.7639 115.944 95.7439 116.212 95.7199 116.468L95.6879 116.868C95.6945 116.801 95.6945 116.734 95.6879 116.668C95.6803 116.604 95.6655 116.541 95.6439 116.48C95.6276 116.432 95.6075 116.385 95.5839 116.34C95.5679 116.308 95.5492 116.277 95.5279 116.248C95.4559 116.156 95.4479 116.168 95.4679 116.188C95.5088 116.232 95.5544 116.271 95.6039 116.304C95.7722 116.419 95.9487 116.522 96.1319 116.612C97.0839 117.047 98.0665 117.412 99.0719 117.704C101.168 118.34 103.372 118.904 105.548 119.428L105.3 121.336C102.974 121.266 100.655 121.027 98.3639 120.62C97.1497 120.416 95.9568 120.101 94.7999 119.68C94.46 119.549 94.1298 119.394 93.8119 119.216C93.6156 119.104 93.4284 118.977 93.2519 118.836C93.0072 118.642 92.7928 118.413 92.6159 118.156C92.4885 117.966 92.3863 117.76 92.3119 117.544C92.271 117.413 92.2389 117.279 92.2159 117.144C92.2012 117.011 92.1932 116.878 92.1919 116.744V116.3C92.1919 116.004 92.1919 115.708 92.2159 115.416C92.3119 113.08 92.5239 110.8 92.7719 108.52C93.0199 106.24 93.3079 103.98 93.6639 101.72L97.5039 102.288Z" fill="#7F3E3B"/>
<path d="M110.564 121.488L109.096 122.828C108.928 122.981 108.719 123.08 108.494 123.112C108.27 123.145 108.041 123.11 107.836 123.012L106.216 122.232C106.216 122.232 103.816 122.132 103.468 120.664L104.092 119.524L107.816 119.124C108.198 119.083 108.583 119.169 108.912 119.368L110.448 120.308C110.545 120.369 110.626 120.452 110.686 120.549C110.746 120.646 110.783 120.756 110.794 120.87C110.805 120.984 110.79 121.098 110.75 121.205C110.711 121.313 110.647 121.409 110.564 121.488Z" fill="#7F3E3B"/>
<path d="M101.78 88.512C102.18 90.816 102.484 95.02 100.836 96.512C100.836 96.512 104.836 98.616 107.488 102.288C110.288 100.056 107.948 96.724 107.948 96.724C105.412 96.04 105.548 94.148 106.032 92.384L101.78 88.512Z" fill="#7F3E3B"/>
<path d="M109.296 98.124C109.296 98.124 109.084 96.172 108.02 95.208C107.128 94.408 102.42 94.848 100.952 95.012C100.816 95.0283 100.686 95.0787 100.574 95.1583C100.462 95.238 100.372 95.3445 100.312 95.468L99.2399 97.708L109.296 98.124Z" fill="#FF657E"/>
<path opacity="0.8" d="M109.296 98.124C109.296 98.124 109.084 96.172 108.02 95.208C107.128 94.408 102.42 94.848 100.952 95.012C100.816 95.0283 100.686 95.0787 100.574 95.1583C100.462 95.238 100.372 95.3445 100.312 95.468L99.2399 97.708L109.296 98.124Z" fill="white"/>
<path d="M96.2919 97.088C93.3959 98.032 92.7719 101.916 93.0359 104.936L98.8799 108.536C98.8799 108.536 100.3 104.136 100.288 101.768C100.276 99.264 98.2599 96.456 96.2919 97.088Z" fill="#FF657E"/>
<path d="M97.4239 107.66C97.3502 107.662 97.277 107.649 97.2083 107.622C97.1397 107.595 97.077 107.555 97.0239 107.504C97 107.478 96.9786 107.45 96.9599 107.42C96.9379 107.391 96.9203 107.358 96.9079 107.324C96.8948 107.291 96.8841 107.258 96.8759 107.224C96.8719 107.189 96.8719 107.155 96.8759 107.12C96.8741 107.046 96.8874 106.972 96.9149 106.904C96.9424 106.835 96.9836 106.772 97.0359 106.72C97.1398 106.622 97.2771 106.568 97.4199 106.568C97.5626 106.568 97.7 106.622 97.8039 106.72C97.8562 106.772 97.8973 106.835 97.9248 106.904C97.9523 106.972 97.9656 107.046 97.9639 107.12C97.9678 107.155 97.9678 107.189 97.9639 107.224C97.9576 107.259 97.9469 107.292 97.9319 107.324C97.9208 107.358 97.9046 107.391 97.8839 107.42L97.8159 107.504C97.7642 107.555 97.7029 107.595 97.6356 107.622C97.5683 107.648 97.4963 107.661 97.4239 107.66Z" fill="white"/>
<path d="M96.2999 107.292C96.2004 107.254 96.1145 107.187 96.0526 107.1C95.9907 107.014 95.9557 106.911 95.9519 106.804C95.8735 106.875 95.7758 106.921 95.6712 106.937C95.5666 106.953 95.4596 106.937 95.3639 106.892C95.2683 106.847 95.1876 106.776 95.1315 106.687C95.0755 106.597 95.0464 106.494 95.0479 106.388C94.9656 106.455 94.8653 106.495 94.7598 106.504C94.6543 106.514 94.5485 106.491 94.4559 106.44C94.363 106.39 94.2866 106.315 94.2362 106.222C94.1857 106.13 94.1634 106.025 94.1719 105.92C94.0853 105.981 93.9827 106.015 93.8769 106.019C93.771 106.023 93.6664 105.995 93.5759 105.94C93.4532 105.865 93.3651 105.745 93.3306 105.606C93.2961 105.467 93.3182 105.319 93.3919 105.196C93.4673 105.073 93.5881 104.985 93.7281 104.95C93.8681 104.916 94.0161 104.938 94.1399 105.012C94.2248 105.066 94.2937 105.141 94.3394 105.23C94.3852 105.32 94.4061 105.42 94.3999 105.52C94.4816 105.461 94.5782 105.427 94.6787 105.42C94.7792 105.414 94.8794 105.436 94.9679 105.484C95.0564 105.532 95.1301 105.603 95.1809 105.69C95.2317 105.776 95.2576 105.875 95.2559 105.976C95.3343 105.913 95.4286 105.874 95.5282 105.862C95.6278 105.85 95.7288 105.866 95.8199 105.908C95.9109 105.95 95.9886 106.016 96.0444 106.1C96.1001 106.183 96.1318 106.28 96.1359 106.38C96.2113 106.314 96.3033 106.27 96.402 106.252C96.5007 106.235 96.6022 106.244 96.6959 106.28C96.8292 106.333 96.9361 106.437 96.993 106.569C97.05 106.701 97.0524 106.85 96.9999 106.984C96.9603 107.086 96.8911 107.173 96.8011 107.234C96.7112 107.295 96.6048 107.328 96.4959 107.328C96.429 107.327 96.3627 107.315 96.2999 107.292Z" fill="white"/>
<path d="M93.0359 105.488C93 105.492 92.9638 105.492 92.9279 105.488C92.8933 105.482 92.8597 105.471 92.8279 105.456C92.7937 105.445 92.7613 105.429 92.7319 105.408L92.6519 105.34C92.626 105.316 92.6032 105.289 92.5839 105.26C92.5839 105.228 92.5479 105.196 92.5319 105.164C92.5194 105.131 92.5087 105.098 92.4999 105.064C92.4979 105.028 92.4979 104.992 92.4999 104.956C92.4978 104.921 92.4978 104.887 92.4999 104.852C92.5087 104.817 92.5194 104.782 92.5319 104.748C92.5451 104.715 92.5626 104.684 92.5839 104.656C92.6041 104.626 92.6269 104.598 92.6519 104.572L92.7319 104.504C92.7622 104.485 92.7944 104.469 92.8279 104.456L92.9279 104.424C93.0151 104.408 93.1049 104.414 93.1897 104.439C93.2746 104.465 93.3521 104.511 93.4159 104.572C93.4409 104.598 93.4637 104.626 93.4839 104.656C93.5036 104.685 93.521 104.716 93.5359 104.748C93.5489 104.782 93.5583 104.816 93.5639 104.852C93.568 104.887 93.568 104.921 93.5639 104.956C93.5678 104.992 93.5678 105.028 93.5639 105.064C93.5583 105.098 93.5489 105.132 93.5359 105.164C93.5359 105.196 93.5039 105.228 93.4839 105.26C93.4646 105.289 93.4418 105.316 93.4159 105.34C93.313 105.436 93.1769 105.489 93.0359 105.488Z" fill="white"/>
<path d="M114.708 102.74C114.464 106.068 113.724 111.668 111.908 121.1L96.2521 120.636C96.6521 114.856 96.0401 110.548 94.6241 100.432C94.5638 99.9943 94.5922 99.549 94.7076 99.1225C94.8231 98.696 95.0232 98.2972 95.296 97.9497C95.5689 97.6022 95.9089 97.3131 96.2958 97.0998C96.6827 96.8865 97.1086 96.7532 97.5481 96.708C98.5521 96.604 99.6961 96.52 100.844 96.496C103.217 96.3977 105.593 96.4685 107.956 96.708C108.716 96.8 109.504 96.924 110.256 97.052C111.573 97.2763 112.759 97.9834 113.582 99.0352C114.405 100.087 114.807 101.408 114.708 102.74Z" fill="#FF657E"/>
<path d="M109.88 84.288C109.916 84.596 110.112 84.828 110.312 84.8C110.512 84.772 110.648 84.508 110.612 84.2C110.576 83.892 110.38 83.66 110.18 83.684C109.98 83.708 109.844 83.968 109.88 84.288Z" fill="#263238"/>
<path d="M110.092 83.704L110.808 83.4C110.808 83.4 110.496 84.024 110.092 83.704Z" fill="#263238"/>
<path d="M110 84.756C110.359 85.4274 110.809 86.0465 111.336 86.596C111.192 86.728 111.022 86.8268 110.836 86.8856C110.65 86.9443 110.453 86.9615 110.26 86.936L110 84.756Z" fill="#630F0F"/>
<path d="M109.916 81.572C109.932 81.5439 109.94 81.5122 109.94 81.48C109.94 81.4478 109.932 81.4161 109.916 81.388C109.894 81.3448 109.857 81.3117 109.811 81.296C109.765 81.2803 109.715 81.2832 109.672 81.304C109.407 81.4219 109.174 81.6019 108.993 81.8289C108.812 82.0559 108.688 82.3231 108.632 82.608C108.629 82.6316 108.63 82.6557 108.636 82.6789C108.642 82.702 108.653 82.7237 108.667 82.7427C108.682 82.7617 108.7 82.7776 108.721 82.7895C108.741 82.8014 108.764 82.809 108.788 82.812C108.812 82.8153 108.836 82.814 108.859 82.8079C108.882 82.8019 108.904 82.7913 108.923 82.7768C108.942 82.7622 108.958 82.7441 108.969 82.7233C108.981 82.7026 108.989 82.6797 108.992 82.656C109.041 82.4314 109.142 82.2216 109.287 82.0436C109.432 81.8657 109.618 81.7246 109.828 81.632C109.864 81.6232 109.895 81.6019 109.916 81.572Z" fill="#263238"/>
<path d="M99.224 84.208C99.912 87.972 100.124 89.58 102.272 91.3C105.504 93.884 109.98 92.216 110.432 88.32C110.832 84.812 109.632 79.244 105.752 78.18C104.894 77.9415 103.99 77.9261 103.125 78.1353C102.26 78.3444 101.462 78.7712 100.808 79.375C100.154 79.9789 99.6656 80.7399 99.3883 81.5857C99.1111 82.4315 99.0545 83.3342 99.224 84.208Z" fill="#7F3E3B"/>
<path d="M107.52 85.264C108.152 87.332 109.664 92.332 106.32 93.448C103.708 94.32 95.52 95.016 94.58 90.22C93.608 85.264 98.028 81.732 98.028 81.732C98.028 81.732 94.524 78.86 96.768 75.732C99.66 71.7 106.588 73.98 108.64 76.828C110.644 79.6 107.52 85.264 107.52 85.264Z" fill="#263238"/>
<path d="M101.2 94.136C99.6913 94.1344 98.1972 93.841 96.8 93.272C94.944 92.472 93.86 91.236 93.664 89.696C93.008 84.468 97.872 81.596 97.924 81.568L98.116 81.9C98.068 81.928 93.424 84.676 94.048 89.648C94.272 91.412 95.752 92.4 96.956 92.916C99.332 93.94 102.4 93.932 103.144 93.388L103.372 93.7C102.996 93.984 102.18 94.136 101.2 94.136Z" fill="#263238"/>
<path d="M96.524 80.984C96.48 81.652 95.928 82.584 98.244 82.916C100.56 83.248 103.784 83.228 104.448 82.672C105.112 82.116 105.76 80.78 104.376 80.9C102.992 81.02 96.6 79.84 96.524 80.984Z" fill="#FF657E"/>
<path d="M106.252 85.852C106.63 86.5507 107.268 87.0724 108.028 87.304C109.036 87.6 109.556 86.7 109.288 85.74C109.044 84.876 108.224 83.68 107.208 83.804C106.192 83.928 105.8 84.992 106.252 85.852Z" fill="#7F3E3B"/>
<path d="M130.656 164.912L134.368 164.84L132.572 155.576L128.86 155.644L130.656 164.912Z" fill="#7F3E3B"/>
<path d="M133.44 160.876C134.42 164.576 138.032 168.476 138.032 168.476L132.88 167.164L130.628 163.964L131.028 163.116L133.44 160.876Z" fill="#7F3E3B"/>
<path d="M129.78 162.596C129.769 163.029 129.795 163.463 129.856 163.892C130.076 165.42 130.748 169.492 130.748 169.492H131.1C130.941 168.252 130.846 167.005 130.816 165.756C130.864 164.752 131.512 166.528 132.296 167.536C133.08 168.544 134.492 169.46 136.776 169.536C139.448 169.62 140.516 169.508 139.66 168.84C138.804 168.172 136.98 167.74 136.98 167.74C135.509 167.11 134.256 166.059 133.38 164.72C132.515 163.517 131.379 162.534 130.064 161.852C129.84 161.864 129.796 162.288 129.78 162.596Z" fill="#263238"/>
<path d="M143.804 152.324L148.54 152.472L143.24 144.592L139.96 147.396L143.804 152.324Z" fill="#7F3E3B"/>
<path d="M144.928 148.98C148.372 150.58 153.884 150.268 153.884 150.268L149.404 153.868L145.56 153.58L145.16 152.728L144.928 148.98Z" fill="#7F3E3B"/>
<path d="M144.2 153.064C144.51 153.366 144.845 153.641 145.2 153.888C146.456 154.764 149.852 157.008 149.852 157.008L150.068 156.732C149.057 156.005 148.083 155.227 147.152 154.4C146.44 153.672 148.148 154.38 149.372 154.452C150.596 154.524 152.14 154.052 153.6 152.292C155.316 150.248 155.888 149.332 154.872 149.548C153.856 149.764 152.408 150.9 152.408 150.9C151.048 151.628 149.49 151.9 147.964 151.676C146.546 151.532 145.115 151.753 143.808 152.32C143.7 152.52 143.968 152.832 144.2 153.064Z" fill="#263238"/>
<path d="M106.44 120.828C106.44 120.828 131.784 117.088 134.4 123.576C138.968 134.88 145.412 147.832 145.412 147.832L142.3 150.408C142.3 150.408 131.248 140.176 127.32 128.808C122.624 130.328 107.684 135.208 102.212 135.208C96.368 135.208 93.98 130.228 96.092 121.952C96.1845 121.597 96.3914 121.283 96.6807 121.058C96.97 120.833 97.3255 120.71 97.692 120.708C101.4 120.744 106.44 120.828 106.44 120.828Z" fill="#263238"/>
<path d="M108.868 124.128C108.868 124.128 129.668 123.504 129.848 130.872C130.136 143.06 133.572 160.524 133.572 160.524L129.776 160.876C129.776 160.876 123.572 146.984 121.932 135.088C114.524 135.568 107.692 135.236 102.22 135.236C96.0878 135.236 95.5798 128.504 101.548 120.644C105.2 120.636 108.868 124.128 108.868 124.128Z" fill="#263238"/>
<path d="M96.0359 119.708L95.5999 121.088C95.5399 121.196 95.6639 121.308 95.8479 121.316L111.96 121.792C112.1 121.792 112.22 121.732 112.232 121.644L112.416 120.248C112.416 120.148 112.308 120.064 112.152 120.06L96.2999 119.588C96.2491 119.582 96.1978 119.591 96.1514 119.612C96.1049 119.633 96.065 119.666 96.0359 119.708Z" fill="white"/>
<path d="M98.112 121.544H97.688C97.604 121.544 97.54 121.496 97.548 121.444L97.8 119.628C97.8 119.576 97.884 119.536 97.968 119.536H98.392C98.476 119.536 98.54 119.584 98.532 119.636L98.28 121.448C98.272 121.508 98.196 121.548 98.112 121.544Z" fill="#263238"/>
<path d="M110.756 121.924H110.332C110.248 121.924 110.184 121.876 110.192 121.824L110.448 120.008C110.448 119.956 110.528 119.916 110.612 119.916H111.036C111.124 119.916 111.184 119.964 111.18 120.016L110.924 121.832C110.916 121.888 110.844 121.924 110.756 121.924Z" fill="#263238"/>
<path d="M104.436 121.732H104.012C103.924 121.732 103.864 121.684 103.872 121.632L104.124 119.816C104.124 119.764 104.208 119.724 104.292 119.724H104.716C104.8 119.724 104.864 119.772 104.856 119.824L104.604 121.64C104.596 121.696 104.52 121.736 104.436 121.732Z" fill="#263238"/>
<path d="M123.732 104.132H133.848C133.923 104.132 133.997 104.15 134.065 104.184C134.132 104.217 134.19 104.266 134.236 104.326C134.281 104.386 134.312 104.456 134.326 104.53C134.34 104.603 134.336 104.68 134.316 104.752L130.532 117.732C130.503 117.833 130.442 117.921 130.359 117.984C130.275 118.047 130.173 118.081 130.068 118.08H119.948C119.873 118.081 119.798 118.064 119.73 118.03C119.663 117.997 119.604 117.948 119.559 117.888C119.514 117.827 119.483 117.757 119.47 117.683C119.457 117.608 119.462 117.532 119.484 117.46L123.264 104.48C123.294 104.379 123.355 104.29 123.44 104.228C123.524 104.165 123.627 104.131 123.732 104.132Z" fill="#FF657E"/>
<path d="M123.916 104.608L133.752 104.84L129.868 117.084L120.032 116.848L123.916 104.608Z" fill="#E0E0E0"/>
<path d="M123.608 104.488L133.444 104.528L129.8 116.844L119.964 116.804L123.608 104.488Z" fill="white"/>
<path d="M114.736 104.744C114.736 105.144 114.796 105.616 114.828 106.06C114.86 106.504 114.92 106.968 114.98 107.42C115.092 108.324 115.241 109.215 115.428 110.092C115.607 110.947 115.845 111.789 116.14 112.612C116.288 113.012 116.452 113.412 116.628 113.764C116.716 113.948 116.812 114.12 116.908 114.296L117.056 114.54C117.24 114.707 117.456 114.834 117.692 114.912C118.066 115.057 118.452 115.174 118.844 115.26C119.727 115.446 120.621 115.58 121.52 115.66C123.368 115.84 125.3 115.928 127.188 115.968L127.38 117.884C125.414 118.274 123.419 118.5 121.416 118.56C120.375 118.592 119.334 118.549 118.3 118.432C117.733 118.363 117.173 118.249 116.624 118.092C115.922 117.906 115.269 117.569 114.712 117.104C114.525 116.942 114.356 116.761 114.208 116.564L113.952 116.204C113.788 115.964 113.628 115.724 113.492 115.48C113.207 115.004 112.954 114.51 112.736 114C112.309 113.022 111.964 112.011 111.704 110.976C111.445 109.97 111.246 108.95 111.108 107.92C111.04 107.412 110.988 106.9 110.944 106.384C110.9 105.868 110.872 105.376 110.864 104.784L114.736 104.744Z" fill="#7F3E3B"/>
<path d="M113.42 98.844C115.94 101.216 115.332 107.396 115.332 107.396L110.508 108.24C110.508 108.24 107.528 103.808 108.576 101.952C109.664 100.016 112.06 97.56 113.42 98.844Z" fill="#FF657E"/>
<path d="M115.332 107.94C115.258 107.941 115.185 107.928 115.116 107.9C115.047 107.873 114.985 107.832 114.932 107.78C114.906 107.755 114.883 107.726 114.864 107.696C114.846 107.667 114.83 107.636 114.816 107.604C114.808 107.566 114.802 107.527 114.8 107.488C114.798 107.453 114.798 107.419 114.8 107.384C114.797 107.31 114.81 107.237 114.837 107.168C114.864 107.099 114.904 107.037 114.956 106.984C114.982 106.959 115.01 106.936 115.04 106.916C115.068 106.896 115.099 106.88 115.132 106.868C115.165 106.854 115.2 106.843 115.236 106.836C115.315 106.821 115.396 106.823 115.473 106.843C115.551 106.862 115.623 106.899 115.685 106.949C115.747 107 115.797 107.064 115.831 107.137C115.866 107.209 115.884 107.288 115.884 107.368C115.888 107.403 115.888 107.437 115.884 107.472C115.878 107.508 115.867 107.543 115.852 107.576C115.84 107.609 115.824 107.64 115.804 107.668C115.785 107.698 115.762 107.727 115.736 107.752C115.686 107.81 115.624 107.856 115.554 107.889C115.484 107.921 115.409 107.939 115.332 107.94Z" fill="white"/>
<path d="M110.948 108.228C110.936 108.084 110.981 107.942 111.074 107.831C111.167 107.721 111.3 107.652 111.444 107.64C111.544 107.631 111.645 107.65 111.735 107.695C111.824 107.74 111.9 107.81 111.952 107.896C111.984 107.801 112.042 107.716 112.119 107.651C112.195 107.586 112.289 107.544 112.388 107.528C112.488 107.515 112.589 107.529 112.682 107.569C112.774 107.609 112.854 107.674 112.912 107.756C112.935 107.659 112.984 107.57 113.055 107.499C113.125 107.428 113.215 107.379 113.312 107.356C113.411 107.335 113.513 107.343 113.608 107.377C113.703 107.412 113.786 107.472 113.848 107.552C113.871 107.455 113.921 107.366 113.992 107.296C114.062 107.225 114.151 107.176 114.248 107.152C114.318 107.133 114.391 107.129 114.462 107.139C114.534 107.15 114.603 107.174 114.664 107.211C114.726 107.249 114.78 107.298 114.823 107.357C114.865 107.415 114.896 107.482 114.912 107.552C114.93 107.622 114.934 107.695 114.923 107.766C114.913 107.837 114.888 107.906 114.851 107.968C114.814 108.029 114.765 108.083 114.706 108.126C114.648 108.168 114.582 108.199 114.512 108.216C114.41 108.242 114.302 108.238 114.202 108.205C114.102 108.172 114.014 108.11 113.948 108.028C113.925 108.131 113.873 108.226 113.798 108.301C113.723 108.375 113.628 108.426 113.524 108.448C113.42 108.467 113.313 108.457 113.215 108.417C113.117 108.377 113.033 108.31 112.972 108.224C112.945 108.327 112.889 108.42 112.81 108.491C112.731 108.562 112.633 108.608 112.528 108.624C112.423 108.639 112.316 108.623 112.22 108.578C112.124 108.534 112.044 108.462 111.988 108.372C111.954 108.472 111.891 108.56 111.808 108.625C111.725 108.69 111.625 108.73 111.52 108.74H111.476C111.34 108.735 111.211 108.68 111.113 108.586C111.016 108.491 110.957 108.364 110.948 108.228Z" fill="white"/>
<path d="M110.508 108.784C110.472 108.788 110.436 108.788 110.4 108.784L110.3 108.752C110.267 108.738 110.235 108.722 110.204 108.704L110.124 108.636C110.097 108.612 110.074 108.583 110.056 108.552C110.036 108.523 110.019 108.492 110.004 108.46C109.991 108.426 109.982 108.392 109.976 108.356C109.972 108.322 109.972 108.287 109.976 108.252C109.972 108.216 109.972 108.18 109.976 108.144C109.982 108.11 109.991 108.076 110.004 108.044C110.004 108.012 110.036 107.98 110.056 107.948C110.075 107.919 110.098 107.892 110.124 107.868L110.204 107.8C110.234 107.78 110.266 107.764 110.3 107.752C110.332 107.737 110.365 107.726 110.4 107.72C110.487 107.702 110.578 107.706 110.663 107.732C110.748 107.758 110.825 107.805 110.888 107.868C110.914 107.892 110.937 107.919 110.956 107.948C110.976 107.98 110.992 108.012 111.008 108.044C111.02 108.077 111.031 108.11 111.04 108.144C111.042 108.18 111.042 108.216 111.04 108.252C111.042 108.287 111.042 108.321 111.04 108.356C111.031 108.391 111.021 108.426 111.008 108.46C110.993 108.492 110.976 108.523 110.956 108.552C110.937 108.583 110.914 108.611 110.888 108.636C110.785 108.732 110.649 108.785 110.508 108.784Z" fill="white"/>
<path d="M131.68 113.976L130.008 113.864C129.592 113.835 129.177 113.946 128.832 114.18L125.764 116.24L125.74 117.54C126.724 118.684 128.9 117.66 128.9 117.66L130.92 117.592C131.081 117.588 131.237 117.535 131.367 117.441C131.498 117.347 131.597 117.215 131.652 117.064L132.384 115.064C132.43 114.946 132.447 114.819 132.434 114.693C132.421 114.567 132.378 114.446 132.31 114.34C132.241 114.234 132.148 114.146 132.039 114.082C131.929 114.019 131.806 113.983 131.68 113.976Z" fill="#7F3E3B"/>
<path d="M97.036 170.852H97.488C97.5818 170.843 97.6693 170.801 97.7351 170.734C97.801 170.666 97.841 170.578 97.848 170.484L100.648 151.108H98.532L96.688 170.356C96.6771 170.412 96.6776 170.469 96.6893 170.524C96.7011 170.579 96.7239 170.632 96.7564 170.678C96.7889 170.725 96.8304 170.764 96.8785 170.794C96.9265 170.824 96.9801 170.843 97.036 170.852Z" fill="#FF657E"/>
<path opacity="0.3" d="M97.036 170.852H97.488C97.5818 170.843 97.6693 170.801 97.7351 170.734C97.801 170.666 97.841 170.578 97.848 170.484L100.648 151.108H98.532L96.688 170.356C96.6771 170.412 96.6776 170.469 96.6893 170.524C96.7011 170.579 96.7239 170.632 96.7564 170.678C96.7889 170.725 96.8304 170.764 96.8785 170.794C96.9265 170.824 96.9801 170.843 97.036 170.852Z" fill="black"/>
<path d="M91.236 170.852H91.688C91.7817 170.843 91.8692 170.801 91.9351 170.734C92.0009 170.666 92.0409 170.578 92.048 170.484L94.848 151.108H92.732L90.888 170.356C90.8771 170.412 90.8775 170.469 90.8893 170.524C90.901 170.579 90.9238 170.632 90.9563 170.678C90.9888 170.725 91.0303 170.764 91.0784 170.794C91.1265 170.824 91.1801 170.843 91.236 170.852Z" fill="#FF657E"/>
<path opacity="0.3" d="M91.236 170.852H91.688C91.7817 170.843 91.8692 170.801 91.9351 170.734C92.0009 170.666 92.0409 170.578 92.048 170.484L94.848 151.108H92.732L90.888 170.356C90.8771 170.412 90.8775 170.469 90.8893 170.524C90.901 170.579 90.9238 170.632 90.9563 170.678C90.9888 170.725 91.0303 170.764 91.0784 170.794C91.1265 170.824 91.1801 170.843 91.236 170.852Z" fill="black"/>
<path d="M123.556 170.852H123.1C123.007 170.842 122.92 170.8 122.855 170.732C122.79 170.665 122.751 170.577 122.744 170.484L119.944 151.108H122.056L123.9 170.356C123.911 170.411 123.911 170.468 123.899 170.523C123.888 170.578 123.865 170.631 123.833 170.677C123.801 170.723 123.76 170.763 123.712 170.793C123.665 170.823 123.612 170.843 123.556 170.852Z" fill="#FF657E"/>
<path opacity="0.3" d="M123.556 170.852H123.1C123.007 170.842 122.92 170.8 122.855 170.732C122.79 170.665 122.751 170.577 122.744 170.484L119.944 151.108H122.056L123.9 170.356C123.911 170.411 123.911 170.468 123.899 170.523C123.888 170.578 123.865 170.631 123.833 170.677C123.801 170.723 123.76 170.763 123.712 170.793C123.665 170.823 123.612 170.843 123.556 170.852Z" fill="black"/>
<path d="M129.356 170.852H128.9C128.807 170.842 128.72 170.8 128.655 170.732C128.59 170.665 128.551 170.577 128.544 170.484L125.744 151.108H127.856L129.7 170.356C129.711 170.411 129.711 170.468 129.699 170.523C129.688 170.578 129.665 170.631 129.633 170.677C129.601 170.723 129.56 170.763 129.512 170.793C129.465 170.823 129.412 170.843 129.356 170.852Z" fill="#FF657E"/>
<path opacity="0.3" d="M129.356 170.852H128.9C128.807 170.842 128.72 170.8 128.655 170.732C128.59 170.665 128.551 170.577 128.544 170.484L125.744 151.108H127.856L129.7 170.356C129.711 170.411 129.711 170.468 129.699 170.523C129.688 170.578 129.665 170.631 129.633 170.677C129.601 170.723 129.56 170.763 129.512 170.793C129.465 170.823 129.412 170.843 129.356 170.852Z" fill="black"/>
<path d="M136.872 128.14H122.632C120.104 119.364 111.032 112.444 101.704 112.444H97.0799C87.3359 112.444 81.0479 120.044 83.0319 129.38C83.4076 131.1 84.0173 132.761 84.8439 134.316L87.0919 147.916C87.3799 149.672 88.7839 151.096 90.2199 151.096H133.084C134.52 151.096 135.924 149.672 136.212 147.916L138.952 131.308C139.244 129.564 138.312 128.14 136.872 128.14Z" fill="#FF657E"/>
<path opacity="0.5" d="M136.872 128.14H122.632C120.104 119.364 111.032 112.444 101.704 112.444H97.0799C87.3359 112.444 81.0479 120.044 83.0319 129.38C83.4076 131.1 84.0173 132.761 84.8439 134.316L87.0919 147.916C87.3799 149.672 88.7839 151.096 90.2199 151.096H133.084C134.52 151.096 135.924 149.672 136.212 147.916L138.952 131.308C139.244 129.564 138.312 128.14 136.872 128.14Z" fill="white"/>
<path d="M135.016 64.348H131.748V64.748H135.016V64.348Z" fill="#FF657E"/>
<path d="M119.728 69.06H119.328V67.088C119.329 66.3599 119.619 65.6619 120.134 65.1474C120.649 64.633 121.348 64.344 122.076 64.344H129.368V64.744H122.076C121.454 64.744 120.857 64.9908 120.417 65.4303C119.977 65.8698 119.729 66.466 119.728 67.088V69.06Z" fill="#FF657E"/>
<path d="M122.076 65.7481H158.544C158.9 65.7481 159.242 65.8897 159.494 66.1417C159.746 66.3938 159.888 66.7356 159.888 67.0921V81.3921C159.888 81.7496 159.746 82.0924 159.493 82.3452C159.24 82.598 158.897 82.7401 158.54 82.7401H122.076C121.718 82.7401 121.375 82.598 121.122 82.3452C120.87 82.0924 120.728 81.7496 120.728 81.3921V67.0881C120.728 66.9116 120.763 66.7369 120.831 66.574C120.9 66.4112 120.999 66.2633 121.124 66.1389C121.249 66.0144 121.398 65.9159 121.561 65.8488C121.724 65.7818 121.899 65.7475 122.076 65.7481Z" fill="#FF657E"/>
<path d="M156.82 75.148H123.8C123.56 75.148 123.33 75.0527 123.16 74.8832C122.991 74.7137 122.896 74.4837 122.896 74.244C122.896 74.0042 122.991 73.7743 123.16 73.6047C123.33 73.4352 123.56 73.34 123.8 73.34H156.82C157.059 73.34 157.289 73.4352 157.459 73.6047C157.628 73.7743 157.724 74.0042 157.724 74.244C157.724 74.4837 157.628 74.7137 157.459 74.8832C157.289 75.0527 157.059 75.148 156.82 75.148Z" fill="white"/>
<path d="M149.752 78.904H123.8C123.56 78.904 123.33 78.8088 123.16 78.6392C122.991 78.4697 122.896 78.2398 122.896 78C122.895 77.8806 122.917 77.7622 122.962 77.6516C123.007 77.541 123.074 77.4404 123.158 77.3556C123.242 77.2708 123.342 77.2035 123.452 77.1576C123.562 77.1117 123.68 77.088 123.8 77.088H149.752C149.991 77.088 150.221 77.1833 150.391 77.3528C150.56 77.5223 150.656 77.7523 150.656 77.992C150.657 78.1114 150.634 78.2298 150.589 78.3404C150.544 78.451 150.478 78.5516 150.394 78.6364C150.31 78.7212 150.21 78.7885 150.099 78.8344C149.989 78.8804 149.871 78.904 149.752 78.904Z" fill="white"/>
<path d="M134.936 71.392H123.8C123.56 71.392 123.33 71.2967 123.16 71.1272C122.991 70.9577 122.896 70.7277 122.896 70.488C122.896 70.2482 122.991 70.0183 123.16 69.8488C123.33 69.6792 123.56 69.584 123.8 69.584H134.936C135.175 69.584 135.405 69.6792 135.575 69.8488C135.744 70.0183 135.84 70.2482 135.84 70.488C135.84 70.7277 135.744 70.9577 135.575 71.1272C135.405 71.2967 135.175 71.392 134.936 71.392Z" fill="white"/>
<path d="M149.696 71.392H138.56C138.32 71.392 138.09 71.2967 137.92 71.1272C137.751 70.9577 137.656 70.7277 137.656 70.488C137.656 70.2482 137.751 70.0183 137.92 69.8488C138.09 69.6792 138.32 69.584 138.56 69.584H149.696C149.935 69.584 150.165 69.6792 150.335 69.8488C150.504 70.0183 150.6 70.2482 150.6 70.488C150.6 70.7277 150.504 70.9577 150.335 71.1272C150.165 71.2967 149.935 71.392 149.696 71.392Z" fill="white"/>
<path d="M122.896 81.656V85.988C122.896 86.1737 122.947 86.3557 123.045 86.5137C123.143 86.6717 123.282 86.7994 123.448 86.8824C123.615 86.9655 123.8 87.0006 123.985 86.9839C124.17 86.9673 124.347 86.8994 124.496 86.788L131.136 81.652L122.896 81.656Z" fill="#FF657E"/>
<path d="M179.124 44.288H142.656C142.479 44.288 142.303 44.3228 142.14 44.3906C141.976 44.4583 141.828 44.5576 141.703 44.6828C141.577 44.808 141.478 44.9566 141.41 45.1201C141.343 45.2837 141.308 45.4589 141.308 45.636V59.936C141.308 60.2935 141.45 60.6363 141.703 60.8891C141.955 61.1419 142.298 61.284 142.656 61.284H171.456L176.68 65.324C176.828 65.4354 177.005 65.5032 177.19 65.5199C177.375 65.5366 177.561 65.5014 177.727 65.4184C177.893 65.3353 178.033 65.2077 178.13 65.0497C178.228 64.8917 178.28 64.7097 178.28 64.524V61.276H179.1C179.457 61.276 179.8 61.1339 180.053 60.8811C180.306 60.6283 180.448 60.2855 180.448 59.928V45.636C180.448 45.2826 180.309 44.9433 180.061 44.6912C179.814 44.4391 179.477 44.2943 179.124 44.288Z" fill="white"/>
<path d="M177.3 65.736C177.034 65.7343 176.775 65.6458 176.564 65.484L171.396 61.484H142.656C142.246 61.483 141.852 61.3195 141.562 61.0294C141.272 60.7394 141.109 60.3462 141.108 59.936V45.636C141.109 45.2258 141.272 44.8327 141.562 44.5426C141.852 44.2525 142.246 44.0891 142.656 44.088H179.124C179.534 44.0891 179.927 44.2525 180.217 44.5426C180.507 44.8327 180.671 45.2258 180.672 45.636V59.936C180.671 60.3462 180.507 60.7394 180.217 61.0294C179.927 61.3195 179.534 61.483 179.124 61.484H178.504V64.532C178.504 64.8503 178.377 65.1555 178.152 65.3805C177.927 65.6056 177.622 65.732 177.304 65.732L177.3 65.736ZM142.656 44.488C142.352 44.4891 142.06 44.6104 141.845 44.8254C141.63 45.0405 141.509 45.3319 141.508 45.636V59.936C141.509 60.2402 141.63 60.5315 141.845 60.7466C142.06 60.9617 142.352 61.083 142.656 61.084H171.536L176.8 65.164C176.918 65.2574 177.06 65.3156 177.21 65.3317C177.36 65.3479 177.511 65.3214 177.646 65.2554C177.782 65.1894 177.896 65.0864 177.975 64.9585C178.055 64.8305 178.097 64.6827 178.096 64.532V61.088H179.116C179.42 61.087 179.711 60.9657 179.926 60.7506C180.141 60.5355 180.263 60.2442 180.264 59.94V45.636C180.263 45.3319 180.141 45.0405 179.926 44.8254C179.711 44.6104 179.42 44.4891 179.116 44.488H142.656Z" fill="#FF657E"/>
<path d="M160.112 53.6921H177.4C177.518 53.6921 177.636 53.6687 177.746 53.6232C177.855 53.5778 177.955 53.5112 178.039 53.4273C178.123 53.3433 178.19 53.2437 178.235 53.134C178.28 53.0243 178.304 52.9068 178.304 52.7881C178.302 52.5493 178.206 52.321 178.036 52.1526C177.867 51.9841 177.639 51.8891 177.4 51.8881H160.112C159.872 51.8891 159.642 51.9853 159.472 52.1554C159.303 52.3256 159.208 52.5559 159.208 52.7961C159.21 53.0344 159.306 53.2623 159.475 53.4301C159.645 53.5979 159.873 53.6921 160.112 53.6921Z" fill="#FF657E"/>
<path d="M148.04 53.6921H156.6C156.718 53.6921 156.836 53.6687 156.946 53.6232C157.055 53.5778 157.155 53.5112 157.239 53.4273C157.323 53.3433 157.39 53.2437 157.435 53.134C157.48 53.0243 157.504 52.9068 157.504 52.7881C157.502 52.5493 157.406 52.321 157.236 52.1526C157.067 51.9841 156.838 51.8891 156.6 51.8881H148.04C147.8 51.8891 147.57 51.9853 147.4 52.1554C147.231 52.3256 147.136 52.5559 147.136 52.7961C147.138 53.0344 147.234 53.2623 147.403 53.4301C147.573 53.5979 147.801 53.6921 148.04 53.6921Z" fill="#FF657E"/>
<path d="M151.444 57.448H177.4C177.899 57.448 178.304 57.0433 178.304 56.544C178.304 56.0447 177.899 55.64 177.4 55.64H151.444C150.944 55.64 150.54 56.0447 150.54 56.544C150.54 57.0433 150.944 57.448 151.444 57.448Z" fill="#FF657E"/>
<path d="M144.4 49.936H177.4C177.639 49.936 177.869 49.8408 178.039 49.6712C178.208 49.5017 178.304 49.2718 178.304 49.032C178.304 48.7919 178.208 48.5616 178.039 48.3914C177.87 48.2212 177.64 48.1251 177.4 48.124H144.4C144.159 48.1251 143.93 48.2212 143.76 48.3914C143.591 48.5616 143.496 48.7919 143.496 49.032C143.496 49.2718 143.591 49.5017 143.76 49.6712C143.93 49.8408 144.16 49.936 144.4 49.936Z" fill="#FF657E"/>
</svg>
