<svg width="300" height="200" viewBox="0 0 300 200" fill="none" xmlns="http://www.w3.org/2000/svg">
<path d="M250 156.448H50V156.548H250V156.448Z" fill="#EBEBEB"/>
<path d="M229.96 162.884H216.712V162.984H229.96V162.884Z" fill="#EBEBEB"/>
<path d="M182.488 163.972H179.012V164.072H182.488V163.972Z" fill="#EBEBEB"/>
<path d="M216.312 159.172H208.636V159.272H216.312V159.172Z" fill="#EBEBEB"/>
<path d="M88.26 159.844H70.984V159.944H88.26V159.844Z" fill="#EBEBEB"/>
<path d="M94.356 159.844H91.824V159.944H94.356V159.844Z" fill="#EBEBEB"/>
<path d="M140.06 161.532H102.588V161.632H140.06V161.532Z" fill="#EBEBEB"/>
<path d="M144.8 138.608H67.5639C66.9589 138.607 66.379 138.366 65.9515 137.938C65.524 137.509 65.2839 136.929 65.2839 136.324V27.752C65.2892 27.1504 65.5316 26.5752 65.9585 26.1513C66.3854 25.7274 66.9623 25.4891 67.5639 25.488H144.8C145.406 25.488 145.987 25.7287 146.415 26.157C146.843 26.5853 147.084 27.1663 147.084 27.772V136.324C147.084 136.93 146.843 137.511 146.415 137.939C145.987 138.367 145.406 138.608 144.8 138.608ZM67.5639 25.568C66.9854 25.5691 66.4309 25.7997 66.0222 26.2091C65.6135 26.6186 65.3839 27.1735 65.3839 27.752V136.324C65.3839 136.903 65.6135 137.457 66.0222 137.867C66.4309 138.276 66.9854 138.507 67.5639 138.508H144.8C145.379 138.507 145.934 138.277 146.343 137.867C146.752 137.458 146.983 136.903 146.984 136.324V27.752C146.983 27.1731 146.752 26.6182 146.343 26.2089C145.934 25.7995 145.379 25.5691 144.8 25.568H67.5639Z" fill="#EBEBEB"/>
<path d="M231.324 138.608H154.084C153.479 138.607 152.898 138.366 152.47 137.938C152.042 137.51 151.801 136.929 151.8 136.324V27.752C151.806 27.1501 152.05 26.5749 152.477 26.1511C152.905 25.7273 153.482 25.4891 154.084 25.488H231.324C231.925 25.4901 232.501 25.7289 232.927 26.1527C233.353 26.5765 233.595 27.1511 233.6 27.752V136.324C233.6 136.928 233.361 137.508 232.934 137.936C232.507 138.364 231.928 138.606 231.324 138.608ZM154.084 25.568C153.505 25.5691 152.95 25.7995 152.541 26.2089C152.132 26.6182 151.901 27.1731 151.9 27.752V136.324C151.901 136.903 152.132 137.458 152.541 137.867C152.95 138.277 153.505 138.507 154.084 138.508H231.324C231.903 138.507 232.458 138.277 232.867 137.867C233.277 137.458 233.507 136.903 233.508 136.324V27.752C233.507 27.1731 233.277 26.6182 232.867 26.2089C232.458 25.7995 231.903 25.5691 231.324 25.568H154.084Z" fill="#EBEBEB"/>
<path d="M199.264 55.4921H193.596V73.1361H199.264V55.4921Z" fill="#E6E6E6"/>
<path d="M214.628 73.136H195.82L192.98 52.484H211.788L214.628 73.136Z" fill="#F0F0F0"/>
<path d="M216.664 73.136H197.24L194.4 52.484H213.824L216.664 73.136Z" fill="#F5F5F5"/>
<path d="M198.644 71.5081L196.252 54.1121H212.42L214.816 71.5081H198.644Z" fill="white"/>
<path d="M201.84 66.2401L200.94 59.7121C200.913 59.5398 200.924 59.3638 200.973 59.1962C201.021 59.0286 201.105 58.8736 201.219 58.7419C201.333 58.6102 201.475 58.5049 201.634 58.4334C201.793 58.362 201.966 58.326 202.14 58.3281H208.016C208.31 58.3258 208.595 58.4318 208.816 58.6257C209.037 58.8196 209.18 59.0881 209.216 59.3801L210.112 65.9121C210.138 66.0841 210.126 66.2597 210.078 66.4267C210.029 66.5938 209.945 66.7483 209.831 66.8796C209.717 67.0108 209.576 67.1157 209.417 67.187C209.258 67.2582 209.086 67.2941 208.912 67.2921H203.044C202.749 67.2953 202.463 67.1898 202.241 66.9958C202.019 66.8018 201.876 66.5327 201.84 66.2401Z" fill="#F5F5F5"/>
<path d="M163.98 36.16H79.264V88.42H163.98V36.16Z" fill="#E6E6E6"/>
<path d="M166.156 36.16H80.28V88.42H166.156V36.16Z" fill="#F0F0F0"/>
<path d="M163.98 88.4241H79.264V92.4681H163.98V88.4241Z" fill="#E6E6E6"/>
<path d="M169.78 88.4241H83.9039V92.4681H169.78V88.4241Z" fill="#F0F0F0"/>
<path d="M163.108 85.376V39.208L83.328 39.208V85.376H163.108Z" fill="#FAFAFA"/>
<path d="M89.184 85.376L107.068 39.208H115.508L97.624 85.376H89.184Z" fill="white"/>
<path d="M99.4401 85.376L117.324 39.208H120.612L102.728 85.376H99.4401Z" fill="white"/>
<path d="M130.728 85.376L148.612 39.208H151.9L134.02 85.376H130.728Z" fill="white"/>
<path d="M163.104 85.376V39.208H162.716V85.376H163.104Z" fill="#E6E6E6"/>
<path d="M228.2 73.136H210.264V156.448H228.2V73.136Z" fill="#E6E6E6"/>
<path d="M226.396 156.448H228.2V151.316H224.504L226.396 156.448Z" fill="#F0F0F0"/>
<path d="M196.772 73.136H178.836V156.448H196.772V73.136Z" fill="#E6E6E6"/>
<path d="M228.2 73.136H195.196V153.3H228.2V73.136Z" fill="#F0F0F0"/>
<path d="M197 156.448H195.196V151.316H198.892L197 156.448Z" fill="#F0F0F0"/>
<path d="M226.8 74.604H196.596V112.42H226.8V74.604Z" fill="#E6E6E6"/>
<path d="M214.968 77.548H208.428C207.022 77.5479 205.631 77.2613 204.339 76.7056C203.048 76.1499 201.883 75.3368 200.916 74.316H222.48C221.514 75.3374 220.349 76.1508 219.057 76.7066C217.766 77.2623 216.374 77.5486 214.968 77.548Z" fill="#F0F0F0"/>
<path d="M226.8 113.952H196.596V151.768H226.8V113.952Z" fill="#E6E6E6"/>
<path d="M214.968 116.896H208.428C207.022 116.896 205.631 116.609 204.339 116.054C203.048 115.498 201.883 114.685 200.916 113.664H222.48C221.514 114.685 220.349 115.499 219.057 116.055C217.766 116.61 216.374 116.897 214.968 116.896Z" fill="#F0F0F0"/>
<path d="M101.8 99.4441H131.648L135.976 117.072H106.124L101.8 99.4441Z" fill="#E6E6E6"/>
<path d="M106.124 117.072L106.248 118.044H136.096L135.976 117.072H106.124Z" fill="#E6E6E6"/>
<path d="M102.72 99.4441H132.568L136.896 117.072H107.044L102.72 99.4441Z" fill="#F0F0F0"/>
<path d="M107.676 116.264L103.744 100.248H131.936L135.868 116.264H107.676Z" fill="white"/>
<path d="M114.824 117.072L114.944 118.044H147.812L147.692 117.072H114.824Z" fill="#F0F0F0"/>
<path d="M155.312 118.044H151.736V156.444H155.312V118.044Z" fill="#E6E6E6"/>
<path d="M156.444 118.044H153.96V156.444H156.444V118.044Z" fill="#F0F0F0"/>
<path d="M111.132 122.44H157.216V118.044H111.132V122.44Z" fill="#F0F0F0"/>
<path d="M109.528 122.44H105.952V156.444H109.528V122.44Z" fill="#E6E6E6"/>
<path d="M110.656 122.44H108.172V156.444H110.656V122.44Z" fill="#F0F0F0"/>
<path d="M86.892 122.44H83.316V156.444H86.892V122.44Z" fill="#E6E6E6"/>
<path d="M88.024 122.44H85.54V156.444H88.024V122.44Z" fill="#F0F0F0"/>
<path d="M132.68 122.44H129.104V156.444H132.68V122.44Z" fill="#E6E6E6"/>
<path d="M133.808 122.44H131.324V156.444H133.808V122.44Z" fill="#F0F0F0"/>
<path d="M111.128 118.044H83.316V122.44H111.128V118.044Z" fill="#E6E6E6"/>
<path d="M166.936 156.448H166.068L163.6 144.192L163.164 142.044L160.428 128.688H150.028L144.4 156.448H143.52L149.264 128.176C149.282 128.082 149.332 127.998 149.404 127.936C149.477 127.874 149.569 127.839 149.664 127.836H160.8C160.896 127.835 160.99 127.869 161.063 127.931C161.137 127.994 161.185 128.081 161.2 128.176L163.6 139.904L164 142.048L166.936 156.448Z" fill="#F0F0F0"/>
<path d="M183.636 156.448H182.764L177.124 128.688H166.724L164 142.048L163.6 144.192L161.108 156.448H160.24L163.164 142.048L163.596 139.908L165.996 128.18C166.015 128.087 166.064 128.002 166.137 127.941C166.21 127.879 166.301 127.844 166.396 127.84H177.496C177.591 127.843 177.683 127.878 177.756 127.94C177.828 128.002 177.878 128.086 177.896 128.18L183.636 156.448Z" fill="#F0F0F0"/>
<path d="M158 128.26H177.112C180.76 128.26 182.784 125.78 183.816 121.692L184.32 119.356C184.49 118.649 184.498 117.914 184.342 117.204C184.186 116.494 183.871 115.829 183.421 115.258C182.971 114.688 182.397 114.227 181.743 113.911C181.088 113.594 180.371 113.431 179.644 113.432H167.644C165.164 113.432 164.508 114.024 162.792 117.76C161.076 121.496 158 128.26 158 128.26Z" fill="#F0F0F0"/>
<path d="M168.42 128.26H148.052C147.798 128.26 147.555 128.159 147.376 127.98C147.197 127.801 147.096 127.558 147.096 127.304V127.216C147.096 126.873 147.164 126.532 147.295 126.215C147.427 125.898 147.619 125.609 147.862 125.366C148.105 125.123 148.393 124.931 148.711 124.799C149.028 124.668 149.368 124.6 149.712 124.6H168.42V128.264V128.26Z" fill="#F0F0F0"/>
<path d="M150 174.512C192.833 174.512 227.556 172.485 227.556 169.984C227.556 167.483 192.833 165.456 150 165.456C107.167 165.456 72.444 167.483 72.444 169.984C72.444 172.485 107.167 174.512 150 174.512Z" fill="#F5F5F5"/>
<path d="M131.212 157.188L128.652 158.836L124.012 153.44L126.572 151.792L131.212 157.188Z" fill="#FF8B7B"/>
<path opacity="0.2" d="M126.576 151.792L124.012 153.44L126.408 156.224L128.968 154.572L126.576 151.792Z" fill="black"/>
<path d="M111.648 165.988L108.704 166.276L105.644 159.276L108.588 158.988L111.648 165.988Z" fill="#FF8B7B"/>
<path opacity="0.2" d="M105.648 159.28L107.224 162.888H110.292L108.588 158.992L105.648 159.28Z" fill="black"/>
<path d="M89.2918 71.488C87.8118 71.62 87.7718 69.108 85.1718 70.288C81.8678 71.792 82.9838 74.124 80.4038 74.028C77.8238 73.932 76.0958 75.944 76.6718 77.444C77.2478 78.944 78.1398 80.364 76.3158 80.968C74.4918 81.572 73.2518 82.104 73.5158 83.616C73.7798 85.128 75.0718 85.736 72.8958 86.7C70.7198 87.664 70.9398 91.832 73.0718 91.836C75.2038 91.84 73.1598 93.916 75.0718 96.028C76.9838 98.14 79.8918 98.428 81.1038 97.388C82.3158 96.348 83.6678 95.488 85.9478 97.088C88.2278 98.688 92.0878 99.088 91.9118 96.552C91.7358 94.016 89.5118 92.352 91.6078 91.032C93.7038 89.712 96.4078 89.06 95.5598 86.492C95.0198 84.892 93.3878 83.5 94.7038 82.304C96.8438 80.36 96.8558 75.96 94.2318 74.844C92.7078 74.2 94.1758 71.048 89.2918 71.488Z" fill="#263238"/>
<path d="M86.444 91.256C86.372 92.456 86.22 93.524 86.044 94.648C85.868 95.772 85.612 96.868 85.32 97.968C85.0354 99.08 84.6732 100.171 84.236 101.232C84.02 101.768 83.772 102.3 83.508 102.832C83.376 103.096 83.232 103.356 83.084 103.612C83.016 103.744 82.932 103.872 82.856 104.012L82.74 104.2C82.6613 104.325 82.573 104.444 82.476 104.556C82.2542 104.807 81.9814 105.007 81.676 105.144C81.4032 105.268 81.1107 105.342 80.812 105.364C80.3727 105.389 79.9327 105.33 79.516 105.188C78.8955 104.975 78.3043 104.685 77.756 104.324C76.7906 103.692 75.877 102.985 75.024 102.208C73.3796 100.712 71.8462 99.0986 70.436 97.38L71.572 96.288C72.372 96.992 73.172 97.708 74.008 98.388C74.844 99.068 75.66 99.752 76.512 100.388C77.3232 101.012 78.1788 101.576 79.072 102.076C79.4497 102.29 79.8529 102.455 80.272 102.568C80.3729 102.599 80.4792 102.609 80.584 102.596H80.504C80.4512 102.622 80.4026 102.656 80.36 102.696L80.34 102.716L80.428 102.552C80.484 102.444 80.548 102.34 80.6 102.228C80.712 102.007 80.82 101.783 80.924 101.556C81.124 101.1 81.324 100.636 81.484 100.152C81.82 99.192 82.1 98.2 82.348 97.192C82.596 96.184 82.784 95.156 82.952 94.12C83.12 93.084 83.248 92.024 83.352 91.04L86.444 91.256Z" fill="#FF8B7B"/>
<path d="M88.7678 91.6321C88.6078 92.6001 87.8038 94.4321 87.1678 95.7921C86.6958 96.7761 86.3118 97.5161 86.3118 97.5161L85.7518 97.2681L81.1158 95.2041C81.4678 92.7041 82.0398 90.0041 84.7958 88.7761C86.5158 88.0161 89.0518 89.8881 88.7678 91.6321Z" fill="#FA1239"/>
<path opacity="0.6" d="M88.7678 91.6321C88.6078 92.6001 87.8038 94.4321 87.1678 95.7921C86.6958 96.7761 86.3118 97.5161 86.3118 97.5161L85.7518 97.2681L81.1158 95.2041C81.4678 92.7041 82.0398 90.0041 84.7958 88.7761C86.5158 88.0161 89.0518 89.8881 88.7678 91.6321Z" fill="black"/>
<path opacity="0.3" d="M87.1559 95.792C86.6839 96.776 86.2999 97.5161 86.2999 97.5161L85.7399 97.268C85.8159 96.28 86.0119 94.724 86.5399 94.024C86.8697 94.5624 87.0797 95.1653 87.1559 95.792Z" fill="black"/>
<path d="M71.7479 97.2041L72.1159 94.5121L69.0959 95.4881C69.0959 95.4881 69.5759 97.1161 70.6519 97.7841L71.7479 97.2041Z" fill="#FF8B7B"/>
<path d="M70.7479 92.212L68.6399 93.368L69.0959 95.504L72.1159 94.512L70.7479 92.212Z" fill="#FF8B7B"/>
<path d="M127.708 158.028L130.488 156.028C130.536 155.993 130.594 155.977 130.653 155.982C130.712 155.987 130.767 156.013 130.808 156.056L132.7 158.028C132.746 158.079 132.781 158.139 132.802 158.205C132.823 158.27 132.83 158.34 132.822 158.408C132.815 158.476 132.793 158.542 132.758 158.602C132.723 158.661 132.676 158.712 132.62 158.752C131.64 159.432 131.132 159.708 129.908 160.584C129.156 161.124 127.572 162.428 126.532 163.172C125.492 163.916 124.704 162.932 125.068 162.528C126.708 160.72 127.144 159.488 127.404 158.472C127.451 158.293 127.558 158.136 127.708 158.028Z" fill="#263238"/>
<path d="M108.316 165.368H111.916C111.981 165.369 112.043 165.391 112.094 165.431C112.146 165.47 112.183 165.526 112.2 165.588L113 168.444C113.019 168.512 113.023 168.583 113.01 168.652C112.996 168.721 112.967 168.786 112.925 168.841C112.882 168.897 112.826 168.942 112.763 168.972C112.7 169.002 112.63 169.018 112.56 169.016C111.288 169.016 110.684 169.016 109.096 169.016H104.24C102.92 169.016 102.64 167.68 103.188 167.56C105.636 167.02 107.048 166.272 107.804 165.56C107.944 165.433 108.127 165.365 108.316 165.368Z" fill="#263238"/>
<path d="M102.82 102.472L91.032 106.2C82.872 90.0481 84.036 89.1921 84.036 89.1921C84.036 89.1921 85.92 88.1161 87.88 87.2201C88.176 87.0841 88.476 86.9521 88.772 86.8201C90.5133 86.128 92.3019 85.5613 94.124 85.1241C94.392 85.0521 94.66 84.9881 94.924 84.9241C96.375 84.5959 97.8443 84.3541 99.324 84.2001C99.5 86.4361 99.676 88.3281 99.868 89.9721C100.116 92.1161 100.384 93.8321 100.668 95.3161C101.193 97.7551 101.913 100.148 102.82 102.472Z" fill="#FA1239"/>
<path opacity="0.6" d="M102.82 102.472L91.032 106.2C82.872 90.0481 84.036 89.1921 84.036 89.1921C84.036 89.1921 85.92 88.1161 87.88 87.2201C88.176 87.0841 88.476 86.9521 88.772 86.8201C90.5133 86.128 92.3019 85.5613 94.124 85.1241C94.392 85.0521 94.66 84.9881 94.924 84.9241C96.375 84.5959 97.8443 84.3541 99.324 84.2001C99.5 86.4361 99.676 88.3281 99.868 89.9721C100.116 92.1161 100.384 93.8321 100.668 95.3161C101.193 97.7551 101.913 100.148 102.82 102.472Z" fill="black"/>
<path opacity="0.3" d="M100.7 95.324C99.5679 93.724 98.4839 90 98.7639 88.604L99.8839 89.98C100.132 92.124 100.4 93.84 100.7 95.324Z" fill="black"/>
<path d="M91.4518 92.2081C91.4518 92.2081 94.4238 91.5641 95.3798 92.8561C96.6918 91.5641 96.2278 86.5161 95.5958 84.7161C95.0946 84.8012 94.6029 84.9352 94.1278 85.1161L92.0278 88.3641L91.4518 92.2081Z" fill="white"/>
<path d="M91.452 92.208C91.452 92.208 89.452 92.656 89.24 94.292C86.44 92.208 86.636 89.156 87.268 87.356C87.7478 87.1238 88.2523 86.9466 88.772 86.828L90.872 89.14L91.452 92.208Z" fill="white"/>
<path d="M92.1358 81.724C92.5358 83.196 93.1438 84.652 94.1358 85.132C94.1358 85.132 95.0598 87.78 91.4598 92.208C87.6918 89.524 88.7798 86.828 88.7798 86.828C90.5558 85.76 90.0558 84.352 89.2998 83.12L90.3438 81.444C90.4478 81.2826 90.5965 81.1548 90.7717 81.0762C90.9469 80.9976 91.1412 80.9715 91.3309 81.0012C91.5207 81.0308 91.6977 81.1149 91.8406 81.2432C91.9835 81.3715 92.086 81.5385 92.1358 81.724Z" fill="#FF8B7B"/>
<path opacity="0.2" d="M92.136 81.724C92.0881 81.5354 91.9859 81.365 91.842 81.2341C91.6981 81.1031 91.5188 81.0174 91.3265 80.9876C91.1343 80.9577 90.9375 80.9851 90.7606 81.0662C90.5838 81.1474 90.4347 81.2788 90.332 81.444L89.996 81.98C90.024 82.336 90.04 82.628 90.036 82.78C90.004 83.82 91.464 83.772 92.652 83.272C92.4402 82.7701 92.2677 82.2526 92.136 81.724Z" fill="black"/>
<path d="M84.8999 77.704C85.9399 80.54 86.3159 81.764 88.2199 82.812C91.0799 84.392 94.3359 82.496 94.1679 79.404C94.0159 76.624 92.3439 72.448 89.1719 72.14C88.4727 72.0692 87.7671 72.1783 87.1219 72.4568C86.4767 72.7353 85.9134 73.1741 85.4854 73.7315C85.0574 74.2889 84.779 74.9465 84.6765 75.6417C84.5741 76.3369 84.6509 77.0468 84.8999 77.704Z" fill="#FF8B7B"/>
<path d="M92.2558 73.4401C91.2798 72.5001 90.2558 71.4081 88.2958 71.6201C86.1278 71.8561 85.2718 73.1681 85.2718 73.1681L83.4078 77.2441C83.4078 77.2441 84.5638 82.4921 86.4718 80.0441C87.5718 78.6281 87.5998 76.4881 87.1998 74.8881C87.9494 74.7824 88.6882 74.6111 89.4078 74.3761C90.2878 74.7041 91.2758 74.7041 92.0078 74.0321C92.1678 73.8841 92.2838 73.7681 92.3678 73.6761L92.4358 73.6001C92.6518 73.3241 92.4718 73.3521 92.2558 73.4401ZM89.7358 74.2881C90.4191 74.0671 91.1134 73.8815 91.8158 73.7321C91.5547 74.0083 91.2219 74.2066 90.8546 74.3048C90.4873 74.403 90.1 74.3972 89.7358 74.2881Z" fill="#263238"/>
<path d="M85.044 80.588C85.3443 81.0914 85.8319 81.4553 86.4 81.6C87.152 81.788 87.508 81.112 87.28 80.4C87.076 79.772 86.44 78.916 85.68 79.036C85.5157 79.0661 85.3615 79.137 85.2318 79.2422C85.1021 79.3474 85.0009 79.4835 84.9375 79.6381C84.8742 79.7927 84.8508 79.9607 84.8694 80.1267C84.8879 80.2927 84.948 80.4513 85.044 80.588Z" fill="#FF8B7B"/>
<path d="M91.0319 106.204C91.0319 106.204 90.6319 130.36 93.7879 139.088C96.8279 147.456 105.896 161.84 105.896 161.84L111.152 161.708C111.152 161.708 102.8 143.488 101.436 136.288C99.1639 124.34 99.6639 103.488 99.6639 103.488L91.0319 106.204Z" fill="#FA1239"/>
<path opacity="0.3" d="M95.7518 108.288L97.1638 104.288L99.6638 103.488C99.6638 103.488 99.4358 112.98 99.9838 122.824C97.7158 118.456 95.7518 110.456 95.7518 108.288Z" fill="black"/>
<path d="M105.156 162.112L111.648 161.948L111.272 159.952L104.184 160.288L105.156 162.112Z" fill="#263238"/>
<path d="M93.5999 105.424C93.5999 105.424 101.8 124.18 107.1 134.856C111.38 143.48 124.7 155.048 124.7 155.048L128.352 152.516C128.352 152.516 118.328 138.812 115.372 132.964C105.912 114.252 108.244 106.54 102.804 102.472L93.5999 105.424Z" fill="#FA1239"/>
<path d="M124.916 156.256L129.204 153.204L128.232 151.332L123.52 154.896L124.916 156.256Z" fill="#263238"/>
<path d="M102.8 101.724L103.664 102.612C103.732 102.68 103.664 102.796 103.524 102.84L91.1598 106.748C91.0558 106.784 90.9518 106.748 90.9238 106.696L90.4838 105.672C90.4518 105.604 90.5238 105.512 90.6398 105.476L102.58 101.696C102.616 101.681 102.655 101.676 102.694 101.681C102.732 101.686 102.769 101.701 102.8 101.724Z" fill="#263238"/>
<path d="M101.6 103.568L101.92 103.468C101.984 103.468 102.024 103.396 102.004 103.36L101.424 102.036C101.407 102.014 101.383 101.999 101.356 101.993C101.329 101.986 101.301 101.989 101.276 102L100.956 102.104C100.892 102.124 100.852 102.172 100.872 102.212L101.456 103.532C101.468 103.572 101.532 103.588 101.6 103.568Z" fill="#FA1239"/>
<path d="M92.0759 106.58L92.3959 106.48C92.4599 106.46 92.4959 106.412 92.4799 106.372L91.8959 105.048C91.8959 105.008 91.8119 104.996 91.7479 105.016L91.4279 105.116C91.3679 105.136 91.3279 105.184 91.3439 105.224L91.9279 106.548C91.9459 106.568 91.97 106.583 91.9966 106.588C92.0233 106.594 92.051 106.591 92.0759 106.58Z" fill="#FA1239"/>
<path d="M96.836 105.088L97.156 104.988C97.22 104.968 97.26 104.92 97.24 104.88L96.656 103.556C96.656 103.52 96.576 103.504 96.512 103.524L96.192 103.624C96.128 103.624 96.088 103.692 96.108 103.732L96.688 105.056C96.708 105.088 96.772 105.088 96.836 105.088Z" fill="#FA1239"/>
<path d="M89.876 77.0881C89.948 77.3241 90.128 77.4881 90.276 77.4321C90.424 77.3761 90.496 77.156 90.424 76.924C90.352 76.692 90.176 76.524 90.024 76.58C89.872 76.636 89.808 76.8441 89.876 77.0881Z" fill="#263238"/>
<path d="M92.536 76.2881C92.608 76.5241 92.788 76.6881 92.936 76.6321C93.084 76.5761 93.156 76.3601 93.088 76.1241C93.02 75.8881 92.836 75.7241 92.688 75.7801C92.54 75.8361 92.468 76.0521 92.536 76.2881Z" fill="#263238"/>
<path d="M92.6239 75.812L93.1399 75.48C93.1399 75.48 92.9839 76.008 92.6239 75.812Z" fill="#263238"/>
<path d="M91.8719 76.9C92.2431 77.3733 92.6763 77.7945 93.1599 78.152C93.0634 78.2726 92.942 78.3708 92.8038 78.4398C92.6657 78.5089 92.5143 78.5471 92.3599 78.552L91.8719 76.9Z" fill="#FF5652"/>
<path d="M91.5679 79.848C91.5789 79.8391 91.5871 79.8272 91.5913 79.8137C91.5956 79.8001 91.5958 79.7857 91.5919 79.772C91.5863 79.754 91.5742 79.7386 91.5579 79.729C91.5417 79.7194 91.5224 79.7162 91.5039 79.72C91.2134 79.8149 90.9044 79.8394 90.6026 79.7914C90.3008 79.7434 90.0146 79.6243 89.7679 79.444C89.7605 79.4377 89.752 79.4329 89.7428 79.4299C89.7336 79.4269 89.7239 79.4257 89.7142 79.4265C89.7046 79.4272 89.6951 79.4299 89.6865 79.4343C89.6779 79.4386 89.6702 79.4447 89.6639 79.452C89.6576 79.4594 89.6528 79.4679 89.6498 79.4771C89.6468 79.4863 89.6456 79.496 89.6463 79.5057C89.6471 79.5153 89.6497 79.5248 89.6541 79.5334C89.6585 79.542 89.6645 79.5497 89.6719 79.556C89.9372 79.7521 90.2454 79.8819 90.5711 79.9348C90.8967 79.9877 91.2302 79.962 91.5439 79.86L91.5679 79.848Z" fill="#263238"/>
<path d="M88.872 76.4361C88.8906 76.4185 88.9044 76.3965 88.912 76.3721C88.9714 76.2013 89.07 76.0468 89.1999 75.9211C89.3298 75.7954 89.4874 75.7018 89.66 75.6481C89.6801 75.646 89.6995 75.6396 89.717 75.6295C89.7345 75.6194 89.7497 75.6058 89.7616 75.5894C89.7734 75.5731 89.7817 75.5544 89.7859 75.5346C89.7901 75.5149 89.7901 75.4944 89.7858 75.4747C89.7816 75.4549 89.7732 75.4363 89.7613 75.4199C89.7494 75.4036 89.7342 75.39 89.7167 75.3799C89.6991 75.3699 89.6797 75.3636 89.6596 75.3616C89.6395 75.3595 89.6192 75.3617 89.6 75.3681C89.3776 75.4317 89.1742 75.5488 89.0076 75.7092C88.8409 75.8695 88.7161 76.0683 88.644 76.2881C88.6369 76.3059 88.6335 76.325 88.6339 76.3441C88.6344 76.3633 88.6386 76.3822 88.6464 76.3997C88.6543 76.4172 88.6655 76.433 88.6795 76.4461C88.6935 76.4592 88.71 76.4694 88.728 76.4761C88.7534 76.4813 88.7798 76.4804 88.8048 76.4734C88.8298 76.4665 88.8529 76.4537 88.872 76.4361Z" fill="#263238"/>
<path d="M93.3478 74.78C93.3465 74.7707 93.3465 74.7613 93.3478 74.752C93.3528 74.7146 93.3437 74.6767 93.3222 74.6456C93.3008 74.6146 93.2686 74.5926 93.2318 74.584C93.0077 74.5363 92.7755 74.5426 92.5543 74.6024C92.3331 74.6623 92.1294 74.7738 91.9598 74.928C91.9333 74.9556 91.9188 74.9926 91.9196 75.0308C91.9203 75.0691 91.9363 75.1055 91.9638 75.132C91.9914 75.1585 92.0284 75.173 92.0667 75.1722C92.1049 75.1715 92.1413 75.1556 92.1678 75.128C92.3033 75.008 92.4653 74.9219 92.6405 74.8767C92.8158 74.8315 92.9992 74.8285 93.1758 74.868C93.2103 74.8764 93.2466 74.8721 93.2782 74.8559C93.3097 74.8398 93.3345 74.8128 93.3478 74.78Z" fill="#263238"/>
<path d="M101.132 87.032C101.608 87.388 102.008 87.72 102.424 88.08C102.84 88.44 103.224 88.8 103.624 89.176C104.404 89.928 105.156 90.712 105.868 91.536C106.588 92.3646 107.256 93.2369 107.868 94.148C108.028 94.372 108.168 94.616 108.316 94.848C108.464 95.08 108.612 95.316 108.744 95.564C108.876 95.812 109.016 96.032 109.144 96.308L109.356 96.752L109.528 97.2C109.897 98.3359 110.07 99.5261 110.04 100.72C110.016 101.829 109.897 102.935 109.684 104.024C109.476 105.092 109.204 106.136 108.884 107.16C108.561 108.186 108.185 109.194 107.756 110.18L106.308 109.644C106.556 108.684 106.792 107.676 106.968 106.68C107.163 105.694 107.306 104.698 107.396 103.696C107.492 102.726 107.515 101.75 107.464 100.776C107.435 100.314 107.379 99.8549 107.296 99.4C107.208 98.9801 107.086 98.5681 106.932 98.168L106.808 97.892L106.672 97.64C106.564 97.456 106.416 97.24 106.272 97.036C106.128 96.832 106.008 96.636 105.872 96.432C105.736 96.228 105.596 96.032 105.444 95.84C104.86 95.04 104.2 94.312 103.544 93.572C102.888 92.832 102.168 92.136 101.436 91.456C101.076 91.112 100.704 90.776 100.332 90.448C99.9599 90.12 99.5599 89.792 99.2159 89.512L101.132 87.032Z" fill="#FF8B7B"/>
<path d="M106.768 108.688L104.576 110.288L107.376 111.768C107.376 111.768 108.212 110.288 107.944 109.052L106.768 108.688Z" fill="#FF8B7B"/>
<path d="M103.884 112.884L106.176 113.592L107.396 111.776L104.576 110.296L103.884 112.884Z" fill="#FF8B7B"/>
<path d="M99.34 84.2081C100.872 84.1401 103.884 87.9041 103.884 87.9041L100.756 92.3281C100.756 92.3281 97.244 89.5281 96.972 87.5801C96.744 85.9201 97.388 84.2881 99.34 84.2081Z" fill="#FA1239"/>
<path opacity="0.6" d="M99.34 84.2081C100.872 84.1401 103.884 87.9041 103.884 87.9041L100.756 92.3281C100.756 92.3281 97.244 89.5281 96.972 87.5801C96.744 85.9201 97.388 84.2881 99.34 84.2081Z" fill="black"/>
<path d="M126.656 159.28H126.608C126.538 159.271 126.471 159.244 126.415 159.201C126.359 159.158 126.315 159.101 126.288 159.036C126.267 158.998 126.256 158.955 126.256 158.912C126.256 158.869 126.267 158.826 126.288 158.788C126.484 158.452 127.584 158.388 127.708 158.388C127.722 158.388 127.736 158.392 127.748 158.399C127.76 158.406 127.769 158.416 127.776 158.428C127.784 158.44 127.788 158.454 127.788 158.468C127.788 158.482 127.784 158.496 127.776 158.508C127.508 158.804 127.032 159.28 126.656 159.28ZM127.536 158.548C127.096 158.58 126.512 158.684 126.412 158.86C126.401 158.876 126.395 158.895 126.395 158.914C126.395 158.933 126.401 158.952 126.412 158.968C126.429 159.012 126.457 159.05 126.494 159.08C126.53 159.109 126.574 159.129 126.62 159.136C126.832 159.16 127.168 158.94 127.536 158.548Z" fill="#FA1239"/>
<path d="M127.632 158.54C127.264 158.54 126.54 158.336 126.404 158.04C126.382 157.988 126.378 157.929 126.393 157.875C126.407 157.82 126.439 157.771 126.484 157.736C126.526 157.699 126.574 157.671 126.627 157.653C126.68 157.636 126.737 157.63 126.792 157.636C127.228 157.684 127.744 158.392 127.764 158.436C127.771 158.447 127.774 158.459 127.774 158.472C127.774 158.485 127.771 158.497 127.764 158.508C127.758 158.519 127.751 158.528 127.741 158.535C127.731 158.542 127.72 158.546 127.708 158.548L127.632 158.54ZM126.744 157.78C126.684 157.78 126.627 157.803 126.584 157.844C126.516 157.904 126.524 157.952 126.536 157.984C126.624 158.176 127.192 158.384 127.564 158.384C127.38 158.156 127.036 157.796 126.764 157.768L126.744 157.78Z" fill="#FA1239"/>
<path d="M106.712 165.964C106.466 165.982 106.22 165.923 106.008 165.796C105.953 165.756 105.908 165.703 105.876 165.643C105.844 165.583 105.826 165.516 105.824 165.448C105.821 165.41 105.827 165.372 105.844 165.338C105.86 165.303 105.885 165.274 105.916 165.252C106.244 165.032 107.472 165.588 107.716 165.704C107.73 165.71 107.741 165.72 107.748 165.733C107.755 165.746 107.758 165.761 107.756 165.776C107.755 165.791 107.748 165.806 107.738 165.817C107.728 165.829 107.715 165.837 107.7 165.84C107.376 165.914 107.045 165.956 106.712 165.964ZM106.14 165.34C106.09 165.337 106.04 165.349 105.996 165.372C105.986 165.38 105.978 165.39 105.973 165.402C105.968 165.414 105.966 165.427 105.968 165.44C105.969 165.487 105.982 165.533 106.004 165.575C106.026 165.617 106.058 165.653 106.096 165.68C106.308 165.84 106.808 165.864 107.452 165.744C107.038 165.542 106.596 165.405 106.14 165.34Z" fill="#FA1239"/>
<path d="M107.684 165.84H107.66C107.26 165.672 106.428 165.012 106.46 164.672C106.46 164.6 106.52 164.504 106.704 164.484C107.424 164.396 107.728 165.684 107.74 165.756C107.743 165.769 107.742 165.783 107.738 165.795C107.733 165.808 107.726 165.819 107.716 165.828C107.707 165.835 107.696 165.839 107.684 165.84ZM106.8 164.62H106.752C106.676 164.62 106.636 164.652 106.628 164.688C106.604 164.884 107.172 165.408 107.588 165.636C107.48 165.32 107.22 164.62 106.8 164.62Z" fill="#FA1239"/>
<path d="M89.964 76.6041L90.48 76.2721C90.48 76.2721 90.324 76.8001 89.964 76.6041Z" fill="#263238"/>
<path d="M165.452 47.3561H107.32C106.699 47.3518 106.084 47.4749 105.512 47.7175C104.94 47.9602 104.424 48.3175 103.996 48.7672C103.567 49.2169 103.236 49.7496 103.021 50.3325C102.806 50.9153 102.714 51.5359 102.748 52.1561L108.2 165.184C108.278 166.472 108.84 167.682 109.773 168.573C110.706 169.463 111.942 169.967 113.232 169.984H171.364C171.985 169.988 172.6 169.865 173.172 169.623C173.743 169.38 174.259 169.023 174.687 168.573C175.115 168.123 175.446 167.59 175.66 167.007C175.875 166.425 175.967 165.804 175.932 165.184L170.484 52.1561C170.406 50.8684 169.844 49.6579 168.911 48.7675C167.978 47.8772 166.742 47.3729 165.452 47.3561Z" fill="black"/>
<path d="M167.6 47.3561H109.452C108.831 47.3518 108.216 47.4748 107.644 47.7176C107.073 47.9603 106.557 48.3176 106.129 48.7674C105.701 49.2172 105.369 49.7499 105.155 50.3328C104.941 50.9156 104.849 51.5361 104.884 52.1561L110.332 165.184C110.409 166.472 110.971 167.682 111.905 168.573C112.838 169.463 114.074 169.967 115.364 169.984H173.496C174.117 169.988 174.732 169.865 175.303 169.623C175.875 169.38 176.391 169.023 176.819 168.573C177.247 168.123 177.578 167.59 177.792 167.007C178.006 166.425 178.099 165.804 178.064 165.184L172.616 52.1561C172.538 50.8712 171.979 49.6629 171.049 48.7729C170.118 47.8829 168.887 47.3769 167.6 47.3561Z" fill="#263238"/>
<path d="M115.2 166.784C114.772 166.773 114.363 166.603 114.053 166.308C113.743 166.012 113.554 165.611 113.524 165.184L108.084 52.156C108.074 51.9497 108.106 51.7436 108.178 51.5501C108.251 51.3566 108.361 51.1797 108.504 51.0302C108.646 50.8806 108.817 50.7615 109.007 50.68C109.197 50.5985 109.401 50.5563 109.608 50.556H167.74C168.168 50.5651 168.578 50.7343 168.889 51.0304C169.199 51.3266 169.387 51.7281 169.416 52.156L174.864 165.184C174.873 165.39 174.841 165.596 174.769 165.789C174.698 165.982 174.587 166.159 174.445 166.308C174.303 166.458 174.132 166.577 173.943 166.659C173.754 166.741 173.55 166.783 173.344 166.784H115.2Z" fill="#FA1239"/>
<path opacity="0.1" d="M115.172 165.984C114.958 165.977 114.754 165.892 114.599 165.744C114.445 165.597 114.349 165.397 114.332 165.184L108.884 52.1561C108.88 52.0534 108.897 51.9509 108.933 51.8548C108.97 51.7587 109.025 51.6708 109.096 51.5963C109.166 51.5218 109.251 51.4621 109.345 51.4209C109.44 51.3796 109.541 51.3576 109.644 51.3561H167.776C167.99 51.3623 168.194 51.4475 168.349 51.5952C168.504 51.7428 168.599 51.9426 168.616 52.1561L174.064 165.184C174.068 165.287 174.051 165.389 174.014 165.485C173.978 165.581 173.923 165.669 173.852 165.744C173.781 165.818 173.696 165.878 173.602 165.919C173.508 165.96 173.407 165.983 173.304 165.984H115.172Z" fill="black"/>
<g opacity="0.3">
<path d="M132.716 159.488H121.2C120.884 159.485 120.581 159.361 120.352 159.143C120.123 158.925 119.986 158.628 119.968 158.312L119.128 140.828C119.117 140.674 119.139 140.519 119.191 140.373C119.243 140.227 119.325 140.093 119.432 139.981C119.538 139.868 119.666 139.779 119.809 139.718C119.951 139.657 120.105 139.627 120.26 139.628H131.796C132.111 139.631 132.414 139.753 132.642 139.971C132.87 140.189 133.006 140.485 133.024 140.8L133.852 158.288C133.862 158.443 133.839 158.598 133.787 158.744C133.734 158.89 133.652 159.023 133.545 159.136C133.439 159.248 133.31 159.338 133.167 159.398C133.024 159.459 132.871 159.49 132.716 159.488ZM120.244 140.036C120.144 140.036 120.045 140.055 119.953 140.094C119.861 140.132 119.777 140.189 119.708 140.26C119.64 140.334 119.587 140.42 119.553 140.514C119.518 140.608 119.503 140.708 119.508 140.808L120.352 158.288C120.363 158.502 120.455 158.704 120.61 158.853C120.764 159.001 120.969 159.085 121.184 159.088H132.716C132.816 159.089 132.915 159.069 133.008 159.03C133.1 158.99 133.183 158.933 133.252 158.86C133.321 158.787 133.374 158.701 133.409 158.607C133.443 158.512 133.458 158.412 133.452 158.312L132.608 140.828C132.598 140.614 132.506 140.413 132.352 140.264C132.198 140.115 131.994 140.031 131.78 140.028L120.244 140.036Z" fill="#FAFAFA"/>
<path d="M131.628 144.096H120.8C120.747 144.096 120.696 144.075 120.658 144.037C120.621 144 120.6 143.949 120.6 143.896C120.6 143.843 120.621 143.792 120.658 143.755C120.696 143.717 120.747 143.696 120.8 143.696H131.64C131.693 143.696 131.744 143.717 131.781 143.755C131.819 143.792 131.84 143.843 131.84 143.896C131.84 143.949 131.819 144 131.781 144.037C131.744 144.075 131.693 144.096 131.64 144.096H131.628Z" fill="#FAFAFA"/>
<path d="M131.74 146.356H120.896C120.843 146.355 120.793 146.334 120.755 146.296C120.718 146.259 120.697 146.209 120.696 146.156C120.696 146.103 120.717 146.052 120.754 146.015C120.792 145.977 120.843 145.956 120.896 145.956H131.74C131.793 145.956 131.843 145.977 131.881 146.015C131.918 146.052 131.94 146.103 131.94 146.156C131.939 146.209 131.917 146.259 131.88 146.296C131.843 146.334 131.792 146.355 131.74 146.356Z" fill="#FAFAFA"/>
<path d="M131.848 148.616H121.004C120.951 148.615 120.901 148.594 120.863 148.556C120.826 148.519 120.805 148.469 120.804 148.416C120.804 148.363 120.825 148.312 120.862 148.275C120.9 148.237 120.951 148.216 121.004 148.216H131.848C131.901 148.216 131.952 148.237 131.989 148.275C132.027 148.312 132.048 148.363 132.048 148.416C132.048 148.469 132.027 148.52 131.989 148.557C131.952 148.595 131.901 148.616 131.848 148.616Z" fill="#FAFAFA"/>
<path d="M131.956 150.876H121.116C121.063 150.876 121.012 150.855 120.974 150.817C120.937 150.78 120.916 150.729 120.916 150.676C120.916 150.623 120.937 150.572 120.974 150.535C121.012 150.497 121.063 150.476 121.116 150.476H131.956C132.009 150.476 132.06 150.497 132.097 150.535C132.135 150.572 132.156 150.623 132.156 150.676C132.156 150.729 132.135 150.78 132.097 150.817C132.06 150.855 132.009 150.876 131.956 150.876Z" fill="#FAFAFA"/>
<path d="M132.064 153.136H121.224C121.171 153.136 121.12 153.115 121.082 153.078C121.045 153.04 121.024 152.989 121.024 152.936C121.024 152.883 121.045 152.832 121.082 152.795C121.12 152.757 121.171 152.736 121.224 152.736H132.064C132.117 152.736 132.168 152.757 132.205 152.795C132.243 152.832 132.264 152.883 132.264 152.936C132.264 152.989 132.243 153.04 132.205 153.078C132.168 153.115 132.117 153.136 132.064 153.136Z" fill="#FAFAFA"/>
<path d="M129.952 155.396H121.332C121.279 155.396 121.228 155.375 121.19 155.338C121.153 155.3 121.132 155.249 121.132 155.196C121.132 155.143 121.153 155.092 121.19 155.055C121.228 155.017 121.279 154.996 121.332 154.996H129.952C130.005 154.996 130.056 155.017 130.093 155.055C130.131 155.092 130.152 155.143 130.152 155.196C130.151 155.249 130.129 155.299 130.092 155.336C130.055 155.374 130.004 155.395 129.952 155.396Z" fill="#FAFAFA"/>
</g>
<g opacity="0.3">
<path d="M139.976 95.3401L132.068 96.6041C131.763 95.8515 131.359 95.1427 130.868 94.4961C130.394 93.9992 129.835 93.5926 129.216 93.2961L129.512 99.4961C133.909 100.653 136.868 101.875 138.388 103.16C139.357 103.968 140.143 104.972 140.695 106.106C141.247 107.241 141.551 108.479 141.588 109.74C141.694 111.216 141.422 112.694 140.8 114.036C140.207 115.288 139.355 116.399 138.3 117.296C137.317 118.138 136.18 118.782 134.952 119.192C133.51 119.625 132.017 119.86 130.512 119.888L130.564 120.98C130.576 121.182 130.546 121.385 130.477 121.575C130.407 121.765 130.299 121.939 130.16 122.086C130.02 122.232 129.852 122.349 129.665 122.428C129.479 122.506 129.278 122.546 129.076 122.544C128.655 122.54 128.252 122.376 127.947 122.085C127.643 121.795 127.46 121.4 127.436 120.98L127.384 119.888C125.628 119.775 123.895 119.434 122.228 118.872C120.951 118.411 119.77 117.718 118.744 116.828C117.807 116.029 117.015 115.075 116.4 114.008C115.783 112.861 115.335 111.631 115.068 110.356L123.672 109.352C123.997 110.763 124.397 111.783 124.872 112.412C125.468 113.143 126.234 113.717 127.104 114.084L126.74 106.516C124.609 105.986 122.523 105.29 120.5 104.436C119.191 103.783 118.066 102.814 117.228 101.616C116.248 100.231 115.706 98.5843 115.672 96.8881C115.579 95.7177 115.742 94.5411 116.149 93.4401C116.557 92.339 117.199 91.3399 118.032 90.5121C119.728 88.8027 122.328 87.8561 125.832 87.6721L125.804 87.1161C125.792 86.914 125.821 86.7115 125.891 86.5213C125.96 86.3312 126.068 86.1573 126.208 86.0106C126.347 85.8639 126.516 85.7475 126.702 85.6686C126.889 85.5897 127.089 85.5501 127.292 85.5521C127.712 85.5564 128.116 85.7204 128.42 86.0107C128.725 86.301 128.907 86.6961 128.932 87.1161L128.96 87.6721C132.16 87.8721 134.641 88.6294 136.404 89.9441C138.177 91.2811 139.438 93.1857 139.976 95.3401ZM126.096 93.2001C125.383 93.3829 124.739 93.7709 124.244 94.3161C123.907 94.768 123.744 95.3259 123.784 95.8881C123.805 96.4911 124.024 97.0703 124.408 97.5361C124.942 98.0964 125.618 98.5015 126.364 98.7081L126.096 93.2001ZM130.244 114.288C131.444 114.021 132.31 113.573 132.844 112.944C133.1 112.661 133.297 112.33 133.425 111.97C133.553 111.611 133.608 111.229 133.588 110.848C133.547 110.154 133.264 109.495 132.788 108.988C132.284 108.424 131.324 107.896 129.916 107.412L130.244 114.288Z" fill="#FAFAFA"/>
</g>
<path opacity="0.2" d="M160.88 62.1121H121.28L125.14 142.156C125.328 145.435 126.755 148.521 129.131 150.788C131.507 153.056 134.655 154.337 137.94 154.372H177.54L173.684 74.3281C173.497 71.0475 172.071 67.9605 169.693 65.6923C167.316 63.4241 164.165 62.1443 160.88 62.1121Z" fill="black"/>
<path d="M170.58 62.1121H121.292C124.576 62.1463 127.725 63.4269 130.102 65.6948C132.478 67.9627 133.904 71.0486 134.092 74.3281L137.24 139.488C137.428 142.767 138.855 145.853 141.231 148.12C143.607 150.388 146.755 151.669 150.04 151.704H174.892C176.474 151.721 178.043 151.411 179.5 150.796C180.958 150.18 182.274 149.271 183.365 148.125C184.456 146.979 185.3 145.621 185.844 144.135C186.389 142.65 186.621 141.068 186.528 139.488L183.384 74.3281C183.197 71.0475 181.771 67.9605 179.393 65.6923C177.016 63.4241 173.865 62.1443 170.58 62.1121Z" fill="#FAFAFA"/>
<path d="M161.672 139.488C161.766 141.067 161.534 142.648 160.991 144.133C160.448 145.619 159.605 146.976 158.514 148.122C157.424 149.268 156.11 150.177 154.654 150.793C153.197 151.409 151.629 151.719 150.048 151.704H199.332C200.913 151.719 202.481 151.409 203.938 150.793C205.395 150.177 206.709 149.268 207.8 148.122C208.89 146.977 209.734 145.619 210.277 144.134C210.821 142.648 211.053 141.067 210.96 139.488H161.672Z" fill="#E6E6E6"/>
<path d="M177.52 102.556H142.688C142.444 102.553 142.21 102.458 142.033 102.29C141.856 102.121 141.75 101.892 141.736 101.648C141.729 101.531 141.747 101.414 141.787 101.303C141.828 101.193 141.891 101.092 141.971 101.007C142.052 100.922 142.15 100.855 142.258 100.809C142.366 100.763 142.482 100.739 142.6 100.74H177.432C177.679 100.739 177.917 100.832 178.097 101.001C178.277 101.17 178.386 101.402 178.4 101.648C178.407 101.767 178.389 101.885 178.347 101.997C178.306 102.108 178.241 102.21 178.159 102.295C178.076 102.38 177.977 102.447 177.867 102.492C177.757 102.537 177.639 102.559 177.52 102.556Z" fill="#FA1239"/>
<path d="M177.792 108.224H142.96C142.716 108.221 142.481 108.126 142.305 107.958C142.128 107.789 142.022 107.56 142.008 107.316C142.001 107.199 142.019 107.082 142.059 106.971C142.1 106.861 142.162 106.76 142.243 106.675C142.324 106.59 142.422 106.523 142.53 106.477C142.638 106.431 142.754 106.407 142.872 106.408H177.708C177.951 106.412 178.184 106.507 178.36 106.676C178.536 106.844 178.642 107.073 178.656 107.316C178.662 107.433 178.645 107.551 178.604 107.661C178.564 107.771 178.501 107.872 178.42 107.957C178.339 108.042 178.242 108.11 178.134 108.156C178.025 108.202 177.909 108.225 177.792 108.224Z" fill="#FA1239"/>
<path d="M178.068 113.888H143.232C142.988 113.885 142.754 113.79 142.577 113.622C142.4 113.453 142.294 113.224 142.28 112.98C142.273 112.863 142.291 112.745 142.331 112.635C142.372 112.525 142.434 112.424 142.515 112.339C142.596 112.254 142.694 112.187 142.802 112.141C142.91 112.095 143.026 112.071 143.144 112.072H178C178.244 112.075 178.478 112.17 178.655 112.338C178.831 112.507 178.938 112.736 178.952 112.98C178.958 113.099 178.94 113.218 178.899 113.33C178.857 113.441 178.792 113.543 178.709 113.628C178.626 113.714 178.526 113.781 178.416 113.826C178.305 113.87 178.187 113.892 178.068 113.888Z" fill="#FA1239"/>
<path d="M178.34 119.564H143.508C143.264 119.561 143.03 119.465 142.854 119.297C142.677 119.128 142.571 118.9 142.556 118.656C142.549 118.539 142.567 118.421 142.607 118.311C142.648 118.201 142.71 118.1 142.791 118.015C142.872 117.93 142.97 117.863 143.078 117.817C143.186 117.771 143.302 117.747 143.42 117.748H178.252C178.496 117.751 178.73 117.846 178.907 118.014C179.083 118.183 179.19 118.412 179.204 118.656C179.21 118.773 179.193 118.891 179.152 119.001C179.112 119.111 179.049 119.212 178.968 119.297C178.887 119.382 178.79 119.45 178.682 119.496C178.574 119.541 178.457 119.565 178.34 119.564Z" fill="#FA1239"/>
<path d="M164.764 125.232H143.78C143.536 125.229 143.302 125.134 143.125 124.966C142.948 124.797 142.842 124.568 142.828 124.324C142.821 124.207 142.839 124.089 142.879 123.979C142.92 123.869 142.983 123.768 143.064 123.683C143.144 123.598 143.242 123.531 143.35 123.485C143.458 123.439 143.574 123.415 143.692 123.416H164.676C164.92 123.419 165.154 123.514 165.331 123.682C165.508 123.851 165.614 124.08 165.628 124.324C165.634 124.441 165.617 124.559 165.576 124.669C165.536 124.779 165.473 124.88 165.392 124.965C165.311 125.05 165.214 125.118 165.106 125.163C164.998 125.209 164.881 125.233 164.764 125.232Z" fill="#FA1239"/>
<path d="M167.184 90.8071C171.306 86.5848 171.055 79.6554 166.624 75.3299C162.193 71.0044 155.26 70.9207 151.138 75.1431C147.016 79.3654 147.267 86.2947 151.698 90.6202C156.129 94.9458 163.062 95.0294 167.184 90.8071Z" fill="#FA1239"/>
<path d="M168.192 82.9681C168.267 84.4545 167.963 85.9357 167.308 87.2721C166.597 88.705 165.497 89.9086 164.134 90.7449C162.77 91.5811 161.199 92.0162 159.6 92.0001C157.945 91.9876 156.322 91.5452 154.89 90.7163C153.458 89.8875 152.266 88.7006 151.432 87.2721C150.653 85.9654 150.206 84.4875 150.132 82.9681C150.062 81.8007 150.234 80.6317 150.636 79.5335C151.038 78.4353 151.661 77.4315 152.467 76.5844C153.273 75.7373 154.245 75.0651 155.322 74.6095C156.399 74.1539 157.558 73.9247 158.728 73.9361C161.155 73.9662 163.48 74.9146 165.236 76.5905C166.992 78.2663 168.048 80.545 168.192 82.9681Z" fill="white"/>
<path opacity="0.4" d="M167.308 87.2721C166.597 88.705 165.497 89.9086 164.134 90.7449C162.771 91.5811 161.199 92.0162 159.6 92.0001C157.945 91.9876 156.322 91.5452 154.89 90.7164C153.459 89.8875 152.267 88.7006 151.432 87.2721C153.734 85.6925 156.464 84.855 159.256 84.8721C162.115 84.8774 164.912 85.711 167.308 87.2721Z" fill="#FA1239"/>
<path opacity="0.4" d="M161.957 82.7511C163.472 81.1988 163.381 78.6518 161.753 77.0624C160.125 75.4729 157.576 75.4428 156.061 76.9951C154.545 78.5475 154.637 81.0944 156.265 82.6839C157.893 84.2734 160.442 84.3035 161.957 82.7511Z" fill="#FA1239"/>
<path d="M192.704 166.984H189.768L189.472 160.176H192.412L192.704 166.984Z" fill="#B55B52"/>
<path opacity="0.2" d="M189.476 160.18L189.624 163.688H192.564L192.412 160.18H189.476Z" fill="black"/>
<path d="M217.716 159.008L214.924 159.92L211.408 153.908L214.204 152.996L217.716 159.008Z" fill="#B55B52"/>
<path opacity="0.2" d="M214.204 152.996L211.408 153.908L213.224 157.008L216.016 156.096L214.204 152.996Z" fill="black"/>
<path d="M202.64 68.656C203.004 69.1 203.312 69.496 203.628 69.932C203.944 70.368 204.244 70.784 204.544 71.216C205.136 72.084 205.704 72.972 206.236 73.888C207.343 75.7464 208.246 77.7193 208.928 79.772L208.996 79.972L209.028 80.076L209.072 80.24L209.152 80.568L209.196 80.868C209.243 81.2273 209.258 81.5901 209.24 81.952C209.203 82.5623 209.115 83.1684 208.976 83.764C208.723 84.8311 208.387 85.8769 207.972 86.892C207.181 88.838 206.223 90.7116 205.108 92.492L203.108 91.536C203.708 89.66 204.308 87.74 204.748 85.872C204.977 84.9715 205.151 84.0578 205.268 83.136C205.317 82.738 205.332 82.3365 205.312 81.936C205.306 81.7933 205.287 81.6514 205.256 81.512L205.236 81.44C205.229 81.4271 205.222 81.4137 205.216 81.4L205.184 81.324L205.12 81.168L204.852 80.54L204.552 79.916C204.352 79.516 204.132 79.084 203.912 78.668C203.456 77.844 202.964 77.024 202.452 76.208C201.94 75.392 201.396 74.608 200.852 73.808C200.308 73.008 199.712 72.208 199.172 71.484L202.64 68.656Z" fill="#B55B52"/>
<path d="M203.292 91.0399L202.144 93.5799H205.428C205.428 93.5799 205.952 91.6519 204.76 90.8719L203.292 91.0399Z" fill="#B55B52"/>
<path d="M202.528 96.436L205.576 95.848L205.428 93.58H202.144L202.528 96.436Z" fill="#B55B52"/>
<path d="M188.088 55.7639C188.088 56.0039 187.964 56.1959 187.808 56.1959C187.652 56.1959 187.528 56.0039 187.528 55.7639C187.528 55.5239 187.656 55.3359 187.808 55.3359C187.96 55.3359 188.088 55.5279 188.088 55.7639Z" fill="#263238"/>
<path d="M188 56.1959C187.718 56.9197 187.337 57.6008 186.868 58.2199C187.03 58.3359 187.215 58.4152 187.41 58.4525C187.606 58.4898 187.807 58.4842 188 58.4359V56.1959Z" fill="#A02724"/>
<path d="M188.928 54.4519C188.899 54.4523 188.871 54.4424 188.848 54.4239C188.709 54.3191 188.547 54.2482 188.375 54.217C188.204 54.1857 188.027 54.195 187.86 54.2439C187.827 54.253 187.791 54.2494 187.76 54.2337C187.729 54.2181 187.705 54.1915 187.693 54.1591C187.68 54.1267 187.68 54.0909 187.693 54.0585C187.705 54.0262 187.729 53.9996 187.76 53.9839C187.971 53.917 188.194 53.9017 188.412 53.9393C188.63 53.9769 188.836 54.0663 189.012 54.1999C189.042 54.2222 189.061 54.255 189.067 54.2915C189.073 54.328 189.065 54.3654 189.044 54.3959C189.03 54.4134 189.013 54.4275 188.992 54.4372C188.972 54.4469 188.95 54.4519 188.928 54.4519Z" fill="#263238"/>
<path d="M195.74 58.496C195.316 60.648 194.896 64.588 196.4 66.02C196.4 66.02 195.812 68.2 191.82 68.2C187.42 68.2 189.72 66.02 189.72 66.02C192.12 65.448 192.056 63.672 191.636 62L195.74 58.496Z" fill="#B55B52"/>
<path d="M196.976 66.768C197.292 66.08 197.64 65.288 196.92 65.04C196.12 64.768 191.816 64.492 190.324 65.004C190.128 65.0584 189.944 65.1512 189.784 65.2771C189.624 65.403 189.491 65.5594 189.392 65.7373C189.293 65.9153 189.23 66.1111 189.208 66.3134C189.185 66.5158 189.203 66.7206 189.26 66.916L196.976 66.768Z" fill="#263238"/>
<path d="M214.32 160.62C214.104 160.828 213.86 160.996 213.676 160.968C213.618 160.956 213.565 160.927 213.524 160.884C213.483 160.841 213.457 160.787 213.448 160.728C213.436 160.683 213.434 160.635 213.442 160.589C213.45 160.542 213.469 160.498 213.496 160.46C213.736 160.088 214.696 159.928 214.748 159.924C214.761 159.922 214.774 159.924 214.786 159.929C214.798 159.934 214.808 159.942 214.816 159.952C214.824 159.963 214.828 159.976 214.828 159.99C214.828 160.004 214.824 160.017 214.816 160.028C214.672 160.242 214.506 160.441 214.32 160.62ZM213.668 160.468C213.647 160.487 213.628 160.509 213.612 160.532C213.596 160.555 213.585 160.581 213.58 160.609C213.575 160.637 213.577 160.665 213.584 160.692C213.616 160.816 213.676 160.828 213.696 160.828C213.9 160.86 214.336 160.428 214.604 160.092C214.268 160.147 213.949 160.275 213.668 160.468Z" fill="#FA1239"/>
<path d="M214.8 160.04L214.768 160.06C214.436 160.148 213.568 160.092 213.384 159.812C213.357 159.767 213.345 159.715 213.351 159.663C213.356 159.61 213.379 159.562 213.416 159.524C213.45 159.484 213.493 159.45 213.54 159.426C213.587 159.402 213.639 159.388 213.692 159.384C214.132 159.352 214.768 159.916 214.796 159.94C214.806 159.948 214.813 159.959 214.816 159.971C214.82 159.983 214.82 159.996 214.816 160.008C214.815 160.02 214.809 160.032 214.8 160.04ZM213.548 159.592L213.524 159.616C213.468 159.684 213.492 159.72 213.5 159.736C213.608 159.9 214.216 159.992 214.592 159.948C214.344 159.723 214.035 159.576 213.704 159.524C213.648 159.528 213.596 159.552 213.556 159.592H213.548Z" fill="#FA1239"/>
<path d="M188.584 167.132C188.208 167.132 187.844 167.08 187.724 166.912C187.692 166.868 187.674 166.815 187.674 166.76C187.674 166.705 187.692 166.652 187.724 166.608C187.748 166.567 187.779 166.532 187.817 166.503C187.855 166.475 187.898 166.455 187.944 166.444C188.432 166.312 189.46 166.896 189.504 166.924C189.517 166.931 189.527 166.941 189.532 166.954C189.538 166.967 189.54 166.982 189.536 166.996C189.534 167.009 189.528 167.022 189.519 167.032C189.509 167.042 189.497 167.049 189.484 167.052C189.187 167.104 188.886 167.131 188.584 167.132ZM188.12 166.564C188.075 166.558 188.029 166.558 187.984 166.564C187.956 166.569 187.929 166.581 187.906 166.597C187.882 166.614 187.863 166.635 187.848 166.66C187.8 166.748 187.816 166.792 187.848 166.816C187.984 167.004 188.728 167.008 189.272 166.932C188.916 166.736 188.524 166.611 188.12 166.564Z" fill="#FA1239"/>
<path d="M189.472 167.052H189.444C189.092 166.892 188.388 166.252 188.44 165.924C188.44 165.844 188.508 165.748 188.7 165.728C188.771 165.72 188.844 165.726 188.912 165.747C188.981 165.768 189.045 165.802 189.1 165.848C189.472 166.156 189.552 166.948 189.556 166.98C189.556 166.992 189.553 167.004 189.547 167.016C189.542 167.027 189.534 167.036 189.524 167.044C189.516 167.049 189.508 167.052 189.499 167.053C189.49 167.055 189.481 167.054 189.472 167.052ZM188.756 165.852H188.716C188.588 165.852 188.58 165.912 188.58 165.928C188.548 166.128 189.024 166.628 189.38 166.844C189.345 166.508 189.205 166.191 188.98 165.94C188.916 165.889 188.837 165.861 188.756 165.86V165.852Z" fill="#FA1239"/>
<path d="M214.68 159.596L217.08 157.312C217.122 157.271 217.177 157.245 217.235 157.24C217.293 157.235 217.352 157.251 217.4 157.284L219.624 158.772C219.678 158.808 219.723 158.856 219.755 158.912C219.788 158.969 219.807 159.032 219.812 159.096C219.816 159.161 219.806 159.226 219.782 159.286C219.758 159.346 219.72 159.4 219.672 159.444C218.828 160.244 218.376 160.568 217.328 161.568C216.68 162.188 214.752 164.288 213.86 165.144C212.968 166 212.008 165.224 212.296 164.796C213.592 162.872 214.4 161.028 214.472 160.056C214.485 159.883 214.559 159.72 214.68 159.596Z" fill="#263238"/>
<path d="M189.784 166.644H192.984C193.042 166.644 193.098 166.663 193.144 166.7C193.189 166.736 193.22 166.787 193.232 166.844L193.812 169.456C193.827 169.519 193.827 169.584 193.812 169.647C193.798 169.71 193.769 169.768 193.729 169.818C193.688 169.869 193.637 169.909 193.579 169.936C193.52 169.963 193.456 169.977 193.392 169.976C192.232 169.976 190.56 169.892 189.104 169.892C187.404 169.892 185.936 169.984 183.94 169.984C182.74 169.984 182.4 168.764 182.904 168.652C185.2 168.152 187.08 168.096 189.064 166.872C189.278 166.73 189.527 166.651 189.784 166.644Z" fill="#263238"/>
<path d="M185.6 72.688C184.432 74.408 183.228 76.016 181.932 77.604C180.631 79.2114 179.241 80.7445 177.768 82.196L177.2 82.748L177.056 82.884L176.952 82.98L176.8 83.088C176.612 83.2399 176.409 83.3738 176.196 83.488C175.521 83.8442 174.778 84.0528 174.016 84.1C172.854 84.1688 171.687 84.0718 170.552 83.812C168.495 83.3583 166.501 82.6572 164.612 81.724L165.348 79.644C167.221 80.0184 169.115 80.2776 171.02 80.42C171.857 80.4861 172.699 80.4512 173.528 80.316C173.766 80.2804 173.993 80.1915 174.192 80.056C174.212 80.056 174.192 80.032 174.192 80.032L174.224 80L174.34 79.868L174.816 79.348C176.064 77.924 177.276 76.404 178.452 74.852C179.628 73.3 180.808 71.708 181.932 70.156L185.6 72.688Z" fill="#B55B52"/>
<path d="M201.664 66.688C204.416 67.32 207.576 74.828 207.576 74.828L202.044 78.62C200.67 76.6457 199.452 74.5674 198.4 72.404C196.76 68.968 198.848 66.04 201.664 66.688Z" fill="#FA1239"/>
<path opacity="0.3" d="M199.688 71.4879L202.304 78.4519L202.044 78.6319C202.044 78.6319 200.912 77.0319 199.688 74.8999V71.4879Z" fill="black"/>
<path d="M185.2 66.836C185.2 66.836 182.072 70.368 185.028 92.236H200.744C200.852 89.836 199.336 78.052 201.664 66.684C199.926 66.3497 198.167 66.1279 196.4 66.02C194.175 65.8919 191.945 65.8919 189.72 66.02C188.194 66.1737 186.683 66.4466 185.2 66.836Z" fill="#FA1239"/>
<path opacity="0.3" d="M186.944 73.1599C186.535 75.6415 185.463 77.9662 183.84 79.8879C183.776 78.4799 183.752 77.2159 183.756 76.0839L186.944 73.1599Z" fill="black"/>
<path d="M188.3 69.2199C188.7 71.9999 183.204 79.1079 183.204 79.1079L177.696 75.3159C177.696 75.3159 179.224 71.3999 181.796 68.8319C184.736 65.8879 187.88 66.1919 188.3 69.2199Z" fill="#FA1239"/>
<path d="M165.728 79.8879L163.572 77.6599L161.272 80.6239C161.272 80.6239 163.024 82.3159 165.108 81.8239L165.728 79.8879Z" fill="#B55B52"/>
<path d="M160.612 76.4199L159.624 79.5319L161.272 80.6119L163.572 77.6479L160.612 76.4199Z" fill="#B55B52"/>
<path d="M196 55.264C195.82 58.172 195.864 59.888 194.4 61.38C192.188 63.628 188.596 62.296 187.904 59.38C187.276 56.764 187.676 52.444 190.524 51.288C191.151 51.0302 191.834 50.9372 192.508 51.0178C193.181 51.0983 193.823 51.3498 194.371 51.7483C194.92 52.1467 195.358 52.6789 195.643 53.2943C195.928 53.9097 196.051 54.5877 196 55.264Z" fill="#B55B52"/>
<path d="M198.532 49.188C199.428 50.012 199.048 50.932 198.58 51.104C200.032 51.404 200.244 52.56 199.48 55C198.752 57.336 196.988 60.468 194.784 60.66C191.472 60.948 190.504 57.496 190.48 54.072C188.608 54.188 189.416 52.528 187.116 52.912C185.116 53.244 185.868 51.684 184.168 51.004C182.196 50.204 182.592 47.184 184.432 48.052C184.432 48.052 183.58 48.612 184.572 49.14C185.564 49.668 185.468 48.448 187.432 48.3C189.396 48.152 189.624 49.832 191.92 48.82C194.8 47.548 196.692 47.488 198.532 49.188Z" fill="#263238"/>
<path d="M197.428 51.0879C197.559 50.8784 197.753 50.7167 197.983 50.6266C198.213 50.5365 198.466 50.523 198.704 50.5879C199.604 50.7799 199.676 51.1759 200.24 51.1239C200.804 51.0719 200.6 51.6719 200.6 51.6719C200.6 51.6719 200.448 51.2199 199.768 51.4719C199.088 51.7239 198.644 51.1079 198.352 51.3839C198.06 51.6599 197.428 51.0879 197.428 51.0879Z" fill="#263238"/>
<path d="M192.048 56.056C191.92 56.7691 191.558 57.4193 191.02 57.904C190.308 58.536 189.692 58.028 189.668 57.164C189.668 56.384 190 55.112 190.82 54.808C191.64 54.504 192.196 55.192 192.048 56.056Z" fill="#B55B52"/>
<path d="M190.6 92.236C190.6 92.236 193.936 114.688 195.768 123.088C197.768 132.288 211.708 156.768 211.708 156.768L216.828 155.104C216.828 155.104 205.728 133.048 204.584 123.924C203.34 114.024 200.744 92.22 200.744 92.22L190.6 92.236Z" fill="#263238"/>
<path d="M210.276 155.168C210.256 155.168 211.448 156.96 211.448 156.96L217.2 155.088L216.524 153.368L210.276 155.168Z" fill="#FA1239"/>
<path opacity="0.3" d="M192.708 100.236C196.564 100.992 196.156 115.372 195.692 122.768C194.58 117.54 192.952 107.48 191.84 100.34C192.109 100.207 192.415 100.171 192.708 100.236Z" fill="black"/>
<path d="M185.028 92.236C185.028 92.236 184.628 114.208 184.94 123.168C185.272 132.488 188.54 163.008 188.54 163.008H193.52C193.52 163.008 193.7 133.032 193.92 123.88C194.16 113.88 195.364 92.236 195.364 92.236H185.028Z" fill="#263238"/>
<path d="M187.572 161.024C187.548 161.024 187.852 163.092 187.852 163.092H193.908L194.072 161.248L187.572 161.024Z" fill="#FA1239"/>
</svg>
