<svg width="200" height="136" viewBox="0 0 200 136" fill="none" xmlns="http://www.w3.org/2000/svg">
<path d="M200 130.96H0V131.06H200V130.96Z" fill="#E0E0E0"/>
<path d="M151.064 135.196H137.304V135.296H151.064V135.196Z" fill="#E0E0E0"/>
<path d="M44.4161 135.244H36.6721V135.344H44.4161V135.244Z" fill="#E0E0E0"/>
<path d="M100.4 135.012H84.7039V135.112H100.4V135.012Z" fill="#E0E0E0"/>
<path d="M84.3041 133.588H77.2881V133.688H84.3041V133.588Z" fill="#E0E0E0"/>
<path d="M169.824 133.64H148.628V133.74H169.824V133.64Z" fill="#E0E0E0"/>
<path d="M94.8 113.12H17.564C16.9589 113.119 16.379 112.878 15.9516 112.45C15.5241 112.021 15.284 111.441 15.284 110.836V2.264C15.2893 1.66241 15.5317 1.08719 15.9586 0.663287C16.3855 0.239383 16.9624 0.00103056 17.564 0H94.8C95.4057 0 95.9867 0.240635 96.415 0.668968C96.8434 1.0973 97.084 1.67825 97.084 2.284V110.836C97.084 111.442 96.8434 112.023 96.415 112.451C95.9867 112.879 95.4057 113.12 94.8 113.12ZM17.564 0.0800003C16.9855 0.0810599 16.431 0.311626 16.0223 0.721091C15.6135 1.13056 15.384 1.68546 15.384 2.264V110.836C15.384 111.415 15.6135 111.969 16.0223 112.379C16.431 112.788 16.9855 113.019 17.564 113.02H94.8C95.3789 113.019 95.9338 112.789 96.3431 112.379C96.7525 111.97 96.9829 111.415 96.984 110.836V2.264C96.9829 1.68509 96.7525 1.1302 96.3431 0.720847C95.9338 0.311496 95.3789 0.0810577 94.8 0.0800003H17.564Z" fill="#E0E0E0"/>
<path d="M181.324 113.12H104.084C103.479 113.119 102.898 112.878 102.47 112.45C102.042 112.022 101.801 111.441 101.8 110.836V2.264C101.806 1.66205 102.05 1.08683 102.477 0.663037C102.905 0.239243 103.482 0.00101932 104.084 0H181.324C181.925 0.0020818 182.501 0.2409 182.927 0.664691C183.353 1.08848 183.595 1.6631 183.6 2.264V110.836C183.6 111.44 183.36 112.02 182.934 112.448C182.507 112.876 181.928 113.118 181.324 113.12ZM104.084 0.0800003C103.505 0.0810577 102.95 0.311496 102.541 0.720847C102.131 1.1302 101.901 1.68509 101.9 2.264V110.836C101.901 111.415 102.131 111.97 102.541 112.379C102.95 112.789 103.505 113.019 104.084 113.02H181.324C181.903 113.019 182.458 112.789 182.867 112.379C183.276 111.97 183.507 111.415 183.508 110.836V2.264C183.507 1.68509 183.276 1.1302 182.867 0.720847C182.458 0.311496 181.903 0.0810577 181.324 0.0800003H104.084Z" fill="#E0E0E0"/>
<path d="M175.724 80.892C170.804 73.4 175.296 65.348 174.548 57.012C173.8 48.676 165.88 46.86 167.38 39.812C169.116 31.62 164.488 23.76 159.244 23.76C154 23.76 149.376 31.6 151.112 39.8C152.612 46.86 144.712 48.68 143.944 57C143.176 65.32 147.688 73.4 142.764 80.88C137.84 88.36 139.136 98.292 141.908 103.216C142.645 104.523 143.534 105.738 144.556 106.836C146.435 108.853 148.708 110.461 151.236 111.561C153.763 112.661 156.49 113.228 159.246 113.228C162.002 113.228 164.729 112.661 167.256 111.561C169.784 110.461 172.057 108.853 173.936 106.836C174.955 105.736 175.843 104.522 176.58 103.216C179.356 98.304 180.648 88.4 175.724 80.892Z" fill="#E0E0E0"/>
<path d="M159.244 86.576C159.571 86.576 159.894 86.6404 160.196 86.7654C160.498 86.8905 160.772 87.0737 161.003 87.3048C161.234 87.5358 161.418 87.8101 161.543 88.1119C161.668 88.4138 161.732 88.7373 161.732 89.0641V130.96H156.756V89.0641C156.756 88.7373 156.82 88.4138 156.945 88.1119C157.07 87.8101 157.254 87.5358 157.485 87.3048C157.716 87.0737 157.99 86.8905 158.292 86.7654C158.594 86.6404 158.917 86.576 159.244 86.576Z" fill="#F0F0F0"/>
<path d="M127.964 130.96H121.2V89.0681C121.202 88.1702 121.56 87.3096 122.195 86.6747C122.83 86.0398 123.69 85.6822 124.588 85.6801C125.486 85.6822 126.346 86.0398 126.981 86.6747C127.616 87.3096 127.974 88.1702 127.976 89.0681L127.964 130.96Z" fill="#E0E0E0"/>
<path d="M124.576 119.66C136.101 119.66 145.444 110.317 145.444 98.792C145.444 87.2669 136.101 77.924 124.576 77.924C113.051 77.924 103.708 87.2669 103.708 98.792C103.708 110.317 113.051 119.66 124.576 119.66Z" fill="#F0F0F0"/>
<path d="M149.097 92.5301C150.192 88.1221 147.507 83.6611 143.099 82.5661C138.691 81.4711 134.23 84.1569 133.135 88.5649C132.04 92.973 134.725 97.434 139.133 98.529C143.541 99.6239 148.003 96.9382 149.097 92.5301Z" fill="#F0F0F0"/>
<path d="M112.5 86.4597C112.933 83.8062 111.132 81.3047 108.478 80.8726C105.825 80.4404 103.323 82.2412 102.891 84.8948C102.459 87.5483 104.26 90.0498 106.913 90.482C109.567 90.9141 112.068 89.1133 112.5 86.4597Z" fill="#F0F0F0"/>
<path d="M112.992 86.576C114.879 86.576 116.408 85.0466 116.408 83.16C116.408 81.2734 114.879 79.744 112.992 79.744C111.105 79.744 109.576 81.2734 109.576 83.16C109.576 85.0466 111.105 86.576 112.992 86.576Z" fill="#F0F0F0"/>
<path d="M81.6 105.956C78.3551 106.439 75.254 107.623 72.512 109.424C72.488 106.256 71.908 103.252 70.42 100.824C68.156 103.028 66.32 105.884 64.82 108.956C64.272 103.2 62.756 97.6 59.4 94.052C54.372 97.216 51.78 102.488 50.548 108.072C48.5127 104.307 45.5585 101.117 41.96 98.8C38.884 102.04 37.9 106.52 37.984 111.112C34.488 107.04 30.608 103.864 26.824 103.492C25.892 109.928 27.876 116 30.4 120.8C32.0387 123.88 34.4868 126.454 37.4804 128.245C40.4739 130.036 43.8996 130.976 47.388 130.964H63.824C70.828 130.964 77.396 127.228 80.68 121.04C82.7561 117.12 83.7481 112.076 81.6 105.956Z" fill="#E0E0E0"/>
<path d="M76.9041 22.856C78.9321 16.908 77.3041 12.672 72.3561 12.672C69.2441 12.672 65.3841 14.34 61.6241 17.052C61.2001 15.504 60.0041 14.58 58.0801 14.58C54.6921 14.58 50.0241 17.444 46.3641 21.484C45.3336 20.505 43.9694 19.9544 42.5481 19.944C39.3041 19.76 35.3801 21.408 31.9681 24.084C31.7971 23.8447 31.5714 23.6498 31.3097 23.5155C31.0481 23.3812 30.7582 23.3114 30.4641 23.312C28.5961 23.208 26.0641 24.872 24.8121 27.024C24.7361 27.156 24.6681 27.288 24.5961 27.424H77.8881C78.0481 25.544 77.7161 23.976 76.9041 22.856Z" fill="#F0F0F0"/>
<path d="M77.068 58.972C78.06 56.068 77.272 54 74.848 54C73.324 54 71.44 54.8 69.604 56.14C69.5051 55.7667 69.2765 55.4409 68.9591 55.221C68.6417 55.0011 68.2563 54.9014 67.872 54.94C66.22 54.94 63.94 56.34 62.148 58.316C61.6457 57.8362 60.9787 57.5671 60.284 57.564C58.684 57.472 56.784 58.276 55.116 59.584C55.0352 59.4683 54.9282 59.3733 54.8038 59.3066C54.6795 59.2399 54.5411 59.2034 54.4 59.2C53.488 59.148 52.252 59.96 51.64 61.012L51.532 61.204H77.564C77.6729 60.4245 77.4967 59.632 77.068 58.972Z" fill="#F0F0F0"/>
<path d="M137.108 36.9961C136.903 36.9672 136.696 36.9525 136.488 36.9521C136.68 34.0521 135.572 32.1961 133.2 32.1961C131.492 32.1961 129.392 33.1641 127.256 34.8001C127.868 29.1681 125.908 25.5081 121.468 25.5081C117.892 25.5081 113.36 27.9081 108.884 31.7721C108.484 29.5641 107.172 28.2361 104.956 28.2361C101.064 28.2361 95.5321 32.3321 91.0961 38.1081C90.5906 37.442 89.9423 36.8976 89.1989 36.5149C88.4556 36.1321 87.6359 35.9207 86.8001 35.8961C83.0961 35.6361 78.4921 37.9881 74.4001 41.8201C74.2512 41.4969 74.0142 41.2223 73.7164 41.0277C73.4185 40.8332 73.0718 40.7265 72.7161 40.7201C70.6881 40.5761 67.9161 42.6921 66.2721 45.5201H140.368C142.108 41.2321 140.724 37.4801 137.108 36.9961Z" fill="#F0F0F0"/>
</svg>
