<svg width="300" height="200" viewBox="0 0 300 200" fill="none" xmlns="http://www.w3.org/2000/svg">
<path d="M250 156.448H50V156.548H250V156.448Z" fill="#E0E0E0"/>
<path d="M97.8601 160.684H84.3641V160.784H97.8601V160.684Z" fill="#E0E0E0"/>
<path d="M81.4279 160.732H73.4199V160.832H81.4279V160.732Z" fill="#E0E0E0"/>
<path d="M171.248 158.588H133.332V158.688H171.248V158.588Z" fill="#E0E0E0"/>
<path d="M117.112 163.52H105.024V163.62H117.112V163.52Z" fill="#E0E0E0"/>
<path d="M215.468 159.964H184V160.064H215.468V159.964Z" fill="#E0E0E0"/>
<path d="M144.8 138.608H67.564C66.9589 138.607 66.379 138.366 65.9516 137.938C65.5241 137.509 65.284 136.929 65.284 136.324V27.752C65.2893 27.1504 65.5317 26.5752 65.9586 26.1513C66.3855 25.7274 66.9624 25.4891 67.564 25.488H144.8C145.406 25.488 145.987 25.7287 146.415 26.157C146.843 26.5853 147.084 27.1663 147.084 27.772V136.324C147.084 136.93 146.843 137.511 146.415 137.939C145.987 138.367 145.406 138.608 144.8 138.608ZM67.564 25.568C66.9855 25.5691 66.431 25.7997 66.0223 26.2091C65.6135 26.6186 65.384 27.1735 65.384 27.752V136.324C65.384 136.903 65.6135 137.457 66.0223 137.867C66.431 138.276 66.9855 138.507 67.564 138.508H144.8C145.379 138.507 145.934 138.277 146.343 137.867C146.752 137.458 146.983 136.903 146.984 136.324V27.752C146.983 27.1731 146.752 26.6182 146.343 26.2089C145.934 25.7995 145.379 25.5691 144.8 25.568H67.564Z" fill="#E0E0E0"/>
<path d="M231.324 138.608H154.084C153.479 138.607 152.898 138.366 152.47 137.938C152.042 137.51 151.801 136.929 151.8 136.324V27.752C151.806 27.1501 152.05 26.5749 152.477 26.1511C152.905 25.7273 153.482 25.4891 154.084 25.488H231.324C231.925 25.4901 232.501 25.7289 232.927 26.1527C233.353 26.5765 233.595 27.1511 233.6 27.752V136.324C233.6 136.928 233.36 137.508 232.934 137.936C232.507 138.364 231.928 138.606 231.324 138.608ZM154.084 25.568C153.505 25.5691 152.95 25.7995 152.541 26.2089C152.131 26.6182 151.901 27.1731 151.9 27.752V136.324C151.901 136.903 152.131 137.458 152.541 137.867C152.95 138.277 153.505 138.507 154.084 138.508H231.324C231.903 138.507 232.458 138.277 232.867 137.867C233.276 137.458 233.507 136.903 233.508 136.324V27.752C233.507 27.1731 233.276 26.6182 232.867 26.2089C232.458 25.7995 231.903 25.5691 231.324 25.568H154.084Z" fill="#E0E0E0"/>
<path d="M218.488 109.8H208.296V156.448H218.488V109.8Z" fill="#E0E0E0"/>
<path d="M216.552 156.448H218.488V150.94H214.524L216.552 156.448Z" fill="#F0F0F0"/>
<path d="M180.4 109.8H170.208V156.448H180.4V109.8Z" fill="#E0E0E0"/>
<path d="M218.488 109.8H178.708V153.068H218.488V109.8Z" fill="#F0F0F0"/>
<path d="M199.248 131.88V146.184H216.988V131.88H199.248Z" fill="#E0E0E0"/>
<path d="M180.212 131.88V146.184H197.952V131.88H180.212Z" fill="#E0E0E0"/>
<path d="M190.836 133.424H187.324C186.57 133.424 185.824 133.27 185.131 132.971C184.439 132.673 183.814 132.236 183.296 131.688H194.864C194.346 132.236 193.722 132.673 193.029 132.971C192.336 133.27 191.59 133.424 190.836 133.424Z" fill="#F0F0F0"/>
<path d="M210.052 133.424H206.544C205.789 133.424 205.042 133.27 204.349 132.971C203.656 132.673 203.031 132.236 202.512 131.688H214.084C213.565 132.236 212.94 132.672 212.246 132.971C211.553 133.269 210.807 133.423 210.052 133.424Z" fill="#F0F0F0"/>
<path d="M199.248 113.056V127.36H216.988V113.056H199.248Z" fill="#E0E0E0"/>
<path d="M180.208 113.06V127.364H197.948V113.06H180.208Z" fill="#E0E0E0"/>
<path d="M190.836 114.6H187.324C186.57 114.6 185.824 114.446 185.132 114.148C184.44 113.85 183.815 113.415 183.296 112.868H194.864C194.345 113.415 193.721 113.85 193.028 114.148C192.336 114.446 191.59 114.6 190.836 114.6Z" fill="#F0F0F0"/>
<path d="M210.052 114.6H206.544C205.79 114.6 205.043 114.446 204.35 114.148C203.657 113.851 203.031 113.415 202.512 112.868H214.084C213.564 113.415 212.939 113.85 212.246 114.148C211.553 114.445 210.806 114.599 210.052 114.6Z" fill="#F0F0F0"/>
<path d="M180.644 156.448H178.708V150.94H182.676L180.644 156.448Z" fill="#F0F0F0"/>
<path d="M188.548 102.492C188.548 104.276 189.788 105.516 188.004 105.516C186.22 105.516 182.092 104.276 182.092 102.492C182.092 101.636 182.432 100.815 183.037 100.209C183.643 99.6041 184.464 99.264 185.32 99.264C186.176 99.264 186.997 99.6041 187.603 100.209C188.208 100.815 188.548 101.636 188.548 102.492Z" fill="#E0E0E0"/>
<path d="M194.072 104.032C194.072 105.812 195.312 107.056 193.528 107.056C191.744 107.056 187.6 105.812 187.6 104.032C187.6 103.176 187.94 102.355 188.545 101.75C189.151 101.144 189.972 100.804 190.828 100.804C191.684 100.804 192.505 101.144 193.111 101.75C193.716 102.355 194.056 103.176 194.056 104.032H194.072Z" fill="#E0E0E0"/>
<path d="M199.364 103.088C199.364 104.868 200.604 106.112 198.82 106.112C197.036 106.112 192.908 104.868 192.908 103.088C192.908 102.232 193.248 101.411 193.853 100.805C194.459 100.2 195.28 99.86 196.136 99.86C196.992 99.86 197.813 100.2 198.419 100.805C199.024 101.411 199.364 102.232 199.364 103.088Z" fill="#E0E0E0"/>
<path d="M180.116 103.488C180.116 103.488 180.38 109.784 190.496 109.784C200.612 109.784 200.872 103.488 200.872 103.488H180.116Z" fill="#E6E6E6"/>
<path d="M218.912 33.084H167.62V89.844H218.912V33.084Z" fill="#E0E0E0"/>
<path d="M224.4 31.332H164.3C164.233 31.3315 164.167 31.3443 164.104 31.3696C164.042 31.3949 163.986 31.4322 163.938 31.4794C163.891 31.5266 163.853 31.5828 163.827 31.6447C163.801 31.7066 163.788 31.773 163.788 31.84C163.788 31.9758 163.842 32.1061 163.938 32.2021C164.034 32.2981 164.164 32.352 164.3 32.352H224.4C224.467 32.3521 224.534 32.3388 224.595 32.313C224.657 32.2872 224.713 32.2494 224.761 32.2018C224.808 32.1543 224.845 32.0978 224.871 32.0357C224.896 31.9736 224.909 31.9071 224.908 31.84C224.908 31.7053 224.855 31.5761 224.759 31.4808C224.664 31.3856 224.535 31.332 224.4 31.332Z" fill="#E0E0E0"/>
<path d="M221.088 33.084H168.636V89.844H221.088V33.084Z" fill="#E6E6E6"/>
<path d="M218.912 89.844H167.62V93.888H218.912V89.844Z" fill="#E0E0E0"/>
<path d="M224.712 89.844H172.26V93.888H224.712V89.844Z" fill="#E6E6E6"/>
<path d="M218.04 86.7921V36.1281H171.684V86.7921H218.04Z" fill="#F5F5F5"/>
<path d="M182.208 86.7961L200.092 36.1321H208.532L190.648 86.7961H182.208Z" fill="#FAFAFA"/>
<path d="M192.46 86.7961L210.344 36.1321H213.636L195.752 86.7961H192.46Z" fill="#FAFAFA"/>
<path d="M218.04 86.7961V36.1321H217.652V86.7961H218.04Z" fill="#E0E0E0"/>
<path d="M171.72 30.42H166.476V79.308H171.72V30.42Z" fill="#EBEBEB"/>
<path d="M173.76 30.42H169.676V79.308H173.76V30.42Z" fill="#E0E0E0"/>
<path d="M176.964 30.42H171.72V79.308H176.964V30.42Z" fill="#EBEBEB"/>
<path d="M179.004 30.42H174.92V79.308H179.004V30.42Z" fill="#E0E0E0"/>
<path d="M182.208 30.42H176.964V79.308H182.208V30.42Z" fill="#EBEBEB"/>
<path d="M216.088 30.42H213.068V79.308H216.088V30.42Z" fill="#EBEBEB"/>
<path d="M217.268 30.42H214.912V79.308H217.268V30.42Z" fill="#E0E0E0"/>
<path d="M219.108 30.42H216.088V79.308H219.108V30.42Z" fill="#EBEBEB"/>
<path d="M220.288 30.42H217.932V79.308H220.288V30.42Z" fill="#E0E0E0"/>
<path d="M222.132 30.42H219.112V79.308H222.132V30.42Z" fill="#EBEBEB"/>
<path d="M94.148 45.744H88.684V60.652H94.148V45.744Z" fill="#E6E6E6"/>
<path d="M81.2161 64.0641L79.4801 68.8001H81.2161L91.8401 64.0641H81.2161Z" fill="#F0F0F0"/>
<path d="M79.4801 64.0641V68.8001L90.1081 64.0641H79.4801Z" fill="#E0E0E0"/>
<path d="M122.88 64.0641L121.148 68.8001H122.88L133.508 64.0641H122.88Z" fill="#F0F0F0"/>
<path d="M121.148 64.0641V68.8001L131.772 64.0641H121.148Z" fill="#E0E0E0"/>
<path d="M71.6841 64.2881H83.2401V60.6841H71.6841V64.2881Z" fill="#E0E0E0"/>
<path d="M140.688 60.6841H83.236V64.2881H140.688V60.6841Z" fill="#F0F0F0"/>
<path d="M103.248 60.652H89.9479L88.3039 42.584H101.604L103.248 60.652Z" fill="#E0E0E0"/>
<path d="M103.936 60.652H90.64L88.992 42.584H102.292L103.936 60.652Z" fill="#F0F0F0"/>
<path d="M92.456 58.652L91.176 44.584H100.476L101.756 58.652H92.456Z" fill="#FAFAFA"/>
<path d="M109.304 54.7841C109.304 54.7841 109.548 60.6521 118.976 60.6521C128.404 60.6521 128.648 54.7841 128.648 54.7841H109.304Z" fill="#E6E6E6"/>
<path d="M99.504 155.152H84.932C84.602 155.159 84.2787 155.059 84.0096 154.868C83.7405 154.677 83.5399 154.405 83.4373 154.091C83.3347 153.778 83.3355 153.439 83.4397 153.126C83.5439 152.813 83.7459 152.542 84.016 152.352L84.252 152.672C84.06 152.816 83.918 153.016 83.846 153.245C83.7741 153.473 83.7758 153.719 83.8509 153.947C83.9261 154.174 84.0709 154.373 84.2649 154.514C84.4588 154.654 84.6922 154.731 84.932 154.732H99.504C100.397 154.731 101.253 154.376 101.884 153.744C102.516 153.113 102.871 152.257 102.872 151.364V108.24C102.873 107.268 103.259 106.336 103.946 105.649C104.633 104.961 105.564 104.574 106.536 104.572H110.896V104.972H106.536C105.67 104.974 104.841 105.319 104.229 105.932C103.617 106.544 103.273 107.374 103.272 108.24V151.384C103.27 152.383 102.872 153.34 102.166 154.046C101.46 154.752 100.503 155.15 99.504 155.152Z" fill="#E0E0E0"/>
<path d="M148.18 105.396H121.936V156.448H148.18V105.396Z" fill="#E0E0E0"/>
<path d="M149.168 105.396H147.004V156.448H149.168V105.396Z" fill="#EBEBEB"/>
<path d="M97.6519 109.224H149.836V105.396H97.6519V109.224Z" fill="#EBEBEB"/>
<path d="M97.3401 105.396H71.0961V156.448H97.3401V105.396Z" fill="#E0E0E0"/>
<path d="M98.324 105.396H96.16V156.448H98.324V105.396Z" fill="#EBEBEB"/>
<path d="M89.2119 90.156H113.668L117.212 104.596H92.7559L89.2119 90.156Z" fill="#E0E0E0"/>
<path d="M92.756 104.596L92.856 105.396H117.312L117.216 104.596H92.756Z" fill="#E0E0E0"/>
<path d="M89.968 90.156H114.424L117.968 104.596H93.512L89.968 90.156Z" fill="#F0F0F0"/>
<path d="M94.028 103.936L90.808 90.816H113.904L117.124 103.936H94.028Z" fill="#FAFAFA"/>
<path d="M99.884 104.596L99.98 105.396H126.912L126.812 104.596H99.884Z" fill="#F0F0F0"/>
<path d="M80.8279 101.756C80.8279 101.756 77.2279 95.5521 82.2239 90.6121C82.2239 90.6121 83.5239 91.4641 83.5039 92.6121C83.4839 93.7601 82.1119 94.0441 82.4039 95.0121C82.6959 95.9801 84.0039 96.9001 83.1479 97.6881C82.2919 98.4761 83.2839 99.1761 83.2279 100.144C83.1719 101.112 80.8279 101.756 80.8279 101.756Z" fill="#F0F0F0"/>
<path d="M81.0999 102.324C81.0999 102.324 82.5599 95.3 76.2639 92.188C76.2639 92.188 75.2959 93.408 75.6759 94.484C76.0559 95.56 77.4519 95.4 77.4719 96.4C77.4919 97.4 76.5519 98.692 77.6119 99.172C78.6719 99.652 77.9479 100.628 78.3079 101.524C78.6679 102.42 81.0999 102.324 81.0999 102.324Z" fill="#F0F0F0"/>
<path d="M75.6 100.768C75.6 100.768 75.72 105.396 80.308 105.396C84.896 105.396 85.004 100.768 85.004 100.768H75.6Z" fill="#E0E0E0"/>
<path d="M140.296 156.448H139.384L136.772 143.584L136.316 141.332L133.468 127.332H122.552L116.636 156.448H115.724L121.752 126.776C121.772 126.675 121.826 126.584 121.906 126.519C121.985 126.454 122.085 126.419 122.188 126.42H133.832C133.935 126.419 134.035 126.454 134.114 126.519C134.194 126.584 134.248 126.675 134.268 126.776L136.768 139.088L137.228 141.34L140.296 156.448Z" fill="#EBEBEB"/>
<path d="M157.82 156.448H156.904L150.988 127.316H140.076L137.228 141.34L136.772 143.584L134.16 156.448H133.248L136.316 141.332L136.768 139.088L139.272 126.776C139.292 126.675 139.346 126.584 139.426 126.519C139.505 126.454 139.605 126.419 139.708 126.42H151.352C151.455 126.42 151.555 126.455 151.635 126.52C151.716 126.585 151.771 126.675 151.792 126.776L157.82 156.448Z" fill="#EBEBEB"/>
<path d="M130.916 126.868H150.972C152.812 126.866 154.578 126.144 155.892 124.856C157.206 123.567 157.962 121.816 158 119.976L158.748 89.4961C158.759 88.8166 158.634 88.1419 158.382 87.511C158.129 86.8801 157.754 86.3056 157.277 85.8211C156.801 85.3365 156.233 84.9514 155.607 84.6883C154.98 84.4251 154.308 84.2891 153.628 84.2881H141.056C139.798 84.2887 138.583 84.7521 137.644 85.59C136.705 86.4279 136.107 87.5818 135.964 88.8321L130.916 126.868Z" fill="#E6E6E6"/>
<path d="M141.852 126.868H120.48C120.215 126.868 119.96 126.763 119.773 126.575C119.585 126.388 119.48 126.133 119.48 125.868V125.772C119.48 125.043 119.769 124.344 120.285 123.829C120.8 123.314 121.499 123.024 122.228 123.024H141.852V126.868Z" fill="#E6E6E6"/>
<path d="M150 174.512C192.833 174.512 227.556 172.485 227.556 169.984C227.556 167.483 192.833 165.456 150 165.456C107.167 165.456 72.444 167.483 72.444 169.984C72.444 172.485 107.167 174.512 150 174.512Z" fill="#F5F5F5"/>
<path d="M160.576 71.8161L160.836 72.0361C160.932 72.1201 161.04 72.2001 161.144 72.2801C161.352 72.4441 161.544 72.6081 161.784 72.7641C162.216 73.0801 162.676 73.3681 163.136 73.6561C164.064 74.2281 165.037 74.7244 166.044 75.1401C167.048 75.5677 168.081 75.9206 169.136 76.1961C169.4 76.2681 169.672 76.3161 169.936 76.3761L170.336 76.4641C170.42 76.4641 170.336 76.4641 170.336 76.4841C170.282 76.4969 170.23 76.52 170.184 76.5521C170.148 76.5881 170.148 76.5881 170.164 76.5801C170.243 76.4629 170.305 76.3349 170.348 76.2001C170.49 75.7386 170.577 75.262 170.608 74.7801C170.656 74.2561 170.672 73.7041 170.668 73.1481C170.668 72.0321 170.58 70.8921 170.492 69.7481C170.404 68.6041 170.264 67.4561 170.116 66.3041C169.968 65.1521 169.804 64.0001 169.632 62.8641L171.136 62.5201C171.799 64.8032 172.333 67.1214 172.736 69.4641C172.946 70.6555 173.091 71.8572 173.172 73.0641C173.219 73.687 173.234 74.3118 173.216 74.9361C173.211 75.6254 173.123 76.3115 172.956 76.9801C172.843 77.4077 172.659 77.8134 172.412 78.1801C172.239 78.4302 172.024 78.6481 171.776 78.8241C171.492 79.0275 171.165 79.1642 170.82 79.2241C170.524 79.2741 170.221 79.2741 169.924 79.2241L169.464 79.1481C169.156 79.0961 168.844 79.0561 168.54 78.9881C167.314 78.7446 166.11 78.3994 164.94 77.9561C163.771 77.5076 162.641 76.9645 161.56 76.3321C161.02 76.0081 160.492 75.6681 159.98 75.2961C159.724 75.1121 159.472 74.8961 159.22 74.7201C159.096 74.6161 158.972 74.5161 158.848 74.4041C158.724 74.2921 158.608 74.2001 158.448 74.0481L160.576 71.8161Z" fill="#E4897B"/>
<path d="M156.228 69.9961C160.628 69.4001 164.164 72.9481 164.164 72.9481L160.14 79.1561C160.14 79.1561 155.828 76.3961 155.068 74.5161C154.284 72.5601 153.976 70.2881 156.228 69.9961Z" fill="#FA1239"/>
<path opacity="0.6" d="M156.228 69.9961C160.628 69.4001 164.164 72.9481 164.164 72.9481L160.14 79.1561C160.14 79.1561 155.828 76.3961 155.068 74.5161C154.284 72.5601 153.976 70.2881 156.228 69.9961Z" fill="#FAFAFA"/>
<path d="M169.668 63.4041L168.208 60.4761L172.036 60.4441C172.036 60.4441 172.112 62.4881 171.144 63.6441L169.668 63.4041Z" fill="#E4897B"/>
<path d="M168.888 57.3281L171.736 57.8361L172.036 60.4441L168.208 60.4761L168.888 57.3281Z" fill="#E4897B"/>
<path d="M140.668 166.636L144.252 166.98L146.732 158.564L143.148 158.216L140.668 166.636Z" fill="#E4897B"/>
<path d="M117.88 154.188L120.536 156.684L126.272 150.38L123.616 147.884L117.88 154.188Z" fill="#E4897B"/>
<path d="M121.764 155.488L119.764 151.888C119.73 151.826 119.675 151.779 119.609 151.755C119.543 151.73 119.47 151.731 119.404 151.756L116.328 152.924C116.252 152.957 116.184 153.005 116.127 153.066C116.071 153.127 116.028 153.198 116.001 153.277C115.975 153.355 115.965 153.438 115.972 153.521C115.979 153.604 116.004 153.684 116.044 153.756C116.76 154.996 117.172 155.56 118.044 157.14C118.584 158.116 119.644 160.34 120.384 161.692C121.124 163.044 122.496 162.368 122.308 161.744C121.452 158.944 121.616 157.372 121.856 156.144C121.904 155.921 121.872 155.689 121.764 155.488Z" fill="#263238"/>
<path d="M144.672 165.888H140.328C140.251 165.889 140.175 165.915 140.114 165.963C140.052 166.011 140.008 166.077 139.988 166.152L139.04 169.588C139.018 169.669 139.015 169.755 139.031 169.838C139.048 169.92 139.083 169.998 139.135 170.065C139.186 170.132 139.253 170.185 139.329 170.222C139.404 170.259 139.488 170.277 139.572 170.276C141.104 170.276 141.828 170.276 143.74 170.276H149.576C151.176 170.276 151.496 168.676 150.84 168.524C147.896 167.876 146.196 166.976 145.288 166.124C145.12 165.971 144.9 165.886 144.672 165.888Z" fill="#263238"/>
<path d="M146.732 158.564L145.452 162.904H141.764L143.144 158.22L146.732 158.564Z" fill="#CE6F64"/>
<path d="M123.612 147.888L126.272 150.38L123.312 153.628L120.656 151.136L123.612 147.888Z" fill="#CE6F64"/>
<path d="M160.564 67.5121C160.536 64.6041 157.904 63.5881 157.904 63.5881C157.904 63.5881 161.196 57.3561 159.504 53.2201C157.812 49.0841 152.236 48.3561 150.468 50.2881C147.36 50.1561 146.372 54.6201 146.372 54.6201C146.372 54.6201 143.772 55.0561 143.072 56.9481C142.372 58.8401 144.504 60.9721 144.504 60.9721C144.504 60.9721 141.536 61.3721 140.444 63.6561C139.352 65.9401 140.024 68.9721 143.304 71.5881C148.072 75.3881 156.836 70.6201 156.836 70.6201C156.836 70.6201 160.596 70.8561 160.564 67.5121Z" fill="#263238"/>
<path d="M160 70.4041C160 70.4041 161.6 71.1041 156.256 92.2121L141.456 90.9282C142.224 84.9282 142.556 81.2002 140.744 68.5762C142.856 68.3264 144.983 68.2315 147.108 68.2921C149.362 68.3261 151.61 68.5199 153.836 68.8722C155.915 69.2795 157.973 69.7908 160 70.4041Z" fill="#FA1239"/>
<path opacity="0.6" d="M160 70.4041C160 70.4041 161.6 71.1041 156.256 92.2121L141.456 90.9282C142.224 84.9282 142.556 81.2002 140.744 68.5762C142.856 68.3264 144.983 68.2315 147.108 68.2921C149.362 68.3261 151.61 68.5199 153.836 68.8722C155.915 69.2795 157.973 69.7908 160 70.4041Z" fill="#FAFAFA"/>
<path d="M156.164 69.3721C155.396 69.1881 154.564 69.0121 153.804 68.8721C151.578 68.5185 149.33 68.3234 147.076 68.2881C146.304 68.2601 145.532 68.2601 144.808 68.2881L145.304 69.2321C145.392 69.4001 147.504 73.3401 151.516 75.5761L152.62 76.1921L153.648 75.4601C156.24 73.6081 156.624 71.2001 156.164 69.3721Z" fill="#FAFAFA"/>
<path d="M148.4 60.7721C148.636 62.9761 148.716 66.9801 147.08 68.2921C147.08 68.2921 148.952 71.8481 152.496 73.8201C155.632 71.5881 153.808 68.8721 153.808 68.8721C151.444 68.0721 151.66 66.3041 152.208 64.6561L148.4 60.7721Z" fill="#E4897B"/>
<path d="M149.956 62.3561L152.22 64.6561C152.082 65.0383 151.978 65.4318 151.908 65.8321C151 65.6201 149.68 64.6721 149.664 63.6961C149.682 63.2358 149.781 62.7822 149.956 62.3561Z" fill="#CE6F64"/>
<path d="M148.304 55.7721C147.868 59.3721 147.608 60.8961 149.076 63.0601C151.284 66.3081 155.812 66.0521 157.312 62.6601C158.664 59.5961 159.148 54.2121 155.912 52.1521C155.203 51.6955 154.388 51.4275 153.546 51.3736C152.704 51.3198 151.863 51.4818 151.101 51.8443C150.339 52.2068 149.682 52.7579 149.193 53.4452C148.703 54.1326 148.398 54.9335 148.304 55.7721Z" fill="#E4897B"/>
<path d="M151.096 51.3361C153.876 52.0561 151.128 60.5121 146.696 58.0601C146.696 58.0601 146.896 54.4881 148.128 52.9721C148.873 52.0689 149.935 51.4838 151.096 51.3361Z" fill="#263238"/>
<path d="M150.8 51.8041C152 53.7561 160.9 57.4561 157.908 53.2561C154.916 49.0561 150.8 51.8041 150.8 51.8041Z" fill="#263238"/>
<path d="M147.16 58.8881C147.11 59.5894 147.339 60.2822 147.796 60.8161C148.412 61.5161 149.224 61.0921 149.48 60.2441C149.708 59.4841 149.664 58.2041 148.844 57.8121C148.663 57.7323 148.465 57.6985 148.268 57.7136C148.071 57.7287 147.881 57.7924 147.714 57.8989C147.547 58.0054 147.41 58.1514 147.313 58.324C147.216 58.4966 147.164 58.6904 147.16 58.8881Z" fill="#E4897B"/>
<path d="M156.24 92.2121C156.24 92.2121 161.252 114.388 157.908 130.02C155.668 140.492 147.584 161.644 147.584 161.644L141.264 161.484C141.264 161.484 147.38 139.284 148.648 130.556C150.812 115.62 145.392 91.2721 145.392 91.2721L156.24 92.2121Z" fill="#263238"/>
<path d="M150.46 96.6881L147.3 101.672C148.253 107.582 148.856 113.543 149.108 119.524C153.552 111.568 151.448 100.9 150.46 96.6881Z" fill="#263238"/>
<path d="M148.104 161.972L140.296 161.772L140.748 159.376L149.272 159.78L148.104 161.972Z" fill="#FA1239"/>
<path opacity="0.6" d="M148.104 161.972L140.296 161.772L140.748 159.376L149.272 159.78L148.104 161.972Z" fill="#FAFAFA"/>
<path d="M153 91.9721C153 91.9721 150.06 115.492 143.684 128.332C138.536 138.688 124.8 153.488 124.8 153.488L121.288 149.868C121.288 149.868 130.568 133.824 134.396 126.932C143.78 110.04 136.108 97.1521 141.428 90.9321L153 91.9721Z" fill="#263238"/>
<path d="M125.152 153.952L120.616 149.532L122.124 147.484L127.064 152.592L125.152 153.952Z" fill="#FA1239"/>
<path opacity="0.6" d="M125.152 153.952L120.616 149.532L122.124 147.484L127.064 152.592L125.152 153.952Z" fill="#FAFAFA"/>
<path d="M141.276 90.0401L140.496 91.3081C140.432 91.4081 140.548 91.5241 140.716 91.5361L156.256 92.8801C156.392 92.8801 156.508 92.8361 156.524 92.7521L156.772 91.4401C156.772 91.3481 156.68 91.2601 156.532 91.2481L141.528 89.9481C141.482 89.9403 141.434 89.9447 141.39 89.9608C141.346 89.977 141.307 90.0043 141.276 90.0401Z" fill="#FA1239"/>
<path opacity="0.3" d="M141.276 90.0401L140.496 91.3081C140.432 91.4081 140.548 91.5241 140.716 91.5361L156.256 92.8801C156.392 92.8801 156.508 92.8361 156.524 92.7521L156.772 91.4401C156.772 91.3481 156.68 91.2601 156.532 91.2481L141.528 89.9481C141.482 89.9403 141.434 89.9447 141.39 89.9608C141.346 89.977 141.307 90.0043 141.276 90.0401Z" fill="black"/>
<path d="M143.148 91.8881L142.748 91.8521C142.668 91.8521 142.612 91.8001 142.62 91.7481L142.96 90.0441C142.96 89.9921 143.044 89.9561 143.124 89.9641L143.524 90.0001C143.604 90.0001 143.66 90.0521 143.652 90.1041L143.316 91.8081C143.3 91.8641 143.228 91.8881 143.148 91.8881Z" fill="#263238"/>
<path d="M155.116 92.9281L154.716 92.892C154.636 92.892 154.58 92.84 154.588 92.788L154.928 91.08C154.928 91.032 155.012 90.996 155.092 91.004L155.492 91.0401C155.572 91.0401 155.628 91.0921 155.62 91.1401L155.284 92.848C155.268 92.9 155.2 92.9321 155.116 92.9281Z" fill="#263238"/>
<path d="M149.132 92.4081L148.732 92.3761C148.652 92.3761 148.596 92.3201 148.604 92.2721L148.944 90.5641C148.944 90.5161 149.028 90.4801 149.108 90.4881L149.508 90.5201C149.588 90.5201 149.644 90.5761 149.636 90.6241L149.3 92.3321C149.284 92.3801 149.2 92.4161 149.132 92.4081Z" fill="#263238"/>
<path d="M153.532 57.7601C153.48 58.0481 153.592 58.3121 153.78 58.3481C153.968 58.3841 154.18 58.1761 154.22 57.8841C154.26 57.5921 154.164 57.3281 153.972 57.2961C153.78 57.2641 153.6 57.4881 153.532 57.7601Z" fill="#263238"/>
<path d="M156.8 58.3601C156.748 58.6481 156.86 58.9121 157.048 58.9481C157.236 58.9841 157.448 58.7761 157.488 58.4841C157.528 58.1921 157.432 57.9281 157.24 57.8961C157.048 57.8641 156.872 58.0681 156.8 58.3601Z" fill="#263238"/>
<path d="M157.172 57.888L157.904 57.816C157.904 57.816 157.448 58.288 157.172 57.888Z" fill="#263238"/>
<path d="M155.856 58.6881C155.996 59.398 156.232 60.0856 156.556 60.7321C156.388 60.8104 156.205 60.851 156.02 60.851C155.835 60.851 155.652 60.8104 155.484 60.7321L155.856 58.6881Z" fill="#DE5753"/>
<path d="M154.268 61.6921C153.878 61.6317 153.508 61.4784 153.189 61.2452C152.87 61.0121 152.612 60.7058 152.436 60.3521C152.43 60.3346 152.43 60.3152 152.438 60.298C152.445 60.2809 152.459 60.2673 152.476 60.2601C152.485 60.2562 152.494 60.254 152.503 60.2537C152.512 60.2534 152.521 60.255 152.53 60.2583C152.539 60.2617 152.546 60.2668 152.553 60.2733C152.56 60.2798 152.565 60.2876 152.568 60.2961C152.737 60.6258 152.981 60.911 153.28 61.1286C153.58 61.3461 153.927 61.4899 154.292 61.5481C154.311 61.5481 154.33 61.5557 154.343 61.5692C154.357 61.5827 154.364 61.601 154.364 61.6201C154.364 61.6392 154.357 61.6576 154.343 61.6711C154.33 61.6846 154.311 61.6921 154.292 61.6921H154.268Z" fill="#263238"/>
<path d="M152.752 55.4881C152.722 55.4887 152.692 55.4795 152.667 55.4619C152.642 55.4443 152.623 55.4193 152.613 55.3903C152.603 55.3613 152.603 55.33 152.612 55.3008C152.621 55.2717 152.64 55.2462 152.664 55.2281C152.875 55.0584 153.123 54.9418 153.389 54.8882C153.654 54.8346 153.928 54.8455 154.188 54.9201C154.206 54.9264 154.223 54.9361 154.237 54.9488C154.251 54.9614 154.262 54.9767 154.27 54.9938C154.279 55.0109 154.283 55.0295 154.284 55.0484C154.285 55.0673 154.283 55.0862 154.276 55.1041C154.27 55.122 154.26 55.1384 154.248 55.1525C154.235 55.1666 154.22 55.1781 154.202 55.1863C154.185 55.1945 154.167 55.1992 154.148 55.2002C154.129 55.2012 154.11 55.1984 154.092 55.1921C153.878 55.1331 153.652 55.1263 153.434 55.1722C153.216 55.2181 153.013 55.3155 152.84 55.4561C152.815 55.4753 152.784 55.4864 152.752 55.4881Z" fill="#263238"/>
<path d="M158.672 57.2561C158.651 57.256 158.63 57.2513 158.611 57.2423C158.591 57.2334 158.574 57.2203 158.56 57.2041C158.424 57.0279 158.247 56.8864 158.046 56.7912C157.844 56.696 157.623 56.6497 157.4 56.6561C157.362 56.6595 157.324 56.6481 157.294 56.6243C157.265 56.6004 157.245 56.566 157.24 56.5281C157.238 56.5094 157.24 56.4904 157.245 56.4723C157.25 56.4543 157.259 56.4374 157.271 56.4229C157.283 56.4083 157.298 56.3963 157.314 56.3876C157.331 56.3788 157.349 56.3736 157.368 56.3721C157.639 56.3582 157.909 56.4098 158.156 56.5226C158.402 56.6354 158.618 56.8061 158.784 57.0201C158.81 57.0476 158.825 57.0841 158.825 57.1221C158.825 57.1601 158.81 57.1966 158.784 57.2241C158.752 57.2485 158.712 57.2599 158.672 57.2561Z" fill="#263238"/>
<path d="M141.836 73.8882C141.235 75.0818 140.567 76.2409 139.836 77.3602C139.116 78.4642 138.356 79.5442 137.536 80.5842C136.708 81.6279 135.82 82.6228 134.876 83.5642C134.388 84.0242 133.912 84.4922 133.388 84.9242L132.988 85.2522L132.892 85.3322L132.764 85.4322C132.68 85.501 132.592 85.5651 132.5 85.6242C132.137 85.8733 131.741 86.0724 131.324 86.2162C130.539 86.4721 129.71 86.5634 128.888 86.4842C128.152 86.4105 127.427 86.2508 126.728 86.0082C125.434 85.5564 124.199 84.9479 123.052 84.1962C120.846 82.7649 118.813 81.0815 116.996 79.1802L118.06 78.0642C119.016 78.8322 120.024 79.5962 121.056 80.2882C122.067 80.9962 123.12 81.6427 124.208 82.2242C125.245 82.7935 126.339 83.2508 127.472 83.5882C128.552 83.8882 129.636 83.9402 130.384 83.6282C130.807 83.4444 131.185 83.1715 131.492 82.8282C131.936 82.4282 132.348 81.9842 132.768 81.5522C133.588 80.6602 134.348 79.7042 135.096 78.7522C135.844 77.8002 136.52 76.7522 137.176 75.7122C137.508 75.1922 137.824 74.6642 138.136 74.1362C138.448 73.6082 138.748 73.0522 139.008 72.5562L141.836 73.8882Z" fill="#E4897B"/>
<path d="M119.072 78.5401L117.648 75.5961L115.28 78.6041C115.28 78.6041 116.848 79.9121 118.372 79.8641L119.072 78.5401Z" fill="#E4897B"/>
<path d="M116.092 74.7361L114.752 77.3001L115.28 78.6041L117.648 75.5961L116.092 74.7361Z" fill="#E4897B"/>
<path d="M140.712 68.5761C138.896 68.8961 136.348 74.1081 136.348 74.1081L141.336 78.6161C141.336 78.6161 144.568 74.2761 144.376 71.9081C144.212 69.8881 143.024 68.1681 140.712 68.5761Z" fill="#FA1239"/>
<path opacity="0.6" d="M140.712 68.5761C138.896 68.8961 136.348 74.1081 136.348 74.1081L141.336 78.6161C141.336 78.6161 144.568 74.2761 144.376 71.9081C144.212 69.8881 143.024 68.1681 140.712 68.5761Z" fill="#FAFAFA"/>
<path d="M122.464 157.42C122.417 157.42 122.369 157.412 122.324 157.396C121.888 157.252 121.604 156.448 121.472 155.98C121.468 155.966 121.469 155.952 121.473 155.938C121.477 155.925 121.485 155.913 121.496 155.904C121.509 155.897 121.522 155.893 121.536 155.893C121.55 155.893 121.564 155.897 121.576 155.904C121.708 155.972 122.868 156.596 122.904 157.052C122.91 157.102 122.901 157.153 122.879 157.198C122.857 157.243 122.823 157.281 122.78 157.308C122.69 157.379 122.579 157.419 122.464 157.42ZM121.664 156.108C121.864 156.752 122.124 157.176 122.372 157.26C122.429 157.277 122.489 157.279 122.546 157.265C122.604 157.252 122.657 157.224 122.7 157.184C122.722 157.171 122.74 157.152 122.751 157.129C122.763 157.107 122.767 157.081 122.764 157.056C122.74 156.776 122.06 156.332 121.66 156.108H121.664Z" fill="#FA1239"/>
<path d="M122.644 156.288C122.249 156.287 121.859 156.195 121.504 156.02C121.493 156.015 121.484 156.006 121.477 155.995C121.471 155.985 121.468 155.973 121.468 155.96C121.468 155.947 121.472 155.934 121.479 155.922C121.486 155.911 121.496 155.902 121.508 155.896C121.544 155.896 122.464 155.372 122.96 155.548C123.021 155.568 123.077 155.601 123.123 155.646C123.17 155.69 123.206 155.744 123.228 155.804C123.26 155.862 123.271 155.929 123.259 155.993C123.247 156.058 123.214 156.117 123.164 156.16C123.009 156.258 122.827 156.303 122.644 156.288ZM121.7 155.96C122.1 156.128 122.856 156.232 123.072 156.048C123.108 156.02 123.14 155.968 123.096 155.856C123.08 155.816 123.056 155.779 123.024 155.749C122.992 155.719 122.954 155.697 122.912 155.684C122.572 155.564 121.96 155.832 121.7 155.96Z" fill="#FA1239"/>
<path d="M146.6 166.592C146.196 166.583 145.794 166.532 145.4 166.44C145.385 166.437 145.372 166.429 145.362 166.417C145.352 166.406 145.346 166.391 145.344 166.376C145.342 166.361 145.345 166.346 145.352 166.333C145.359 166.32 145.371 166.31 145.384 166.304C145.564 166.22 147.136 165.504 147.536 165.76C147.572 165.785 147.6 165.819 147.619 165.858C147.637 165.897 147.644 165.941 147.64 165.984C147.636 166.062 147.614 166.139 147.576 166.208C147.539 166.277 147.487 166.337 147.424 166.384C147.177 166.535 146.89 166.607 146.6 166.592ZM145.664 166.344C146.132 166.432 146.996 166.544 147.352 166.276C147.399 166.241 147.438 166.196 147.466 166.144C147.493 166.092 147.509 166.035 147.512 165.976C147.515 165.958 147.512 165.94 147.505 165.923C147.498 165.906 147.487 165.891 147.472 165.88C147.248 165.728 146.316 166.056 145.664 166.344Z" fill="#FA1239"/>
<path d="M145.432 166.44C145.417 166.446 145.4 166.446 145.384 166.44C145.374 166.431 145.367 166.42 145.363 166.407C145.358 166.395 145.358 166.381 145.36 166.368C145.36 166.304 145.736 164.748 146.588 164.848C146.804 164.872 146.86 164.98 146.872 165.064C146.928 165.464 145.932 166.264 145.46 166.452L145.432 166.44ZM146.512 164.972C145.964 164.972 145.648 165.876 145.54 166.24C146.056 165.968 146.764 165.32 146.74 165.068C146.74 165.048 146.74 164.992 146.584 164.976L146.512 164.972Z" fill="#FA1239"/>
<path d="M153.888 57.2961L154.62 57.2201C154.62 57.2201 154.164 57.7001 153.888 57.2961Z" fill="#263238"/>
<path opacity="0.6" d="M123.796 34.5001L112.072 110.288L178.04 120.48L189.764 44.6881L123.796 34.5001ZM150.9 77.6081C147.872 77.1395 145.051 75.7833 142.794 73.7111C140.538 71.6389 138.946 68.9439 138.221 65.9669C137.496 62.99 137.67 59.8649 138.722 56.987C139.773 54.1091 141.655 51.6078 144.128 49.7994C146.602 47.9911 149.556 46.9571 152.617 46.8281C155.678 46.6991 158.709 47.481 161.326 49.0749C163.943 50.6687 166.028 53.0029 167.318 55.7821C168.608 58.5614 169.044 61.6607 168.572 64.6881C167.94 68.7438 165.724 72.3827 162.41 74.8053C159.096 77.2278 154.957 78.2359 150.9 77.6081Z" fill="#FA1239"/>
<g style="mix-blend-mode:multiply" opacity="0.3">
<path d="M176.048 117.604H175.948L109.88 107.368V107.268L121.636 31.3921H121.732L187.8 41.6281V41.7281L176.048 117.604ZM110.108 107.204L175.88 117.376L187.572 41.7761L121.8 31.6201L110.108 107.204Z" fill="#FA1239"/>
</g>
<path d="M153.276 78.3921C152.45 78.3912 151.625 78.327 150.808 78.2001C146.705 77.5599 143.009 75.3552 140.495 72.0487C137.982 68.7422 136.847 64.5908 137.329 60.4656C137.81 56.3404 139.871 52.562 143.078 49.9232C146.285 47.2844 150.39 45.9903 154.531 46.3125C158.671 46.6346 162.526 48.5479 165.287 51.651C168.047 54.754 169.499 58.8056 169.336 62.9556C169.174 67.1057 167.411 71.0316 164.416 73.9096C161.422 76.7877 157.43 78.3942 153.276 78.3921ZM150.992 77.0161C153.901 77.4655 156.878 77.0423 159.547 75.8C162.215 74.5576 164.456 72.552 165.984 70.0365C167.513 67.5211 168.261 64.6089 168.135 61.6681C168.009 58.7273 167.013 55.8899 165.275 53.5148C163.536 51.1397 161.132 49.3334 158.367 48.3244C155.602 47.3154 152.6 47.1489 149.74 47.8461C146.88 48.5432 144.291 50.0726 142.301 52.241C140.31 54.4093 139.007 57.1192 138.556 60.0281C137.957 63.9293 138.93 67.9087 141.262 71.0935C143.593 74.2783 147.093 76.4082 150.992 77.0161Z" fill="#FAFAFA"/>
<path d="M138.158 82.297L123.626 80.05L123.121 83.3152L137.653 85.5622L138.158 82.297Z" fill="#FA1239"/>
<path opacity="0.6" d="M138.158 82.297L123.626 80.05L123.121 83.3152L137.653 85.5622L138.158 82.297Z" fill="#FAFAFA"/>
<path d="M149.903 84.1137L140.072 82.5935L139.567 85.8587L149.398 87.3789L149.903 84.1137Z" fill="#FA1239"/>
<path opacity="0.6" d="M149.903 84.1137L140.072 82.5935L139.567 85.8587L149.398 87.3789L149.903 84.1137Z" fill="#FAFAFA"/>
<path d="M175.148 94.7919L122.601 86.6665L122.096 89.9317L174.643 98.0571L175.148 94.7919Z" fill="#FAFAFA"/>
<path d="M148.086 97.5356L121.91 93.5696L121.414 96.8405L147.59 100.807L148.086 97.5356Z" fill="#FAFAFA"/>
<path d="M169.61 101.044L152.13 98.3412L151.625 101.606L169.105 104.309L169.61 101.044Z" fill="#FAFAFA"/>
<path d="M162.464 107.05L120.456 100.554L119.951 103.82L161.959 110.315L162.464 107.05Z" fill="#FAFAFA"/>
<path d="M190.468 120.48H190.068C190.07 119.487 189.947 118.499 189.704 117.536L190.104 117.44C190.352 118.434 190.474 119.456 190.468 120.48ZM188.9 115.312C188.02 113.47 186.69 111.88 185.032 110.688L185.264 110.364C186.976 111.593 188.351 113.233 189.264 115.132L188.9 115.312Z" fill="#FA1239"/>
<path opacity="0.6" d="M190.468 120.48H190.068C190.07 119.487 189.947 118.499 189.704 117.536L190.104 117.44C190.352 118.434 190.474 119.456 190.468 120.48ZM188.9 115.312C188.02 113.47 186.69 111.88 185.032 110.688L185.264 110.364C186.976 111.593 188.351 113.233 189.264 115.132L188.9 115.312Z" fill="#FAFAFA"/>
<path d="M178.04 109.452C175.859 109.452 173.727 110.099 171.913 111.311C170.1 112.522 168.686 114.245 167.852 116.26C167.017 118.275 166.799 120.492 167.224 122.632C167.65 124.771 168.7 126.736 170.242 128.278C171.785 129.82 173.75 130.871 175.889 131.296C178.028 131.722 180.245 131.503 182.261 130.669C184.276 129.834 185.998 128.421 187.21 126.607C188.421 124.793 189.068 122.661 189.068 120.48C189.068 117.555 187.906 114.75 185.838 112.682C183.77 110.614 180.965 109.452 178.04 109.452ZM178.04 130.08C176.142 130.08 174.286 129.517 172.707 128.462C171.128 127.407 169.898 125.908 169.171 124.154C168.444 122.4 168.254 120.469 168.625 118.607C168.995 116.745 169.909 115.035 171.252 113.692C172.595 112.349 174.305 111.435 176.167 111.065C178.03 110.694 179.96 110.884 181.714 111.611C183.468 112.338 184.968 113.568 186.022 115.147C187.077 116.725 187.64 118.581 187.64 120.48C187.64 123.026 186.629 125.468 184.828 127.268C183.028 129.069 180.586 130.08 178.04 130.08Z" fill="#FA1239"/>
<path opacity="0.6" d="M178.04 109.452C175.859 109.452 173.727 110.099 171.913 111.311C170.1 112.522 168.686 114.245 167.852 116.26C167.017 118.275 166.799 120.492 167.224 122.632C167.65 124.771 168.7 126.736 170.242 128.278C171.785 129.82 173.75 130.871 175.889 131.296C178.028 131.722 180.245 131.503 182.261 130.669C184.276 129.834 185.998 128.421 187.21 126.607C188.421 124.793 189.068 122.661 189.068 120.48C189.068 117.555 187.906 114.75 185.838 112.682C183.77 110.614 180.965 109.452 178.04 109.452ZM178.04 130.08C176.142 130.08 174.286 129.517 172.707 128.462C171.128 127.407 169.898 125.908 169.171 124.154C168.444 122.4 168.254 120.469 168.625 118.607C168.995 116.745 169.909 115.035 171.252 113.692C172.595 112.349 174.305 111.435 176.167 111.065C178.03 110.694 179.96 110.884 181.714 111.611C183.468 112.338 184.968 113.568 186.022 115.147C187.077 116.725 187.64 118.581 187.64 120.48C187.64 123.026 186.629 125.468 184.828 127.268C183.028 129.069 180.586 130.08 178.04 130.08Z" fill="#FAFAFA"/>
<path d="M178.04 130.076C183.34 130.076 187.636 125.78 187.636 120.48C187.636 115.18 183.34 110.884 178.04 110.884C172.741 110.884 168.444 115.18 168.444 120.48C168.444 125.78 172.741 130.076 178.04 130.076Z" fill="#FA1239"/>
<path opacity="0.2" d="M178.04 130.076C183.34 130.076 187.636 125.78 187.636 120.48C187.636 115.18 183.34 110.884 178.04 110.884C172.741 110.884 168.444 115.18 168.444 120.48C168.444 125.78 172.741 130.076 178.04 130.076Z" fill="black"/>
<path d="M176.548 126.552L170.916 120.92L172.332 119.508L176.548 123.724L183.752 116.52L185.164 117.936L176.548 126.552Z" fill="#FAFAFA"/>
</svg>
